<?xml version="1.0" standalone="no"?>
<!DOCTYPE svg PUBLIC "-//W3C//DTD SVG 20010904//EN"
 "http://www.w3.org/TR/2001/REC-SVG-20010904/DTD/svg10.dtd">
<svg version="1.0" xmlns="http://www.w3.org/2000/svg"
 width="1059.000000pt" height="1059.000000pt" viewBox="0 0 1059.000000 1059.000000"
 preserveAspectRatio="xMidYMid meet">
<metadata>
Created by potrace 1.14, written by Peter Selinger 2001-2017
</metadata>
<g transform="translate(0.000000,1059.000000) scale(0.100000,-0.100000)"
fill="#000000" stroke="none">
<path d="M9505 10578 c-95 -36 -235 -154 -455 -384 -321 -336 -870 -1026
-1245 -1567 l-130 -187 -35 5 c-191 26 -498 27 -615 2 -112 -24 -231 -84 -298
-152 -51 -52 -125 -170 -113 -182 3 -3 85 -7 183 -8 98 -2 270 -7 383 -11 113
-4 213 -7 223 -8 9 0 17 -2 17 -4 0 -9 -37 -72 -95 -162 -318 -489 -626 -1092
-695 -1359 -43 -163 -15 -302 77 -396 49 -50 139 -109 156 -102 6 2 32 51 57
108 24 57 82 185 128 284 46 99 98 212 115 250 64 140 477 964 558 1110 115
210 131 232 166 228 49 -5 287 -34 323 -38 19 -2 82 -11 140 -19 58 -8 130
-18 160 -21 64 -8 129 -21 137 -28 2 -3 -4 -63 -16 -134 -35 -224 -44 -342
-44 -558 0 -521 119 -791 378 -856 81 -20 236 -7 336 30 294 108 580 444 783
919 20 46 36 87 36 90 0 4 -22 31 -49 60 l-49 53 -28 -48 c-161 -284 -274
-450 -403 -588 -159 -171 -290 -232 -389 -181 -92 48 -130 215 -118 521 4 94
9 188 12 210 10 92 35 276 50 365 137 849 522 2121 751 2479 45 70 52 85 40
95 -97 77 -189 142 -231 163 -58 29 -153 39 -201 21z m-216 -515 c-6 -15 -17
-41 -24 -58 -23 -48 -113 -287 -172 -455 -117 -334 -249 -778 -343 -1157 -27
-110 -46 -170 -54 -168 -14 5 -643 145 -651 145 -12 0 44 96 223 385 272 437
490 748 705 1005 68 82 311 330 322 330 3 0 0 -12 -6 -27z"/>
<path d="M2229 10576 c-2 -2 -42 -6 -89 -10 -190 -13 -476 -75 -700 -151 -181
-61 -372 -139 -378 -153 -9 -24 28 -80 91 -139 62 -56 91 -73 132 -73 13 0 99
38 192 83 92 46 197 96 233 110 76 30 280 90 286 84 2 -2 -27 -69 -64 -148
-279 -584 -542 -1289 -977 -2609 -119 -364 -121 -369 -140 -453 -42 -184 -16
-272 105 -353 98 -65 263 -113 287 -82 14 18 117 383 263 933 116 440 224 820
235 828 11 8 784 2 855 -8 25 -3 83 -10 130 -16 222 -26 427 -81 560 -150 214
-110 313 -269 309 -494 -4 -196 -85 -373 -252 -551 -294 -314 -831 -553 -1430
-638 -231 -33 -289 -37 -522 -41 -211 -2 -332 5 -481 30 -112 18 -153 19 -178
0 -16 -12 -18 -23 -12 -89 27 -307 259 -443 736 -431 96 2 189 6 205 9 17 3
71 10 120 16 392 51 832 183 1170 352 153 77 187 96 315 181 372 248 589 531
662 861 20 92 26 250 13 331 -44 268 -257 502 -590 648 -135 58 -428 138 -555
149 -34 4 -32 4 25 21 402 119 662 255 854 448 167 169 231 324 237 579 7 298
-74 480 -289 652 -159 128 -390 213 -687 253 -113 16 -658 33 -671 21z m501
-211 c349 -50 586 -184 669 -379 75 -174 63 -462 -25 -639 -170 -338 -599
-560 -1259 -651 -60 -9 -153 -18 -205 -22 -52 -3 -105 -7 -117 -9 -13 -2 -25
1 -28 6 -9 13 156 528 275 859 102 287 167 444 320 778 l34 72 115 0 c64 0
163 -7 221 -15z"/>
<path d="M5369 10576 c-2 -2 -53 -6 -114 -10 -307 -17 -560 -83 -709 -185 -95
-64 -191 -200 -211 -298 -7 -37 -4 -38 62 -23 23 5 88 17 145 25 57 9 114 18
128 20 21 3 162 21 325 40 42 5 116 11 225 19 118 9 430 19 430 14 0 -3 -18
-66 -39 -140 -67 -228 -107 -392 -257 -1063 -292 -1303 -448 -1885 -604 -2260
-23 -55 -44 -108 -47 -117 -3 -10 -13 -18 -22 -19 -9 0 -54 -2 -101 -4 -97 -4
-236 -14 -265 -20 -11 -3 -36 -7 -55 -9 -163 -23 -333 -99 -408 -181 -58 -63
-111 -179 -119 -261 -7 -64 -19 -61 149 -35 173 28 179 29 313 40 286 24 437
30 1025 36 372 4 425 7 515 26 160 34 264 74 365 142 71 48 182 138 176 144
-6 6 -26 7 -241 18 -77 4 -147 8 -155 10 -8 1 -58 6 -110 10 -52 4 -102 9
-110 10 -8 2 -53 6 -100 10 -47 4 -92 8 -100 10 -8 1 -58 6 -110 10 -52 4
-102 9 -111 10 -9 2 -56 6 -105 10 -49 4 -92 9 -96 11 -4 3 15 33 43 67 202
249 327 660 533 1747 36 190 72 383 80 430 8 47 46 256 85 465 38 209 71 394
74 410 3 17 12 68 21 115 8 47 17 96 20 110 22 133 49 257 57 265 9 9 81 11
470 15 288 2 400 22 543 92 80 39 247 162 235 172 -3 3 -210 30 -319 41 -205
22 -305 31 -420 40 -47 4 -103 8 -125 10 -22 2 -92 7 -155 10 -63 3 -135 8
-160 11 -55 6 -645 15 -651 10z"/>
<path d="M7231 5965 c-13 -27 -43 -100 -68 -162 -27 -67 -49 -110 -56 -108 -7
3 -24 7 -40 9 -26 5 -120 22 -162 30 -11 2 -45 7 -75 10 l-55 7 25 -21 c14
-12 36 -31 50 -43 14 -12 62 -53 108 -90 45 -38 82 -70 82 -71 0 -2 -36 -70
-80 -151 -44 -82 -78 -150 -76 -152 4 -4 82 42 211 126 l80 52 117 -122 c65
-67 120 -120 123 -117 4 3 -4 43 -15 89 -12 46 -23 92 -25 102 -2 9 -6 21 -9
25 -3 5 -7 19 -10 33 -2 13 -7 36 -11 51 -7 27 -4 29 150 104 86 42 155 77
153 79 -2 2 -43 6 -93 10 -49 3 -110 8 -135 10 -25 2 -61 4 -81 4 l-36 1 -12
98 c-7 53 -15 115 -18 137 -3 22 -8 56 -13 75 l-7 35 -22 -50z"/>
<path d="M2900 5733 c0 -6 14 -55 31 -109 69 -221 99 -323 99 -332 0 -9 -31
-28 -165 -102 -16 -9 -79 -43 -138 -74 -60 -32 -107 -60 -105 -61 3 -3 270
-12 439 -14 l36 -1 44 -235 c24 -129 47 -229 51 -222 4 7 40 108 79 226 l71
213 67 -5 c36 -4 114 -13 172 -21 154 -22 229 -29 229 -22 0 3 -81 66 -179
140 -99 74 -181 139 -184 143 -2 4 37 96 87 203 113 239 111 233 88 221 -9 -6
-48 -33 -87 -61 -38 -27 -119 -84 -179 -126 l-109 -76 -41 39 c-254 240 -306
286 -306 276z"/>
<path d="M4991 5528 c-50 -269 -93 -483 -97 -487 -4 -5 -102 -7 -446 -13 -104
-2 -188 -4 -188 -4 0 -1 100 -56 223 -123 314 -171 322 -176 325 -193 2 -9
-16 -76 -39 -150 -24 -73 -44 -137 -45 -143 -1 -5 -18 -62 -39 -125 -20 -63
-40 -127 -45 -143 -7 -22 -6 -26 5 -20 13 7 171 155 364 340 42 40 81 73 86
73 6 0 123 -81 260 -179 138 -98 251 -178 253 -176 3 3 -38 94 -133 290 -110
228 -125 262 -124 277 0 7 77 69 171 138 93 69 204 151 247 184 l76 58 -70 -6
c-38 -3 -79 -8 -90 -10 -11 -2 -45 -7 -75 -10 -30 -4 -66 -8 -80 -10 -14 -3
-45 -7 -70 -10 -25 -3 -84 -10 -133 -17 -98 -12 -117 -9 -117 21 0 11 -4 28
-10 38 -5 9 -37 98 -70 197 -74 216 -112 325 -114 325 -1 0 -12 -55 -25 -122z"/>
<path d="M7460 4535 c-30 -7 -134 -31 -230 -54 -96 -23 -184 -43 -195 -45
-168 -32 -216 -65 -460 -310 -213 -214 -247 -255 -429 -506 -202 -279 -475
-793 -635 -1195 -45 -115 -87 -221 -93 -235 -21 -51 -67 -189 -108 -318 -23
-74 -46 -132 -52 -130 -6 2 -22 24 -35 48 -50 89 -170 222 -298 329 -91 76
-267 176 -470 266 -129 57 -523 167 -685 190 -24 4 -47 8 -50 10 -3 2 -26 6
-50 10 -25 3 -56 8 -70 10 -14 2 -50 7 -80 10 -30 3 -64 7 -75 9 -21 4 -108
15 -160 21 -83 9 -353 19 -545 19 l-215 1 -130 -71 c-71 -39 -204 -113 -295
-164 -91 -51 -190 -106 -220 -122 -71 -39 -157 -87 -195 -108 -54 -31 -186
-105 -395 -220 -113 -62 -224 -126 -246 -141 -53 -36 -68 -74 -46 -119 15 -31
67 -64 84 -54 20 13 4 -34 -40 -113 -89 -163 -97 -192 -64 -233 23 -29 75 -38
230 -39 69 -1 134 -7 145 -13 20 -10 20 -11 -9 -36 -16 -13 -103 -95 -193
-181 -90 -86 -180 -171 -200 -190 -55 -51 -338 -320 -391 -371 -122 -118 -197
-183 -218 -191 -13 -5 -42 -9 -65 -9 -39 0 -82 -19 -99 -44 -16 -23 -7 -67 20
-97 l28 -31 2228 -3 2228 -2 57 -57 57 -56 2783 0 c2639 0 2785 1 2798 18 66
82 26 137 -106 146 -71 5 -52 -10 -280 216 -42 41 -107 102 -146 135 -38 33
-94 84 -125 113 -30 30 -106 102 -169 160 -217 203 -275 261 -269 267 6 6 175
-15 248 -30 92 -20 186 -25 208 -13 32 17 54 62 46 93 -9 36 -37 53 -287 177
-807 402 -1077 531 -1137 546 -78 20 -193 43 -260 52 -36 5 -92 13 -125 19
-33 6 -87 14 -120 17 -33 3 -67 7 -75 9 -25 7 -150 24 -225 30 -38 3 -79 8
-91 10 -11 3 -43 7 -70 10 -27 3 -60 8 -74 10 -13 3 -58 7 -100 11 -41 3 -88
7 -105 9 -16 1 -73 6 -125 10 -52 4 -98 9 -101 11 -12 7 -117 -24 -164 -49
-146 -79 -241 -145 -410 -286 -140 -118 -464 -445 -683 -691 -17 -19 -32 -29
-32 -23 0 31 117 300 215 493 122 241 174 339 198 377 15 24 27 45 27 49 0 3
20 38 44 78 24 39 82 136 130 216 48 80 125 204 171 275 46 72 128 202 181
290 54 88 120 193 148 233 86 125 95 138 488 762 146 231 186 295 263 415 166
259 182 293 159 337 -8 15 -18 30 -24 33 -20 12 -87 13 -140 0z m-120 -230 c0
-9 -32 -64 -71 -122 -39 -59 -74 -114 -77 -123 -3 -8 -31 -53 -62 -100 -31
-47 -74 -114 -95 -150 -21 -36 -66 -108 -100 -160 -34 -52 -86 -133 -116 -180
-29 -47 -57 -86 -61 -88 -5 -2 -8 -8 -8 -13 0 -13 -151 -253 -162 -257 -4 -2
-8 -8 -8 -13 0 -11 -37 -69 -200 -319 -243 -372 -376 -589 -540 -885 -107
-193 -316 -625 -381 -785 -34 -85 -63 -157 -65 -159 -17 -19 -24 71 -26 329
-1 164 1 192 19 245 12 33 31 96 43 140 41 155 127 401 227 655 215 545 508
1066 798 1420 106 130 356 384 437 445 64 48 65 48 268 99 159 39 180 41 180
21z m-4280 -1820 c63 -3 129 -8 145 -10 17 -2 62 -6 100 -10 39 -3 115 -12
170 -20 55 -7 122 -16 149 -20 27 -3 52 -8 55 -10 3 -1 22 -6 41 -9 72 -11
146 -27 175 -36 17 -5 46 -12 65 -15 51 -9 279 -80 390 -121 164 -62 366 -173
480 -263 77 -61 181 -173 227 -244 101 -154 129 -254 138 -487 4 -91 8 -199
10 -240 6 -130 7 -301 2 -306 -3 -3 -61 37 -129 88 -301 229 -647 425 -1018
577 -85 35 -169 70 -185 77 -115 49 -600 197 -715 217 -14 3 -43 10 -65 15
-63 17 -182 42 -280 58 -49 8 -101 17 -115 20 -14 3 -72 12 -130 20 -58 8
-118 16 -135 18 -16 3 -57 7 -90 11 -33 3 -73 8 -90 10 -16 2 -70 7 -120 10
-49 3 -119 8 -155 11 -128 10 -192 13 -333 15 -216 3 -236 9 -159 47 20 11 64
34 97 52 33 18 94 52 135 75 41 23 136 75 210 117 74 41 162 90 195 108 33 18
78 43 100 56 22 12 99 54 170 94 72 40 136 77 144 83 27 22 246 27 521 12z
m4040 -649 c54 -10 93 -15 270 -32 30 -2 64 -7 75 -9 11 -2 40 -6 65 -9 25 -3
88 -10 140 -16 52 -6 118 -15 145 -20 28 -5 73 -12 100 -15 48 -5 156 -23 275
-46 30 -6 67 -12 81 -15 15 -2 55 -14 90 -27 90 -34 749 -359 749 -369 0 -8
-137 -1 -151 8 -3 1 -43 6 -90 9 -46 3 -98 8 -115 10 -17 3 -71 7 -120 10 -49
4 -100 8 -114 11 -14 2 -79 7 -145 10 -66 3 -142 7 -170 10 -70 5 -656 5 -855
-1 -158 -5 -228 -9 -301 -19 -19 -3 -61 -8 -94 -11 -33 -3 -69 -7 -80 -9 -11
-2 -47 -7 -80 -10 -92 -11 -393 -73 -455 -94 -30 -11 -59 -20 -65 -21 -37 -7
-132 -39 -200 -67 -80 -34 -105 -40 -105 -26 0 4 89 96 198 203 252 250 392
368 562 476 128 81 133 82 255 78 61 -3 121 -7 135 -9z m-5187 -180 c92 -4
178 -9 190 -11 12 -2 51 -7 87 -10 109 -10 233 -24 275 -31 17 -3 45 -7 63
-10 17 -2 47 -6 65 -8 28 -4 170 -28 237 -41 30 -5 135 -29 250 -56 47 -11 94
-21 105 -23 109 -21 587 -176 707 -229 18 -8 67 -28 108 -45 125 -49 340 -154
334 -163 -3 -5 -21 -2 -41 6 -43 18 -398 117 -503 140 -318 70 -406 87 -510
101 -25 3 -61 10 -81 15 -19 5 -60 11 -90 15 -30 3 -83 10 -119 15 -36 6 -81
12 -100 15 -19 2 -73 8 -120 14 -47 6 -101 12 -120 14 -19 2 -60 7 -90 10 -58
7 -105 11 -235 21 -44 4 -91 9 -105 11 -14 2 -77 7 -140 10 -63 3 -140 7 -170
9 -30 2 -107 6 -170 9 -433 21 -514 27 -527 37 -8 7 -1 28 26 77 56 101 64
111 86 114 35 5 412 1 588 -6z m-58 -401 c55 -3 116 -7 135 -9 19 -2 86 -7
149 -10 63 -4 128 -8 145 -11 17 -2 65 -7 105 -10 41 -3 77 -8 80 -9 4 -2 47
-7 96 -11 98 -7 126 -10 182 -19 21 -4 65 -9 98 -12 33 -2 73 -7 90 -10 16 -2
55 -9 85 -14 30 -5 78 -12 105 -15 28 -4 82 -13 120 -20 39 -8 97 -19 130 -24
184 -31 189 -42 15 -34 -203 8 -673 8 -825 0 -271 -15 -374 -23 -425 -32 -8
-2 -53 -6 -100 -10 -96 -8 -120 -11 -170 -19 -34 -5 -47 -7 -155 -21 -50 -6
-217 -31 -265 -39 -109 -19 -181 -28 -186 -23 -3 3 35 45 86 94 51 48 126 121
168 162 103 99 123 110 186 106 28 -2 96 -7 151 -10z m6210 -79 c105 -4 206
-8 225 -10 19 -2 87 -7 151 -10 63 -4 124 -8 135 -10 17 -3 55 -7 214 -22 113
-10 143 -15 169 -29 36 -18 308 -281 300 -289 -4 -4 -33 2 -65 13 -389 129
-908 244 -1210 266 -38 3 -76 8 -85 10 -46 15 -471 20 -724 10 -298 -13 -665
-87 -957 -194 -206 -75 -429 -184 -538 -261 -30 -22 -50 -26 -50 -10 0 8 34
38 137 120 86 69 311 176 503 240 53 18 302 82 365 94 17 4 41 9 55 12 27 5
61 10 130 19 25 3 56 7 70 10 45 8 93 13 175 21 44 3 91 8 105 10 14 2 122 6
240 10 118 4 216 7 217 8 3 2 261 -2 438 -8z m-220 -250 c39 -4 99 -11 135
-16 36 -5 92 -12 125 -16 33 -4 69 -8 80 -10 67 -11 103 -18 215 -40 69 -14
136 -28 150 -30 169 -31 830 -235 830 -256 0 -6 -14 -8 -37 -3 -44 8 -62 11
-124 19 -55 8 -88 13 -154 26 -27 5 -77 12 -110 15 -73 7 -113 13 -185 25 -30
5 -86 11 -125 15 -67 5 -141 14 -177 21 -9 1 -49 5 -90 9 -40 3 -89 8 -108 10
-19 2 -78 7 -131 11 -54 3 -112 7 -130 9 -220 23 -1166 23 -1289 1 -22 -4 -68
-9 -195 -22 -96 -10 -285 -42 -375 -65 -25 -6 -52 -12 -61 -14 -9 -2 -49 -13
-88 -25 -40 -12 -77 -20 -84 -17 -15 5 85 58 222 117 175 74 408 148 551 174
14 2 36 7 50 10 14 3 39 8 55 10 17 3 71 12 120 20 50 8 128 18 175 22 47 3
86 7 87 8 6 5 608 -2 668 -8z m-4385 -59 c14 -3 63 -8 110 -11 47 -4 96 -8
110 -11 14 -2 43 -6 65 -9 39 -4 142 -21 200 -32 43 -8 229 -50 305 -69 223
-55 519 -181 690 -294 74 -48 170 -123 170 -131 0 -17 -13 -23 -202 -100 l-47
-19 -47 40 c-26 22 -57 45 -70 49 -12 5 -838 9 -1835 10 -2091 2 -2265 3
-2275 12 -12 12 338 345 379 361 31 12 138 34 302 63 77 13 149 26 160 28 30
6 206 32 275 40 19 3 64 9 100 15 36 5 99 13 140 16 41 4 77 8 80 10 3 2 43 6
90 10 47 3 103 8 125 10 22 3 85 7 140 10 55 4 102 8 104 11 7 6 901 -2 931
-9z m4460 -320 c19 -3 89 -8 155 -12 66 -3 135 -8 153 -11 17 -2 47 -6 65 -8
32 -5 99 -12 205 -21 61 -6 132 -14 172 -21 14 -2 79 -11 145 -19 66 -9 131
-18 145 -21 14 -2 39 -6 55 -8 63 -9 131 -19 150 -21 18 -3 49 -7 130 -20 17
-3 41 -7 55 -10 14 -3 41 -7 60 -10 19 -3 59 -10 89 -16 30 -6 64 -12 75 -14
85 -11 216 -39 243 -52 18 -8 54 -36 80 -61 l48 -47 -90 -5 c-50 -3 -1007 -5
-2128 -4 -1989 1 -2039 1 -2057 20 -11 10 -21 30 -22 44 -3 22 7 30 92 72 167
83 502 179 710 203 30 4 57 8 60 10 3 2 37 6 75 10 39 4 81 8 95 10 14 2 66 7
115 10 50 4 92 9 95 11 6 7 987 -2 1030 -9z m-2496 -358 c12 -11 -7 -18 -60
-23 -58 -5 -75 8 -38 28 29 15 79 13 98 -5z"/>
<path d="M2658 2335 c-3 -3 -69 -10 -178 -20 -48 -4 -70 -16 -76 -41 -4 -14
-4 -27 -1 -31 13 -12 74 -18 131 -12 91 10 620 8 701 -2 39 -5 97 -14 130 -19
33 -6 73 -12 88 -14 149 -24 415 -101 592 -171 327 -130 582 -280 831 -487 45
-38 90 -68 101 -68 24 0 43 18 43 42 0 16 -57 78 -126 138 -41 36 -288 210
-297 210 -3 0 -41 21 -84 47 -340 201 -775 351 -1168 402 -44 6 -102 13 -130
17 -48 7 -551 14 -557 9z"/>
<path d="M2449 2036 c-4 -4 -71 -14 -106 -15 -13 -1 -53 -40 -53 -52 0 -4 8
-15 17 -24 17 -17 67 -17 203 0 49 7 520 7 549 1 13 -3 49 -8 80 -12 45 -5
278 -51 341 -68 8 -2 35 -9 60 -16 334 -89 736 -304 1003 -536 62 -54 92 -65
115 -42 34 34 -5 84 -157 201 -120 93 -161 121 -246 171 -98 57 -326 171 -390
195 -162 61 -200 74 -330 111 -77 21 -160 42 -185 45 -49 6 -131 22 -170 32
-27 7 -724 15 -731 9z"/>
<path d="M2416 533 c-1 -1 -237 -3 -525 -4 -287 -1 -535 -4 -549 -8 -21 -6
-27 -14 -27 -36 0 -23 6 -30 27 -36 15 -4 709 -8 1543 -8 l1515 -2 12 26 c10
22 9 29 -8 45 -19 20 -42 20 -1003 22 -540 2 -984 2 -985 1z"/>
<path d="M6005 316 c-19 -29 -10 -54 22 -62 14 -4 704 -7 1535 -8 1435 -1
1510 0 1526 17 12 13 13 24 6 45 l-9 27 -1533 2 -1532 2 -15 -23z"/>
<path d="M3281 4155 c-69 -107 -130 -195 -135 -195 -13 1 -34 9 -254 93 -94
37 -175 67 -178 67 -6 0 17 -29 184 -235 57 -70 101 -132 99 -138 -3 -7 -64
-84 -137 -172 -72 -88 -136 -168 -141 -178 -10 -17 -8 -17 28 -2 81 34 369
143 387 146 23 5 29 -4 236 -328 18 -29 37 -50 41 -47 4 2 6 10 4 17 -4 12 -9
89 -21 318 -6 118 -5 127 12 133 27 7 366 97 384 101 70 15 57 21 -171 80
l-231 60 6 125 c10 209 17 324 21 338 14 41 -25 -11 -134 -183z"/>
<path d="M8999 3943 c0 -10 -2 -27 -4 -38 -2 -11 -5 -48 -6 -83 -3 -73 -6 -77
-94 -87 -33 -4 -78 -10 -100 -14 l-40 -8 30 -12 c129 -50 180 -78 178 -97 -2
-27 -13 -91 -24 -143 -16 -72 -10 -69 93 56 49 59 46 59 146 4 107 -59 108
-59 76 -4 -15 27 -42 70 -59 96 l-32 48 81 79 c44 44 74 80 66 80 -8 0 -58
-11 -110 -25 -52 -13 -95 -23 -96 -22 -1 1 -23 44 -48 95 -25 50 -48 92 -51
92 -3 0 -5 -8 -6 -17z"/>
<path d="M7936 3709 c-86 -81 -144 -128 -153 -125 -7 3 -81 53 -164 112 -83
58 -153 104 -155 101 -3 -2 33 -84 79 -182 l84 -179 -156 -118 c-86 -65 -157
-122 -159 -126 -1 -4 71 2 160 15 90 12 180 22 200 22 42 1 39 8 118 -234 23
-71 46 -134 50 -138 4 -5 11 9 14 30 4 21 21 111 38 201 l30 162 72 1 c151 2
328 7 331 11 2 2 -75 46 -171 98 -95 52 -174 100 -174 106 0 9 35 126 106 357
3 9 2 17 -3 17 -4 -1 -70 -59 -147 -131z"/>
<path d="M4507 3583 c7 -54 15 -132 19 -174 l6 -76 -166 -58 c-92 -32 -165
-59 -163 -61 1 -2 77 -17 167 -35 91 -17 168 -34 172 -38 4 -3 9 -86 10 -184
2 -140 6 -174 15 -161 6 9 47 81 90 160 43 79 83 142 88 140 62 -24 317 -97
322 -92 3 3 -28 41 -69 83 -133 139 -160 171 -152 185 4 7 50 73 101 146 51
72 93 134 93 137 0 2 -65 -27 -144 -65 -79 -37 -153 -71 -164 -74 -17 -6 -37
16 -122 129 -57 74 -106 135 -109 135 -4 0 -1 -44 6 -97z"/>
<path d="M8217 2973 c29 -163 30 -157 -14 -172 -21 -7 -62 -24 -91 -37 -29
-13 -58 -24 -64 -24 -8 0 -8 -3 -2 -9 9 -9 42 -15 151 -27 l61 -7 7 -76 c3
-42 7 -95 7 -118 0 -24 2 -43 5 -43 2 0 26 47 53 104 l48 104 79 -18 c43 -11
96 -23 117 -29 l39 -10 -79 79 c-43 44 -80 84 -82 89 -2 6 22 51 52 101 31 49
56 92 56 96 0 3 -15 -3 -32 -14 -41 -24 -166 -92 -170 -92 -2 0 -37 41 -77 90
-41 50 -75 90 -76 90 -1 0 4 -35 12 -77z"/>
<path d="M7255 2798 c-4 -24 -9 -52 -12 -63 -2 -11 -7 -36 -10 -55 -10 -66
-10 -66 -137 -65 -64 0 -116 -1 -116 -2 0 -3 162 -93 168 -93 3 0 13 -7 22
-15 16 -14 15 -23 -16 -125 -17 -61 -29 -110 -26 -110 4 0 43 36 86 79 91 91
70 92 204 -6 39 -29 72 -50 72 -47 0 4 -20 51 -45 105 -25 54 -42 104 -40 111
3 7 44 40 90 73 47 33 85 64 85 68 0 5 -3 6 -7 4 -9 -6 -141 -20 -193 -21
l-35 -1 -35 103 c-19 56 -38 102 -42 102 -3 0 -9 -19 -13 -42z"/>
<path d="M9235 2425 c-55 -52 -103 -94 -108 -95 -7 0 -42 24 -175 118 -35 24
-64 43 -66 41 -2 -2 23 -60 56 -129 32 -68 56 -130 54 -136 -3 -7 -49 -46
-103 -86 -139 -104 -138 -102 -72 -93 30 3 65 8 79 10 14 2 52 7 85 10 33 4
64 8 69 9 5 0 30 -58 56 -131 25 -72 48 -135 52 -138 4 -4 10 10 13 31 32 181
51 247 69 250 11 2 77 4 148 5 70 1 128 4 128 5 0 3 -41 26 -171 97 -96 52
-91 33 -47 176 21 69 40 132 43 139 9 25 -13 9 -110 -83z"/>
</g>
</svg>
