<?xml version="1.0" encoding="UTF-8" standalone="no"?>
<!-- Svg Vector Icons : http://www.onlinewebfonts.com/icon -->

<svg
   version="1.1"
   x="0px"
   y="0px"
   viewBox="0 0 683.45337 683.66223"
   enable-background="new 0 0 1000 1000"
   xml:space="preserve"
   id="svg10"
   sodipodi:docname="img_2585.svg"
   width="683.45337"
   height="683.66223"
   inkscape:version="1.1.1 (3bf5ae0d25, 2021-09-20, custom)"
   xmlns:inkscape="http://www.inkscape.org/namespaces/inkscape"
   xmlns:sodipodi="http://sodipodi.sourceforge.net/DTD/sodipodi-0.dtd"
   xmlns="http://www.w3.org/2000/svg"
   xmlns:svg="http://www.w3.org/2000/svg"><defs
   id="defs14" /><sodipodi:namedview
   id="namedview12"
   pagecolor="#505050"
   bordercolor="#eeeeee"
   borderopacity="1"
   inkscape:pageshadow="0"
   inkscape:pageopacity="0"
   inkscape:pagecheckerboard="0"
   showgrid="false"
   fit-margin-top="0"
   fit-margin-left="0"
   fit-margin-right="0"
   fit-margin-bottom="0"
   inkscape:zoom="1.0281333"
   inkscape:cx="607.89785"
   inkscape:cy="362.30712"
   inkscape:window-width="1920"
   inkscape:window-height="1020"
   inkscape:window-x="0"
   inkscape:window-y="0"
   inkscape:window-maximized="1"
   inkscape:current-layer="svg10" />
<metadata
   id="metadata2"> Svg Vector Icons : http://www.onlinewebfonts.com/icon </metadata>

<path
   style="fill:#f72142;fill-opacity:1;stroke:#f72142;stroke-width:1.37552;stroke-opacity:1"
   d="m 503.27848,682.21612 c -25.10271,-1.90016 -49.4162,-9.20744 -117.82944,-35.41297 -44.17469,-16.921 -82.23283,-37.77674 -116.40723,-63.79081 -9.42487,-7.17434 -10.51386,-8.4466 -8.94086,-10.44547 2.93245,-3.72637 74.17532,-88.81465 75.91619,-90.66981 1.2607,-1.34348 3.20519,-0.62304 9.13044,3.38284 4.14072,2.79942 18.36078,11.48404 31.60012,19.29914 27.6102,16.29815 39.68756,20.92307 48.07533,18.41004 10.27427,-3.07825 23.00545,-15.47218 46.1085,-44.88707 13.4567,-17.13313 31.58368,-35.29562 39.00553,-39.08197 11.15181,-5.68923 19.48363,-3.33495 40.80403,11.52977 11.69131,8.15125 44.63104,27.15498 86.66685,50.00024 26.62296,14.46881 37.55143,21.1304 41.59535,25.35501 3.58897,3.74931 3.7946,4.65722 3.75863,16.59606 -0.0565,18.76922 -7.44208,50.48104 -15.43285,66.26507 -7.37432,14.56639 -21.25099,27.35369 -46.85862,43.18009 -26.11923,16.14255 -59.05684,27.98244 -82.7874,29.75906 -5.67401,0.4248 -12.48281,0.95977 -15.13068,1.18883 -2.64787,0.22907 -11.32111,-0.0761 -19.27389,-0.67805 z"
   id="path86222" /><path
   style="fill:#ff7b09;fill-opacity:1;stroke:#ff7b09;stroke-width:0.972637;stroke-opacity:1"
   d="m 239.54787,560.29075 c -1.77963,-1.4625 -3.45454,-2.88619 -3.72202,-3.16375 -0.26747,-0.27756 -5.08202,-4.44086 -10.699,-9.25176 -14.73353,-12.61918 -23.07202,-20.52222 -47.66141,-45.17247 -25.67681,-25.74035 -40.91346,-42.3427 -54.95175,-59.87723 -2.1398,-2.67272 -4.12646,-5.07833 -4.4148,-5.34581 -0.28834,-0.26747 -3.92803,-4.86318 -8.08819,-10.21268 -4.16016,-5.3495 -8.0857,-10.38289 -8.72342,-11.18532 -0.63772,-0.80242 -5.582268,-7.80541 -10.987888,-15.56218 -15.65996,-22.4712 -32.08686,-50.83468 -39.99496,-69.0572 -1.04469,-2.40728 -3.32388,-7.65951 -5.06486,-11.67164 -1.74098,-4.01213 -3.56574,-8.06593 -4.05502,-9.00846 -0.48927,-0.94253 -1.58264,-3.78749 -2.42972,-6.32214 -0.84707,-2.53464 -2.1149,-5.92151 -2.81739,-7.52636 -1.41322,-3.22849 -4.49619,-11.72458 -7.23529,-19.93905 -0.98107,-2.94222 -2.32307,-6.66256 -2.98221,-8.26741 -0.65914,-1.60485 -1.52922,-3.79328 -1.93353,-4.86318 -0.4043,-1.0699 -1.41136,-3.69602 -2.23791,-5.83582 -1.55326,-4.02115 -5.20776,-14.23444 -7.83059,-21.88432 -14.37055023,-41.91381 -17.0027902,-78.75674 -8.0608202,-112.82585 2.79496,-10.64887 5.9627202,-20.60111 7.8944402,-24.802226 0.73793,-1.60485 2.0802,-4.668648 2.98282,-6.808448 2.46323,-5.83943 8.01574,-16.72139 10.70898,-20.98776 1.31096,-2.0767 2.38357,-4.04381 2.38357,-4.37136 0,-1.07379 12.86388,-20.23212 17.25919,-25.704303 14.75929,-18.375419 23.92009,-24.605381 45.96219,-31.2573849 25.858078,-7.8036195 55.179628,-11.2216364 61.856058,-7.2105705 5.16731,3.104413 12.50384,13.7693974 22.44793,32.6321364 2.39714,4.547075 5.25516,9.799313 6.35116,11.671638 1.096,1.872326 3.63205,6.468034 5.63567,10.212684 2.00361,3.74465 4.73237,8.77805 6.06389,11.18532 1.33152,2.40728 3.75163,6.78414 5.37802,9.72637 1.6264,2.94222 4.53191,8.12708 6.45669,11.52191 1.92478,3.39483 3.4996,6.31939 3.4996,6.49902 0,0.53355 15.26058,25.892764 18.20141,30.246114 15.83602,23.44238 17.95279,27.56162 18.55633,36.11068 0.67555,9.56919 -2.25965,14.47977 -18.22172,30.48484 -7.25258,7.27212 -18.13042,16.9757 -24.17296,21.56349 -12.91138,9.80294 -20.38915,16.18436 -29.902,25.51792 -14.85559,14.57561 -17.18538,21.11257 -12.54821,35.20785 2.5701,7.81219 10.34631,22.64776 12.30441,23.47456 0.42231,0.17832 0.76782,0.71772 0.76782,1.19866 0,0.48095 1.75075,3.73484 3.89055,7.23086 2.1398,3.49601 3.89055,6.52782 3.89055,6.73733 0,0.62715 11.8547,19.95082 17.04939,27.79126 2.65825,4.01213 5.00861,7.73247 5.22305,8.26742 0.21444,0.53495 0.67562,1.19148 1.02486,1.45895 0.34923,0.26748 1.68174,2.20754 2.96111,4.31123 2.45731,4.0406 24.75797,33.42088 26.62737,35.08055 0.60255,0.53495 3.70015,4.03644 6.88356,7.78109 8.1156,9.54641 33.35128,34.93406 41.0896,41.33706 3.55582,2.94222 7.15592,6.03619 8.00021,6.87547 2.05329,2.04109 18.72919,15.16081 25.12442,19.76657 l 5.10923,3.6796 -10.01585,11.82985 c -5.50872,6.50641 -18.961,22.55316 -29.89397,35.65943 -10.93296,13.10628 -20.10484,24.04844 -20.38193,24.31592 -0.2771,0.26747 -2.68734,3.11243 -5.35611,6.32213 -2.66876,3.20971 -5.41092,6.42082 -6.09369,7.13581 -0.68277,0.715 -2.38094,2.79401 -3.77372,4.62002 -1.39277,1.82602 -2.88447,3.32004 -3.31488,3.32004 -0.43042,0 -2.23864,-1.19659 -4.01826,-2.6591 z"
   id="path95894" /></svg>
