<?xml version="1.0" encoding="UTF-8" standalone="no"?>
<!-- Created with Inkscape (http://www.inkscape.org/) -->

<svg
   width="210mm"
   height="210mm"
   viewBox="0 0 210 210"
   version="1.1"
   id="svg5"
   inkscape:version="1.1.1 (3bf5ae0d25, 2021-09-20, custom)"
   sodipodi:docname="maps.svg"
   xmlns:inkscape="http://www.inkscape.org/namespaces/inkscape"
   xmlns:sodipodi="http://sodipodi.sourceforge.net/DTD/sodipodi-0.dtd"
   xmlns="http://www.w3.org/2000/svg"
   xmlns:svg="http://www.w3.org/2000/svg">
  <sodipodi:namedview
     id="namedview7"
     pagecolor="#505050"
     bordercolor="#eeeeee"
     borderopacity="1"
     inkscape:pageshadow="0"
     inkscape:pageopacity="0"
     inkscape:pagecheckerboard="0"
     inkscape:document-units="mm"
     showgrid="false"
     inkscape:zoom="0.91591557"
     inkscape:cx="732.60027"
     inkscape:cy="405.60507"
     inkscape:window-width="1920"
     inkscape:window-height="1020"
     inkscape:window-x="0"
     inkscape:window-y="0"
     inkscape:window-maximized="1"
     inkscape:current-layer="layer1" />
  <defs
     id="defs2" />
  <g
     inkscape:label="Layer 1"
     inkscape:groupmode="layer"
     id="layer1">
    <path
       style="fill:#ff2b53;fill-opacity:1;stroke:#ff2b53;stroke-width:0.212287;stroke-opacity:1"
       d="m 102.10033,205.71237 c -0.90735,-1.54704 -2.890577,-4.72338 -4.407182,-7.05855 C 80.7726,172.60065 70.183927,155.04104 59.609606,135.49835 c -3.151864,-5.82504 -7.912856,-15.17398 -7.901811,-15.51646 0.0049,-0.16442 4.558462,-3.59471 10.118147,-7.62286 5.55967,-4.02815 12.378941,-8.9734 15.153925,-10.98943 l 5.045433,-3.665529 1.983426,1.436512 c 2.446992,1.772237 6.768586,4.014117 9.69095,5.027287 7.491714,2.59735 16.548704,2.59786 24.051194,0.001 6.76522,-2.34135 12.5302,-6.423034 17.06691,-12.083611 1.88647,-2.353776 2.7103,-3.641134 4.0756,-6.36862 3.1054,-6.203699 4.24204,-11.954917 3.83896,-19.424294 -0.16521,-3.061478 -0.70897,-5.884798 -1.70414,-8.848068 l -0.70011,-2.08466 12.20653,-8.881594 12.20651,-8.881597 1.19195,2.518769 c 5.61884,11.873449 7.97854,25.940724 6.15376,36.68545 -2.7608,16.256366 -13.42164,40.699015 -31.71229,72.708395 -7.21496,12.62646 -16.73659,28.205 -25.69057,42.03288 -1.39868,2.16002 -3.56246,5.50355 -4.80842,7.43005 -1.24594,1.92651 -3.07157,4.86077 -4.05698,6.52061 -0.98538,1.65984 -1.8539,3.02113 -1.93005,3.0251 -0.0761,0.004 -0.88084,-1.25854 -1.7882,-2.80558 z"
       id="path3930" />
    <path
       style="fill:#ff8400;fill-opacity:1;stroke:#ff8400;stroke-width:0.212287;stroke-opacity:1"
       d="M 44.618952,104.76976 C 39.702389,93.11475 36.671178,83.457942 35.439891,75.527189 35.009041,72.75207 34.959783,66.497574 35.342113,63.108387 36.626545,51.721871 40.320972,41.347683 46.344602,32.212738 55.96584,17.621952 70.482918,7.2965412 87.377252,3.0278568 97.164299,0.55497631 109.63383,0.4730887 119.52735,2.8167308 c 13.34074,3.1602526 25.4682,10.2477792 34.84104,20.3618292 1.45063,1.565343 2.61064,2.923323 2.57781,3.017755 -0.0634,0.182678 -23.66001,17.381636 -23.84713,17.381636 -0.0608,0 -1.08604,-0.876175 -2.27856,-1.947069 -5.20127,-4.670841 -11.33112,-7.74286 -18.21711,-9.129681 -2.06573,-0.41603 -3.07278,-0.487389 -6.8781,-0.487389 -3.80532,0 -4.81236,0.07133 -6.878094,0.487389 -9.90669,1.995171 -18.385466,7.585308 -23.907403,15.762373 -4.593897,6.802791 -6.814905,15.088716 -6.244571,23.296678 0.318054,4.577244 1.716611,9.890429 3.577745,13.592063 0.476419,0.947546 0.866226,1.800796 0.866226,1.896103 0,0.09532 -2.165489,1.745302 -4.812193,3.666667 -2.646692,1.921364 -8.784457,6.382258 -13.639452,9.913105 -4.855006,3.53086 -8.889971,6.42062 -8.966594,6.42169 -0.07662,0.001 -0.57251,-1.02497 -1.101987,-2.28012 z"
       id="path15320" />
  </g>
</svg>
