<?xml version="1.0" encoding="UTF-8" standalone="no"?>
<!-- Created with Inkscape (http://www.inkscape.org/) -->

<svg
   width="266.03311mm"
   height="269.35507mm"
   viewBox="0 0 266.03311 269.35507"
   version="1.1"
   id="svg5"
   inkscape:version="1.1.1 (3bf5ae0d25, 2021-09-20, custom)"
   sodipodi:docname="passkey.svg"
   xmlns:inkscape="http://www.inkscape.org/namespaces/inkscape"
   xmlns:sodipodi="http://sodipodi.sourceforge.net/DTD/sodipodi-0.dtd"
   xmlns="http://www.w3.org/2000/svg"
   xmlns:svg="http://www.w3.org/2000/svg">
  <sodipodi:namedview
     id="namedview7"
     pagecolor="#505050"
     bordercolor="#eeeeee"
     borderopacity="1"
     inkscape:pageshadow="0"
     inkscape:pageopacity="0"
     inkscape:pagecheckerboard="0"
     inkscape:document-units="mm"
     showgrid="false"
     fit-margin-top="0"
     fit-margin-left="0"
     fit-margin-right="0"
     fit-margin-bottom="0"
     inkscape:zoom="0.64765011"
     inkscape:cx="547.36345"
     inkscape:cy="518.02662"
     inkscape:window-width="1533"
     inkscape:window-height="932"
     inkscape:window-x="314"
     inkscape:window-y="0"
     inkscape:window-maximized="0"
     inkscape:current-layer="layer1" />
  <defs
     id="defs2" />
  <g
     inkscape:label="Layer 1"
     inkscape:groupmode="layer"
     id="layer1"
     transform="translate(39.766585,-11.567872)">
    <g
       inkscape:label="Layer 1"
       id="layer1-3"
       transform="matrix(0.26458333,0,0,0.26458333,-42.685566,11.092638)">
      <path
         style="fill:#ff2b53;fill-opacity:1;stroke:#ff2b53;stroke-width:1.10629;stroke-opacity:1"
         d="m 872.31287,1018.178 c -6.63022,-1.6293 -13.31233,-7.223 -16.87673,-14.1278 -1.87996,-3.6418 -2.10684,-6.44811 -2.01226,-24.89159 0.0586,-11.43289 0.46515,-29.25022 0.90341,-39.59406 0.43826,-10.34385 0.42235,-19.24789 -0.0354,-19.78676 -0.48215,-0.56765 -16.63495,-0.39789 -38.40261,0.40361 -43.42885,1.59906 -45.30037,1.35387 -53.28597,-6.98094 -8.3035,-8.6666 -8.35086,-9.03866 -6.74159,-52.9616 0.77895,-21.26028 1.24495,-38.82474 1.03555,-39.03211 -0.20938,-0.20736 -17.28822,0.27096 -37.95295,1.06294 -38.80429,1.4872 -40.75161,1.37987 -49.45919,-2.72578 -1.6242,-0.76582 -4.54829,-3.61366 -6.49798,-6.32854 -6.4315,-8.95571 -6.56044,-10.29806 -4.98609,-51.90703 0.77977,-20.60908 1.25524,-37.65895 1.05659,-37.88857 -0.19865,-0.22965 -17.72324,0.2176 -38.94355,0.99384 l -38.58237,1.41135 -6.15574,-2.81819 c -4.90851,-2.24721 -10.35259,-7.02464 -26.87006,-23.5798 l -20.71435,-20.76159 9.26462,-8.9522 c 5.09552,-4.92371 21.92569,-21.14515 37.40033,-36.04762 15.47465,-14.90249 31.6095,-30.4558 35.85524,-34.5629 4.24573,-4.10712 8.01034,-7.46748 8.36576,-7.46748 0.35543,0 60.63781,59.95308 133.96085,133.22904 l 133.31459,133.22906 6.14601,0.73306 c 7.28848,0.86935 14.28723,-0.75757 18.10112,-4.20773 7.41442,-6.70735 9.47619,-18.70643 4.60321,-26.78973 C 913.33605,825.39502 853.108,764.4106 780.96314,692.3079 l -131.17243,-131.09581 4.68602,-4.70918 c 16.61515,-16.69729 35.10145,-34.56425 35.76238,-34.56425 1.19758,0 308.52474,307.7218 310.46989,310.86854 2.3109,3.73834 2.3689,4.17954 7.3608,55.86783 4.9145,50.88572 7.9126,86.2536 7.8888,93.05772 -0.048,13.49135 -12.3449,25.67155 -26.06877,25.82035 -2.46394,0.026 -22.62614,2.2379 -44.8049,4.9139 -22.17874,2.676 -45.30331,5.1959 -51.38793,5.5997 -6.08461,0.4039 -12.0586,0.9201 -13.27551,1.1473 -1.21693,0.2272 -4.86581,-0.239 -8.10863,-1.036 z"
         id="path112168" />
      <path
         style="fill:#ff8400;fill-opacity:1;stroke:#ff8400;stroke-width:3.12907;stroke-opacity:1"
         d="m 453.67505,601.80633 -17.1844,-17.1552 -28.16163,9.05476 C 318.55027,622.57226 226.94303,610.14071 149.46058,558.57617 9.2536885,465.26862 -29.42486,279.87778 62.334236,140.96938 137.51004,27.165383 276.81791,-23.21333 404.77599,17.130174 561.21236,66.452513 650.47246,230.09038 606.61838,387.16182 c -3.56821,12.78015 -8.00549,26.56794 -9.86061,30.63952 -3.05501,6.70503 -1.52962,9.2628 16.18183,27.13308 l 19.55481,19.73017 -19.69591,19.21362 -19.69593,19.21359 -13.36476,-13.11653 c -8.40553,-8.2494 -14.44927,-12.00866 -16.2874,-10.13093 -1.60748,1.64207 -7.90389,9.30946 -13.99209,17.03863 l -11.06941,14.05307 11.36394,11.63773 11.36398,11.63777 -43.06306,41.58423 c -23.68469,22.8713 -43.9926,41.94004 -45.12871,42.37498 -1.13611,0.4349 -9.79863,-6.92908 -19.25001,-16.36442 z M 248.39197,290.2559 c 34.42338,-12.87944 56.12554,-44.15281 56.36241,-81.21971 0.52217,-81.7128 -98.3111,-119.628869 -153.07034,-58.7234 -21.72967,24.16864 -27.95918,51.6455 -18.74411,82.67598 14.83026,49.93891 66.51613,75.5764 115.45204,57.26713 z"
         id="path128066" />
    </g>
  </g>
</svg>
