<?xml version="1.0" encoding="UTF-8" standalone="no"?>
<!-- Created with Inkscape (http://www.inkscape.org/) -->

<svg
   width="268.47479mm"
   height="268.27621mm"
   viewBox="0 0 268.47479 268.27621"
   version="1.1"
   id="svg5"
   inkscape:version="1.1.1 (3bf5ae0d25, 2021-09-20, custom)"
   sodipodi:docname="passkey.svg"
   xmlns:inkscape="http://www.inkscape.org/namespaces/inkscape"
   xmlns:sodipodi="http://sodipodi.sourceforge.net/DTD/sodipodi-0.dtd"
   xmlns="http://www.w3.org/2000/svg"
   xmlns:svg="http://www.w3.org/2000/svg">
  <sodipodi:namedview
     id="namedview7"
     pagecolor="#505050"
     bordercolor="#eeeeee"
     borderopacity="1"
     inkscape:pageshadow="0"
     inkscape:pageopacity="0"
     inkscape:pagecheckerboard="0"
     inkscape:document-units="mm"
     showgrid="false"
     fit-margin-top="0"
     fit-margin-left="0"
     fit-margin-right="0"
     fit-margin-bottom="0"
     inkscape:zoom="0.64765011"
     inkscape:cx="558.17176"
     inkscape:cy="514.93854"
     inkscape:window-width="1533"
     inkscape:window-height="932"
     inkscape:window-x="707"
     inkscape:window-y="0"
     inkscape:window-maximized="0"
     inkscape:current-layer="layer1-6" />
  <defs
     id="defs2" />
  <g
     inkscape:label="Layer 1"
     inkscape:groupmode="layer"
     id="layer1"
     transform="translate(42.608162,-12.426576)">
    <g
       inkscape:label="Layer 1"
       id="layer1-6"
       transform="matrix(0.26458333,0,0,0.26458333,-106.21966,-13.087963)">
      <path
         style="fill:#ff8400;fill-opacity:1;stroke:#ff8400;stroke-width:1.54404;stroke-opacity:1"
         d="M 553.74743,873.04805 C 534.00805,868.73751 502.87737,859.5362 487.79412,853.5542 457.26399,841.446 419.79595,819.86345 389.30679,796.823 367.65996,780.46465 327.30144,737.62191 311.55171,714.28183 285.31939,675.40721 272.02017,648.25208 258.17719,605.29861 245.06807,564.6223 240.88984,536.04174 241.2103,489.23933 c 0.35961,-52.52142 4.96699,-82.29666 19.26816,-124.52074 9.31114,-27.49106 29.66367,-69.60108 43.892,-90.81391 30.12377,-44.91117 69.84593,-84.58811 114.27315,-114.14307 24.41362,-16.24102 62.50738,-34.53785 92.64262,-44.49721 24.86347,-8.2171 59.19301,-15.865295 78.34709,-17.454751 10.17566,-0.844403 83.16157,-0.788966 91.4977,0.0695 47.39946,4.881241 123.43208,31.865661 159.27912,56.529071 3.56948,2.45586 6.91422,4.4652 7.43275,4.4652 0.51855,0 9.31024,6.31852 19.53709,14.04115 32.55568,24.5839 61.33128,54.40123 83.48781,86.51022 16.26962,23.57778 38.2481,63.44143 38.28484,69.4395 0.0185,3.0315 -59.65523,85.37609 -62.31491,85.98907 -1.19839,0.2762 -4.16972,-6.3521 -7.95987,-17.7565 -14.62082,-43.99351 -41.34623,-85.05458 -78.27226,-120.25804 -19.7116,-18.79204 -29.76433,-26.37753 -57.56769,-43.43881 -9.44431,-5.79542 -42.67625,-20.43892 -56.35759,-24.8337 -32.00223,-10.27992 -47.99328,-12.51473 -89.54817,-12.51473 -37.13142,0 -44.2742,0.8055 -74.03202,8.34872 -46.65821,11.82724 -91.04407,36.60633 -129.02768,72.03165 -53.31981,49.7286 -89.3305,123.21471 -92.58415,188.93413 -0.46248,9.34147 -1.219,21.50081 -1.68115,27.02077 -1.72108,20.55639 4.75786,64.14997 13.36432,89.92188 17.53621,52.51192 50.39492,101.27347 90.17685,133.8203 46.73039,38.23158 112.5317,64.41374 169.07277,67.27359 40.93546,2.07052 45.03847,2.5328 44.10354,4.96921 -0.76115,1.98353 -27.77986,39.30809 -55.94731,77.28755 l -8.30226,11.19432 -11.15758,-0.13264 c -6.13668,-0.073 -18.45319,-1.7258 -27.37004,-3.67301 z"
         id="path21923" />
      <path
         style="fill:#ff2b53;fill-opacity:1;stroke:#ff2b53;stroke-width:0.772022;stroke-opacity:1"
         d="m 1138.3183,1095.1721 c -15.7079,-15.3229 -58.9918,-58.2574 -177.32938,-175.89775 -67.17612,-66.78036 -87.58388,-86.87431 -100.63237,-99.08497 -7.76879,-7.26998 -7.75748,-7.26975 -18.58969,-0.38284 -17.57517,11.17395 -24.52417,15.13228 -39.81443,22.67936 -26.60687,13.13284 -46.49794,20.29404 -81.44829,29.32313 -15.09993,3.90092 -20.07257,4.40059 -20.07257,2.017 0,-2.03176 5.6423,-10.19795 27.23519,-39.4179 3.91588,-5.29905 10.61582,-14.50541 14.88875,-20.45857 48.56896,-67.66754 53.29505,-73.53645 66.73113,-82.86741 32.05127,-22.25868 53.5035,-44.16839 76.8616,-78.50078 12.78219,-18.78762 25.6092,-45.80121 34.43056,-72.51052 2.93418,-8.88411 6.45231,-18.26364 7.81807,-20.8434 1.36576,-2.57976 8.1941,-12.50773 15.1741,-22.06214 6.97999,-9.55443 17.37231,-23.97248 23.09405,-32.0401 5.72173,-8.06763 11.34189,-15.88435 12.48923,-17.3705 2.66247,-3.44867 17.34749,-23.34558 27.91995,-37.82906 9.3309,-12.78274 11.1818,-14.77565 12.197,-13.13306 2.3828,3.85543 3.999,26.39811 3.986,55.59426 -0.011,25.36556 -0.6203,32.82279 -4.7907,58.67365 -4.0989,25.40698 -14.2252,61.96296 -23.84514,86.08043 -3.92337,9.83604 -17.80106,37.34016 -26.6833,52.88349 -4.48892,7.85533 -8.36749,15.09085 -8.61906,16.07894 -0.25155,0.98809 7.7e-4,2.65257 0.56072,3.69886 1.87884,3.51064 47.60258,50.14389 152.81758,155.85716 99.5688,100.04036 142.046,143.35132 142.046,144.83452 0,1.3163 -22.6025,24.6645 -52.9848,54.7331 -31.3188,30.9953 -45.9095,44.7772 -47.405,44.7772 -0.4567,0 -7.6725,-6.6745 -16.0352,-14.8321 z"
         id="path41516" />
    </g>
  </g>
</svg>
