<?xml version="1.0" encoding="UTF-8" standalone="no"?>
<!-- Created with Inkscape (http://www.inkscape.org/) -->

<svg
   width="245.70268mm"
   height="268.71527mm"
   viewBox="0 0 245.70268 268.71527"
   version="1.1"
   id="svg5"
   inkscape:version="1.1.1 (3bf5ae0d25, 2021-09-20, custom)"
   sodipodi:docname="passkey.svg"
   xmlns:inkscape="http://www.inkscape.org/namespaces/inkscape"
   xmlns:sodipodi="http://sodipodi.sourceforge.net/DTD/sodipodi-0.dtd"
   xmlns="http://www.w3.org/2000/svg"
   xmlns:svg="http://www.w3.org/2000/svg">
  <sodipodi:namedview
     id="namedview7"
     pagecolor="#505050"
     bordercolor="#eeeeee"
     borderopacity="1"
     inkscape:pageshadow="0"
     inkscape:pageopacity="0"
     inkscape:pagecheckerboard="0"
     inkscape:document-units="mm"
     showgrid="false"
     fit-margin-top="0"
     fit-margin-left="0"
     fit-margin-right="0"
     fit-margin-bottom="0"
     inkscape:zoom="0.64765011"
     inkscape:cx="511.85045"
     inkscape:cy="522.65875"
     inkscape:window-width="1533"
     inkscape:window-height="932"
     inkscape:window-x="707"
     inkscape:window-y="0"
     inkscape:window-maximized="0"
     inkscape:current-layer="layer1-7" />
  <defs
     id="defs2" />
  <g
     inkscape:label="Layer 1"
     inkscape:groupmode="layer"
     id="layer1"
     transform="translate(30.461694,-10.480024)">
    <g
       inkscape:label="Layer 1"
       id="layer1-6"
       transform="matrix(0.26458333,0,0,0.26458333,-106.21966,-13.087963)">
      <g
         inkscape:label="Layer 1"
         id="layer1-7"
         transform="translate(-192.63159,81.004902)">
        <path
           style="fill:#ff8400;fill-opacity:1;stroke:#ff8400;stroke-width:1.0375;stroke-opacity:1"
           d="m 484.49374,874.48368 c -5.13004,-2.83989 -5.39914,-5.11217 -4.7683,-40.26302 1.11676,-62.22592 7.25026,-110.77111 20.92474,-165.61554 7.02114,-28.15978 15.59283,-52.01381 26.56384,-73.92446 5.99741,-11.97761 20.48561,-36.33132 26.44052,-44.44478 6.66769,-9.08457 34.58522,-36.81414 43.19323,-42.90239 10.67866,-7.55281 37.10265,-19.81775 51.86359,-24.07296 26.55585,-7.65553 60.27338,-11.22487 116.90342,-12.37543 14.70397,-0.2991 22.63684,-0.85608 23.60324,-1.65809 0.8006,-0.66446 1.45563,-2.46623 1.45563,-4.00409 0,-2.26394 -1.70215,-4.16493 -8.94384,-9.98862 -8.6527,-6.95846 -22.01175,-20.72455 -35.61712,-36.70228 -21.79512,-25.59557 -41.99712,-67.56842 -49.85888,-103.58952 -5.21542,-23.89634 -6.76354,-60.5864 -3.58576,-84.98294 6.19601,-47.5685 26.62641,-94.33344 56.20756,-128.65852 26.90594,-31.220877 52.22663,-50.883377 87.96698,-68.309725 20.7344,-10.109725 34.57956,-15.007251 52.39394,-18.533658 39.39196,-7.7976909 71.90564,-7.8245876 110.03831,-0.09112 43.55586,8.833413 91.00646,35.217313 123.47236,68.65423 26.7457,27.545623 41.3227,49.005673 55.0303,81.014323 24.2263,56.5715 27.0197,116.88173 8.0501,173.8007 -7.1238,21.3749 -18.5359,45.06919 -29.943,62.16876 -10.8505,16.26522 -33.0963,41.53362 -47.994,54.51528 -3.2396,2.82299 -4.9228,5.11486 -4.9123,6.68932 0.036,5.42366 0.1812,5.45684 27.1806,6.21616 13.8586,0.39012 28.9325,1.191 33.4976,1.78058 4.5649,0.58959 14.3694,1.82584 21.7875,2.74707 15.2978,1.89997 27.3713,4.34651 29.3625,5.95002 0.7424,0.59783 1.2093,2.52743 1.0375,4.28784 -0.2695,2.76044 -2.0435,4.48592 -12.8917,12.53849 -36.1004,26.79707 -52.2621,38.26459 -74.753,53.04114 -13.595,8.93197 -31.0792,20.83894 -38.8538,26.46004 -7.7745,5.62113 -18.2792,12.80309 -23.3438,15.96003 -5.0646,3.15689 -16.4448,10.67291 -25.2895,16.7022 -14.7182,10.03311 -47.66307,31.62877 -87.86834,57.5985 -8.66891,5.59956 -20.10734,12.58888 -25.41884,15.53205 -5.31142,2.94308 -16.19337,9.64123 -24.18217,14.88486 -7.9888,5.24361 -17.79317,11.42787 -21.7876,13.74285 -3.9944,2.31493 -11.23096,6.55035 -16.0813,9.41195 -4.85034,2.86156 -12.08692,6.83906 -16.08132,8.83862 -3.99439,1.99958 -13.56537,7.25284 -21.26885,11.67379 -34.22275,19.64017 -45.44317,25.55337 -64.37791,33.9274 -11.09825,4.90838 -24.84742,10.62804 -30.55373,12.7106 -23.11867,8.43704 -32.80615,12.3583 -46.16893,18.68809 -16.90083,8.0057 -35.4291,16.09696 -57.0435,24.91065 -8.85531,3.61095 -20.069,8.28233 -24.91934,10.38081 -11.10738,4.80573 -30.91038,12.22764 -38.38765,14.38724 -12.837,3.70753 -76.36991,21.70286 -77.81282,22.04008 -0.85593,0.20043 -2.77574,-0.31121 -4.26616,-1.13662 z"
           id="path55220" />
        <path
           style="fill:#ff2b53;fill-opacity:1;stroke:#ff2b53;stroke-width:1.0918;stroke-opacity:1"
           d="m 742.6277,1023.0132 c -0.24338,-0.2194 -25.99071,-0.7581 -57.21629,-1.1969 -64.57698,-0.9076 -63.36839,-0.8485 -75.97786,-3.7168 -14.80939,-3.3688 -25.55104,-7.2746 -41.04457,-14.9243 -30.22008,-14.92079 -50.70651,-33.45551 -65.09547,-58.89401 -6.50001,-11.49148 -6.87036,-12.95493 -3.96372,-15.66288 2.02907,-1.89037 30.32345,-11.92188 36.50451,-12.94235 3.86524,-0.63814 59.36989,-17.78735 69.85928,-21.58435 13.72408,-4.96791 54.62038,-22.02263 84.82729,-35.37496 28.57557,-12.63123 38.10169,-16.59355 55.48564,-23.07878 22.3452,-8.33607 57.32588,-24.37656 79.76144,-36.57481 29.22827,-15.89147 76.56426,-42.8177 91.10584,-51.82392 8.40689,-5.20674 23.88321,-14.76778 34.39182,-21.24675 10.50861,-6.47898 24.75272,-15.28705 31.65359,-19.57349 14.98278,-9.30649 119.2905,-78.57885 165.417,-109.85598 42.8331,-29.04401 67.4655,-46.73821 98.8082,-70.9772 14.1116,-10.9132 27.2542,-20.63 29.2058,-21.59287 3.2842,-1.62039 3.8445,-1.60946 7.5273,0.14679 6.5005,3.09984 16.4462,11.2774 31.296,25.73207 11.1674,10.87016 15.9016,16.48571 23.4987,27.87281 10.781,16.15955 25.6162,44.69704 33.8785,65.17019 4.6951,11.63381 15.3873,46.18054 17.1811,55.51229 0.2885,1.50123 0.7717,3.55005 1.0736,4.55294 0.8656,2.87557 1.545,6.51667 2.1995,11.78831 0.333,2.68253 0.8198,5.22404 1.0817,5.64782 0.2619,0.42377 0.7532,3.12598 1.0918,6.00492 0.3386,2.87893 0.8225,5.56929 1.0755,5.97857 0.2529,0.40928 0.7211,2.88195 1.0404,5.49482 0.3193,2.61287 0.8499,5.62445 1.1791,6.69241 0.3292,1.06794 0.7974,3.27885 1.0403,4.91311 0.4504,3.02962 1.3878,8.86839 2.0547,12.79761 0.2038,1.20099 0.6852,4.88582 1.0697,8.18853 0.3845,3.30271 1.1788,9.68976 1.7651,14.19345 2.2439,17.23495 2.6092,27.0218 2.6492,70.96724 0.037,40.61773 -0.2928,49.77495 -2.0641,57.31969 -5.8813,25.05096 -15.5626,48.13244 -26.2947,62.68981 -7.4415,10.09376 -28.6317,30.67041 -38.1213,37.01747 -13.628,9.115 -42.6097,22.2887 -52.4853,23.8573 -1.8014,0.2862 -5.2406,0.9889 -7.6426,1.5617 -5.6349,1.3438 -10.7974,2.1375 -16.9229,2.6018 -2.7022,0.2048 -97.7711,0.6521 -211.264,0.9939 -113.49305,0.3419 -229.48913,0.8696 -257.76913,1.1727 -28.28,0.3031 -51.6173,0.3716 -51.86067,0.1521 z"
           id="path15609" />
      </g>
    </g>
  </g>
</svg>
