<?xml version="1.0" encoding="UTF-8" standalone="no"?>
<!-- Created with Inkscape (http://www.inkscape.org/) -->

<svg
   width="240.50551mm"
   height="240.44135mm"
   viewBox="0 0 240.50551 240.44135"
   version="1.1"
   id="svg5"
   sodipodi:docname="google.svg"
   inkscape:version="1.1.1 (3bf5ae0d25, 2021-09-20, custom)"
   xmlns:inkscape="http://www.inkscape.org/namespaces/inkscape"
   xmlns:sodipodi="http://sodipodi.sourceforge.net/DTD/sodipodi-0.dtd"
   xmlns="http://www.w3.org/2000/svg"
   xmlns:svg="http://www.w3.org/2000/svg">
  <sodipodi:namedview
     id="namedview7"
     pagecolor="#505050"
     bordercolor="#eeeeee"
     borderopacity="1"
     inkscape:pageshadow="0"
     inkscape:pageopacity="0"
     inkscape:pagecheckerboard="0"
     inkscape:document-units="mm"
     showgrid="false"
     fit-margin-top="0"
     fit-margin-left="0"
     fit-margin-right="0"
     fit-margin-bottom="0"
     inkscape:zoom="0.45795779"
     inkscape:cx="908.38066"
     inkscape:cy="457.46574"
     inkscape:window-width="1920"
     inkscape:window-height="1020"
     inkscape:window-x="0"
     inkscape:window-y="0"
     inkscape:window-maximized="1"
     inkscape:current-layer="layer1" />
  <defs
     id="defs2" />
  <g
     inkscape:label="Layer 1"
     inkscape:groupmode="layer"
     id="layer1"
     transform="translate(8.7096357,-31.859083)">
    <path
       style="fill:#f8203f;fill-opacity:1;stroke:#f92041;stroke-width:0.408527;stroke-opacity:1"
       d="m 100.17165,271.56301 c -5.703643,-0.59387 -9.093255,-1.1156 -13.072909,-2.01218 -1.57283,-0.35434 -3.59505,-0.80689 -4.49381,-1.00567 -15.89086,-3.51447 -34.19227,-12.8478 -48.33036,-24.64746 -4.97371,-4.15106 -14.37871,-13.61119 -14.37871,-14.46299 0,-0.1864 7.65648,-7.99703 17.0144,-17.35694 l 17.0144,-17.01802 1.64899,2.10494 c 9.69567,12.37657 25.37268,21.94798 41.329769,25.23339 3.61835,0.74499 11.34612,1.5704 14.70702,1.57086 3.02089,5.3e-4 11.7219,-0.88345 14.09422,-1.43174 0.56173,-0.12982 1.84859,-0.42836 2.8597,-0.66341 1.01111,-0.23506 3.76867,-1.06951 6.12792,-1.85434 15.42221,-5.13039 28.34523,-15.3087 37.75443,-29.73581 1.65207,-2.53311 6.36662,-12.03329 6.36662,-12.82922 0,-0.32327 -9.00999,-0.44958 -32.06947,-0.44958 H 114.6744 V 153.51447 130.0241 h 57.3545 c 52.43477,0 57.37623,0.0566 57.60784,0.66019 0.13934,0.3631 0.6186,3.25352 1.06503,6.42315 1.44598,10.2664 1.105,24.48681 -0.85381,35.60786 -3.54264,20.11309 -12.35248,39.37667 -25.22243,55.1513 -7.50863,9.2033 -19.5716,19.99457 -28.26337,25.2838 -1.01111,0.61529 -2.69628,1.64405 -3.74484,2.28613 -6.43317,3.93937 -19.25263,9.6201 -25.87346,11.46539 -0.67407,0.18787 -1.96093,0.54761 -2.8597,0.79942 -1.63945,0.45933 -2.46447,0.65592 -7.76203,1.84959 -10.60721,2.39007 -24.72919,3.18045 -35.95048,2.01208 z"
       id="path7377" />
    <path
       style="fill:#ff7b08;fill-opacity:1;stroke:#ff7b08;stroke-width:0.288872;stroke-opacity:1"
       d="M 9.8905203,215.93122 C -0.20548969,200.17128 -6.7343693,180.51525 -8.3471793,161.02427 c -0.4345,-5.25097 -0.18052,-18.285 0.44569,-22.87273 2.2431696,-16.4337 7.12045961,-31.41853 14.5265396,-44.630881 1.68071,-2.998376 6.4216597,-10.405338 8.3427707,-13.034215 2.06268,-2.822622 8.66253,-10.414573 11.65521,-13.407259 2.98036,-2.980356 10.57085,-9.581043 13.40726,-11.658938 2.52534,-1.850014 9.90378,-6.566265 13.03421,-8.331385 10.95118,-6.174899 25.42414,-11.307162 37.986812,-13.470512 7.975811,-1.373473 11.052947,-1.615747 20.509987,-1.614828 9.74663,0.0011 13.51636,0.30916 21.37661,1.747755 12.54448,2.295906 26.981,7.49691 37.40906,13.477261 5.52961,3.171153 14.05395,8.957334 16.71095,11.343105 l 0.82293,0.738929 -1.37671,1.217025 c -0.75719,0.669367 -3.87159,3.231914 -6.92088,5.694558 -3.04929,2.462643 -7.91838,6.427425 -10.8202,8.810628 -2.90181,2.383203 -8.47337,6.949408 -12.38124,10.147123 l -7.10522,5.814026 -1.77454,-1.120729 c -6.4253,-4.057944 -16.85438,-7.696069 -26.11907,-9.111489 -4.66124,-0.712122 -15.04405,-0.71551 -19.64337,-0.0064 -12.240149,1.887133 -23.711959,6.639733 -33.509279,13.88239 -5.56092,4.110907 -14.96194,14.279656 -17.17762,18.580426 -0.31208,0.60576 -0.99437,1.78611 -1.5162,2.62299 -4.47932,7.18364 -8.0191,17.4682 -9.36912,27.22127 -0.56761,4.10064 -0.49013,14.65472 0.13784,18.77675 1.16947,7.67646 3.55541,15.44735 6.58655,21.45199 l 0.88235,1.74791 -17.57684,17.57683 -17.576831,17.57683 z"
       id="path26177" />
  </g>
</svg>
