<?xml version="1.0" encoding="UTF-8" standalone="no"?>
<!-- Created with Inkscape (http://www.inkscape.org/) -->

<svg
   width="289.00726mm"
   height="288.45587mm"
   viewBox="0 0 289.00727 288.45587"
   version="1.1"
   id="svg5"
   sodipodi:docname="instagram.svg"
   inkscape:version="1.1.1 (3bf5ae0d25, 2021-09-20, custom)"
   xmlns:inkscape="http://www.inkscape.org/namespaces/inkscape"
   xmlns:sodipodi="http://sodipodi.sourceforge.net/DTD/sodipodi-0.dtd"
   xmlns="http://www.w3.org/2000/svg"
   xmlns:svg="http://www.w3.org/2000/svg">
  <sodipodi:namedview
     id="namedview7"
     pagecolor="#505050"
     bordercolor="#eeeeee"
     borderopacity="1"
     inkscape:pageshadow="0"
     inkscape:pageopacity="0"
     inkscape:pagecheckerboard="0"
     inkscape:document-units="mm"
     showgrid="false"
     fit-margin-top="0"
     fit-margin-left="0"
     fit-margin-right="0"
     fit-margin-bottom="0"
     inkscape:zoom="0.32382506"
     inkscape:cx="1019.0688"
     inkscape:cy="159.03649"
     inkscape:window-width="1920"
     inkscape:window-height="1020"
     inkscape:window-x="0"
     inkscape:window-y="0"
     inkscape:window-maximized="1"
     inkscape:current-layer="layer1" />
  <defs
     id="defs2" />
  <g
     inkscape:label="Layer 1"
     inkscape:groupmode="layer"
     id="layer1"
     transform="translate(98.821578,-7.8312215)">
    <path
       style="fill:#f92042;fill-opacity:1;stroke:#f92042;stroke-width:0.288872;stroke-opacity:1"
       d="m -13.682614,224.73317 c -1.76972,-0.47868 -4.40951,-1.76067 -4.40951,-2.14144 0,-0.14535 7.21546,-7.49576 16.0343699,-16.33423 l 16.0343701,-16.06995 1.22579,0.99569 c 1.94152,1.57706 5.90795,4.06584 8.73649,5.48181 11.53178,5.7728 25.74321,6.60055 38.13125,2.221 7.76484,-2.74512 15.99776,-8.38903 20.97812,-14.38115 7.83426,-9.42579 11.58788,-18.88103 12.00751,-30.24652 0.26974,-7.3058 -0.72114,-13.87711 -2.9511,-19.57114 -0.18683,-0.47706 0.56059,-0.50553 13.271694,-0.50553 h 13.46968 l -0.0784,38.20346 -0.0784,38.20346 -0.75767,1.94745 c -2.07158,5.32469 -6.43,9.77522 -11.51944,11.76288 l -1.87767,0.73333 -58.352364,0.055 c -49.5519701,0.0467 -58.58045,-0.007 -59.86474,-0.35409 z"
       id="path42604" />
    <path
       style="fill:#f92042;fill-opacity:1;stroke:#f92042;stroke-width:0.288872;stroke-opacity:1"
       d="m -34.341694,295.80325 c -5.89445,-0.71784 -12.44713,-2.34172 -17.66255,-4.37714 -5.13568,-2.00429 -11.20558,-5.16956 -14.61856,-7.62312 -3.18911,-2.29264 -7.22183,-5.4374 -7.22183,-5.63168 0,-0.11724 38.09816,-38.24031 41.06775,-41.09462 l 2.1956,-2.11037 2.11261,1.36664 c 3.57821,2.31473 8.11957,4.00284 13.08646,4.86447 2.25328,0.3909 9.6732199,0.44506 60.97353,0.44506 64.694734,0 60.753354,0.11122 66.788994,-1.88474 3.7959,-1.25528 6.35522,-2.5589 9.20719,-4.68978 7.60064,-5.6789 12.31172,-14.06562 13.4041,-23.86216 0.42792,-3.83766 0.42792,-114.390283 0,-118.227948 -0.66906,-6.000205 -2.62006,-11.272192 -6.14868,-16.614984 l -0.50616,-0.766402 21.55207,-21.556104 c 11.85365,-11.855858 21.67059,-21.482857 21.81545,-21.393332 0.85331,0.527368 6.8162,8.569078 8.61084,11.612802 3.00794,5.101524 6.93766,15.611121 8.23986,22.036696 1.54798,7.638296 1.48593,4.049104 1.48593,85.939742 0,80.82055 0.042,78.12222 -1.32831,85.27474 -1.46273,7.63457 -5.02743,17.04821 -8.89355,23.48596 -1.63507,2.72267 -5.58908,7.97442 -8.69963,11.55492 -3.91255,4.50371 -11.95762,11.00876 -17.54957,14.19016 -5.35163,3.0447 -13.23879,6.11857 -19.57032,7.62717 -7.74119,1.84449 -1.01507,1.70837 -87.095224,1.76282 -62.86646,0.0398 -78.74724,-0.0246 -81.246,-0.3288 z"
       id="path42643" />
    <path
       style="fill:#f92042;fill-opacity:1;stroke:#f92042;stroke-width:0.288872;stroke-opacity:1"
       d="m 42.500116,183.26995 c -4.52258,-0.48743 -8.46295,-1.82321 -12.92819,-4.38265 -1.35048,-0.77409 -2.55665,-1.50778 -2.68037,-1.63042 -0.20779,-0.20599 7.33395,-7.80599 33.78815,-34.04921 l 10.16449,-10.08342 1.53106,2.76374 c 3.48823,6.29666 4.72501,11.09568 4.47377,17.35934 -0.2886,7.19499 -2.6796,13.45093 -7.30203,19.10546 -6.16958,7.54712 -17.15893,11.98285 -27.04688,10.91716 z"
       id="path42682" />
    <path
       style="fill:#f92042;fill-opacity:1;stroke:#f92042;stroke-width:0.288872;stroke-opacity:1"
       d="m 93.290556,110.72271 c 3.81706,-3.95448 18.759124,-18.90013 19.875934,-19.880702 l 1.04524,-0.917729 v 11.584851 11.58484 H 102.60672 91.001696 Z"
       id="path42721" />
    <path
       style="fill:#ff7a0a;fill-opacity:1;stroke:#ff7a0a;stroke-width:0.288872;stroke-opacity:1"
       d="m -81.448294,270.45757 c -4.05674,-4.75773 -6.3299,-8.21924 -9.15312,-13.93812 -5.02503,-10.17902 -7.1832,-18.12167 -7.80458,-28.72296 -0.35671,-6.08588 -0.35347,-144.959639 0.004,-151.100522 1.22874,-21.135859 10.88788,-39.805046 27.44657,-53.048698 8.63412,-6.905585 19.35842,-11.935476 30.41239,-14.2639714 7.14658,-1.5054111 4.4172,-1.4628894 87.88112,-1.3691192 85.372404,0.095914 78.605954,-0.04726 86.508044,1.8304633 10.2802,2.4428183 20.88485,7.6673183 29.10212,14.3374863 1.14568,0.929978 2.16242,1.819274 2.25941,1.976212 0.15225,0.246336 -39.26273,39.973632 -42.05084,42.384052 l -1.0215,0.883124 -1.57836,-1.008179 c -2.54242,-1.623978 -5.89729,-3.234947 -8.59713,-4.128233 -5.55419,-1.837698 -2.14591,-1.747917 -66.354984,-1.747917 -52.4432201,0 -58.67251,0.04756 -61.11796,0.466627 -9.14404,1.566971 -17.49524,6.727812 -22.27394,13.764771 -1.81467,2.672217 -4.18057,7.873634 -4.9683,10.922761 -0.39309,1.521574 -0.85381,4.251426 -1.02381,6.066335 -0.40666,4.341416 -0.42698,111.995398 -0.022,116.569928 0.57363,6.47957 2.50648,11.79624 6.47159,17.80134 l 0.52142,0.78967 -21.52151,21.52577 c -11.83683,11.83917 -21.5898,21.52577 -21.67326,21.52577 -0.0835,0 -0.73367,-0.68247 -1.4449,-1.51659 z"
       id="path54501" />
    <path
       style="fill:#ff7a0a;fill-opacity:1;stroke:#ff7a0a;stroke-width:0.288872;stroke-opacity:1"
       d="m -25.673904,214.84951 c -0.40735,-0.75468 -0.97968,-2.08711 -1.27184,-2.96095 -0.50324,-1.50517 -0.53547,-3.59218 -0.61238,-39.64783 l -0.0812,-38.05902 h 13.55064 13.55063993 l -0.66621003,1.66102 c -1.4394,3.58875 -2.4403,10.32883 -2.44253,16.44806 -0.004,11.77858 3.08351003,20.83772 10.44077,30.6317 l 0.91734,1.22116 -16.04581,16.039 c -8.8251999,8.82145 -16.1702299,16.039 -16.3222999,16.039 -0.15207,0 -0.60978,-0.61746 -1.01713,-1.37214 z"
       id="path54540" />
    <path
       style="fill:#ff7a0a;fill-opacity:1;stroke:#ff7a0a;stroke-width:0.288872;stroke-opacity:1"
       d="m 19.253166,168.74882 c -1.92662,-3.09561 -2.31033,-3.88774 -3.30553,-6.82393 -2.2179,-6.54358 -2.19269,-13.00279 0.0773,-19.79791 0.96617,-2.89223 2.12694,-5.14357 4.45224,-8.63521 1.99429,-2.9946 3.89895,-4.84132 7.50599,-7.27762 3.53468,-2.38744 6.18376,-3.64037 9.88423,-4.67491 2.60514,-0.72833 3.22156,-0.78862 7.88146,-0.77083 5.39891,0.0206 7.27768,0.34678 11.25793,1.95447 1.957,0.79047 5.57218,2.80375 6.81711,3.79641 l 0.83011,0.66192 -21.9667,21.96268 -21.9667,21.96269 z"
       id="path54579" />
    <path
       style="fill:#ff7a0a;fill-opacity:1;stroke:#ff7a0a;stroke-width:0.288872;stroke-opacity:1"
       d="M 84.457806,95.078937 V 83.051174 h 11.98823 c 6.593534,0 11.985394,0.0975 11.981924,0.216657 -0.007,0.224883 -19.782174,19.994449 -22.453574,22.446699 l -1.51658,1.39217 z"
       id="path54618" />
  </g>
</svg>
