<?xml version="1.0" encoding="UTF-8" standalone="no"?>
<!-- Created with Inkscape (http://www.inkscape.org/) -->

<svg
   width="285.82059mm"
   height="285.35251mm"
   viewBox="0 0 285.82059 285.35251"
   version="1.1"
   id="svg5"
   sodipodi:docname="linkedin.svg"
   inkscape:version="1.1.1 (3bf5ae0d25, 2021-09-20, custom)"
   xmlns:inkscape="http://www.inkscape.org/namespaces/inkscape"
   xmlns:sodipodi="http://sodipodi.sourceforge.net/DTD/sodipodi-0.dtd"
   xmlns="http://www.w3.org/2000/svg"
   xmlns:svg="http://www.w3.org/2000/svg">
  <sodipodi:namedview
     id="namedview7"
     pagecolor="#505050"
     bordercolor="#eeeeee"
     borderopacity="1"
     inkscape:pageshadow="0"
     inkscape:pageopacity="0"
     inkscape:pagecheckerboard="0"
     inkscape:document-units="mm"
     showgrid="false"
     fit-margin-top="0"
     fit-margin-left="0"
     fit-margin-right="0"
     fit-margin-bottom="0"
     inkscape:zoom="0.32382506"
     inkscape:cx="864.6644"
     inkscape:cy="369.02641"
     inkscape:window-width="1920"
     inkscape:window-height="1020"
     inkscape:window-x="0"
     inkscape:window-y="0"
     inkscape:window-maximized="1"
     inkscape:current-layer="layer1"
     width="289.00726mm" />
  <defs
     id="defs2" />
  <g
     inkscape:label="Layer 1"
     inkscape:groupmode="layer"
     id="layer1"
     transform="translate(98.093389,-8.7729529)">
    <path
       style="fill:#f92041;fill-opacity:1;stroke:#f92041;stroke-width:0.577747;stroke-opacity:1"
       d="m -89.997304,293.64946 c -0.68178,-0.13755 -1.72172,-0.78282 -2.31099,-1.4339 -1.03268,-1.14105 -1.07688,-4.54737 -1.22337,-94.28478 -0.10726,-65.70555 0.0317,-93.54642 0.47236,-94.61481 0.34339,-0.83263 1.26897,-1.80757 2.05684,-2.16655 1.53757,-0.70057 59.36492,-0.97841 61.14897,-0.29381 2.72378,1.04521 2.62574,-2.563109 2.62574,96.64156 v 93.0136 l -1.39403,1.62102 -1.39402,1.62102 -29.37096,0.0733 c -16.15402,0.0403 -29.92876,-0.0392 -30.61054,-0.17669 z"
       id="path65911" />
    <path
       style="fill:#ff7b08;fill-opacity:1;stroke:#ff7b08;stroke-width:0.817057;stroke-opacity:1"
       d="m -71.852624,81.789449 c -14.74064,-5.023641 -24.55635,-17.572836 -25.73208,-32.897963 -1.46083,-19.041373 13.27645,-37.164326 32.06032,-39.4256897 25.57358,-3.078767 46.86256,19.3009747 41.73835,43.8768437 -2.95461,14.170363 -13.5579,25.590886 -27.01253,29.094448 -6.98231,1.818185 -14.49698,1.587029 -21.05406,-0.647639 z"
       id="path73669" />
    <path
       style="fill:#ff7b08;fill-opacity:1;stroke:#ff7b08;stroke-width:0.817057;stroke-opacity:1"
       d="m 1.5870855,292.19447 c -1.24169998,-1.37205 -1.35221998,-9.14739 -1.35221998,-95.12871 0,-84.03289 0.13166,-93.76619 1.28393998,-94.91847 1.11942,-1.11942 5.03296,-1.28395 30.5395705,-1.28395 26.20938,0 29.37239,0.14061 30.37699,1.35036 0.69001,0.83091 1.2327,3.98625 1.4108,8.20271 l 0.28942,6.85235 3.948495,-3.69335 c 8.057846,-7.53717 19.656623,-13.47211 31.423133,-16.078805 2.814616,-0.623536 9.773706,-1.079937 16.341126,-1.071708 37.13302,0.04653 58.9908,16.189803 67.4069,49.784083 3.66268,14.62018 4.03297,22.41409 4.06006,85.46101 0.0243,56.44309 -0.0468,59.37968 -1.4687,60.66643 -1.33308,1.20642 -4.71882,1.35223 -31.39832,1.35223 -26.09615,0 -30.06762,-0.16349 -31.18807,-1.28394 -1.13813,-1.13814 -1.28474,-6.77511 -1.29093,-49.63618 -0.004,-26.59373 -0.36903,-52.4418 -0.81153,-57.44016 -1.9899,-22.4775 -8.59089,-30.19365 -25.735816,-30.08356 -12.570724,0.0807 -19.857778,3.89891 -24.336922,12.75178 -4.750959,9.39011 -4.867707,10.90171 -5.403126,69.95846 -0.42513,46.8907 -0.65554,54.26439 -1.71662,54.93453 -0.71301,0.45032 -13.73079,0.77928 -31.12577,0.78655 -27.9382405,0.0116 -29.9889205,-0.0855 -31.2524105,-1.48166 z"
       id="path73708" />
  </g>
</svg>
