<?xml version="1.0" encoding="UTF-8" standalone="no"?>
<!-- Created with Inkscape (http://www.inkscape.org/) -->

<svg
   width="285.99338mm"
   height="240.21623mm"
   viewBox="0 0 285.99338 240.21623"
   version="1.1"
   id="svg5"
   sodipodi:docname="twitter.svg"
   inkscape:version="1.1.1 (3bf5ae0d25, 2021-09-20, custom)"
   xmlns:inkscape="http://www.inkscape.org/namespaces/inkscape"
   xmlns:sodipodi="http://sodipodi.sourceforge.net/DTD/sodipodi-0.dtd"
   xmlns="http://www.w3.org/2000/svg"
   xmlns:svg="http://www.w3.org/2000/svg">
  <sodipodi:namedview
     id="namedview7"
     pagecolor="#505050"
     bordercolor="#eeeeee"
     borderopacity="1"
     inkscape:pageshadow="0"
     inkscape:pageopacity="0"
     inkscape:pagecheckerboard="0"
     inkscape:document-units="mm"
     showgrid="false"
     fit-margin-top="0"
     fit-margin-left="0"
     fit-margin-right="0"
     fit-margin-bottom="0"
     inkscape:zoom="0.64765011"
     inkscape:cx="930.28626"
     inkscape:cy="484.05767"
     inkscape:window-width="1533"
     inkscape:window-height="932"
     inkscape:window-x="-256"
     inkscape:window-y="69"
     inkscape:window-maximized="0"
     inkscape:current-layer="layer1"
     width="289.00726mm" />
  <defs
     id="defs2" />
  <g
     inkscape:label="Layer 1"
     inkscape:groupmode="layer"
     id="layer1"
     transform="translate(103.88588,-31.380027)">
    <path
       style="fill:#ff7b08;fill-opacity:1;stroke:#ff7b08;stroke-width:0.817057;stroke-opacity:1"
       d="m -28.353042,218.27914 c -12.12103,-2.59712 -24.23889,-10.24 -32.53365,-20.51938 -3.69956,-4.58474 -11.12309,-16.69756 -11.16789,-18.22241 -0.007,-0.22469 1.84469,-0.2799 4.11398,-0.12269 4.75374,0.32932 20.48067,-1.32719 21.44094,-2.25836 0.35512,-0.34437 -1.91481,-1.57146 -5.04431,-2.72686 -9.2425,-3.41233 -17.09717,-8.48182 -24.25674,-15.65557 -7.38757,-7.4022 -10.67477,-12.63091 -13.79863,-21.94847 -2.54531,-7.59191 -3.8366,-19.94982 -2.00305,-19.16965 0.63418,0.26984 3.75001,1.60396 6.92406,2.96471 5.55452,2.38129 17.05265,4.90893 18.00379,3.95779 0.25326,-0.25326 -2.07756,-2.97384 -5.1796,-6.04573 -10.14077,-10.04224 -16.68311,-20.578061 -19.45009,-31.322541 -2.5578,-9.932202 -0.80087,-26.2973 4.27874,-39.854804 l 1.30978,-3.495799 10.70609,10.471422 c 5.88835,5.759281 13.46366,12.701265 16.83402,15.426629 26.26442,21.238136 57.66722037,34.325713 86.29173,35.963353 l 9.0799,0.51947 -0.37812,-9.719399 c -1.03896,-26.706152 10.28315,-47.05774 32.451612,-58.33207 20.910597,-10.63461 43.99242,-7.913627 61.97334,7.305678 5.78935,4.900191 6.10305,5.050607 9.39615,4.505444 5.94675,-0.984465 20.08792,-5.959518 26.5209,-9.330402 3.4154,-1.789671 6.31545,-3.148309 6.44456,-3.019195 0.12912,0.129117 -1.03878,2.892161 -2.59529,6.140098 -5.12996,10.704375 -11.4234,18.526406 -18.62327,23.146549 -2.87912,1.847527 -3.76344,2.778559 -2.81302,2.961592 1.97403,0.380164 14.36244,-2.822249 23.47847,-6.069197 4.26911,-1.520576 8.05858,-2.764793 8.42103,-2.764928 1.99234,-7.93e-4 -9.80509,14.982656 -16.29497,20.695478 -2.129,1.874092 -5.694,4.694304 -7.92223,6.267138 l -4.05131,2.859696 0.16178,8.624495 c 0.39462,21.037273 -6.40437,51.259293 -16.34491,72.654283 -3.76477,8.10291 -2.59868,7.23884 -13.40131,9.9302 -3.57182,0.88989 -16.99802,4.45635 -55.151306,14.65009 -13.706116,3.66198 -29.516156,7.87251 -35.133426,9.35671 -5.61726,1.48421 -18.66974,5.00987 -29.0054996,7.83478 -20.7317904,5.66631 -24.2928904,6.1394 -32.6822504,4.34185 z"
       id="path74044" />
    <path
       style="fill:#f82142;fill-opacity:1;stroke:#f82142;stroke-width:0.408527;stroke-opacity:1"
       d="m -34.480972,270.99123 c -6.25509,-0.56018 -14.17314,-1.72701 -18.99656,-2.79941 -7.49799,-1.66703 -9.6083,-2.17698 -11.03026,-2.66542 -0.89876,-0.30872 -3.11226,-1.00966 -4.91889,-1.55763 -4.54071,-1.37726 -13.03214,-4.89897 -18.16295,-7.53285 -3.7425,-1.9212 -15.624378,-9.48004 -16.093778,-10.2383 -0.0934,-0.15094 4.086908,-0.20752 9.289668,-0.12574 12.20626,0.19187 19.65707,-0.63469 30.55222,-3.38928 7.07877,-1.7897 11.17176,-3.15933 18.33029,-6.13382 1.46049,-0.60685 4.67765,-1.63355 7.14925,-2.28156 2.47159,-0.648 6.24026,-1.65885 8.37482,-2.24633 2.13456,-0.58748 4.52445,-1.22051 5.31087,-1.40673 1.49081,-0.35302 7.51399,-1.96502 14.50275,-3.88139 6.5933204,-1.80794 11.3365304,-3.083 12.8686404,-3.45931 1.99548,-0.49013 10.1039496,-2.67723 14.5027496,-3.91184 2.02221,-0.56757 4.4121,-1.19411 5.31087,-1.39231 0.89876,-0.19819 3.38057,-0.84519 5.51513,-1.43777 2.13456,-0.59258 5.53555,-1.51399 7.55777,-2.04757 2.02221,-0.53359 5.14745,-1.36948 6.94498,-1.85753 1.79752,-0.48805 6.02579,-1.60229 9.39615,-2.47608 7.78723,-2.01891 18.652993,-4.90637 22.877574,-6.07946 1.797524,-0.49914 5.014685,-1.36591 7.149243,-1.92616 2.13456,-0.56026 4.800208,-1.26214 5.923661,-1.55975 1.123452,-0.29761 3.789098,-1.00204 5.923658,-1.56541 2.134558,-0.56336 5.627476,-1.51726 7.762036,-2.11978 2.13456,-0.60251 5.62748,-1.55262 7.76203,-2.11134 2.13456,-0.55873 4.80021,-1.25847 5.92367,-1.55498 1.12345,-0.29651 4.15677,-1.0971 6.74071,-1.77909 2.58394,-0.682 5.01979,-1.36403 5.413,-1.51562 0.39321,-0.1516 0.71492,-0.15787 0.71492,-0.0139 0,0.5535 -5.18826,8.84881 -8.70617,13.91996 -5.31532,7.66217 -10.7601,14.32362 -16.82684,20.58691 -13.583895,14.02399 -25.992411,23.41909 -39.790572,30.1274 -8.13092,3.95304 -7.38374,3.62216 -13.11383,5.80736 -14.96277,5.70613 -28.99749,8.77076 -48.93726963,10.686 -4.98273997,0.47859 -29.67106037,0.43568 -35.21954037,-0.0612 z"
       id="path92062" />
  </g>
</svg>
