<?xml version="1.0" encoding="UTF-8" standalone="no"?>
<!-- Created with Inkscape (http://www.inkscape.org/) -->

<svg
   width="158.15096mm"
   height="163.54338mm"
   viewBox="0 0 158.15096 163.54338"
   version="1.1"
   id="svg5"
   inkscape:version="1.1.2 (0a00cf5339, 2022-02-04)"
   sodipodi:docname="BIA_Logo.svg"
   xmlns:inkscape="http://www.inkscape.org/namespaces/inkscape"
   xmlns:sodipodi="http://sodipodi.sourceforge.net/DTD/sodipodi-0.dtd"
   xmlns="http://www.w3.org/2000/svg"
   xmlns:svg="http://www.w3.org/2000/svg">
  <sodipodi:namedview
     id="namedview7"
     pagecolor="#505050"
     bordercolor="#eeeeee"
     borderopacity="1"
     inkscape:pageshadow="0"
     inkscape:pageopacity="0"
     inkscape:pagecheckerboard="0"
     inkscape:document-units="mm"
     showgrid="false"
     fit-margin-top="0"
     fit-margin-left="0"
     fit-margin-right="0"
     fit-margin-bottom="0"
     inkscape:zoom="0.91591557"
     inkscape:cx="251.11485"
     inkscape:cy="280.59355"
     inkscape:window-width="1920"
     inkscape:window-height="1019"
     inkscape:window-x="0"
     inkscape:window-y="0"
     inkscape:window-maximized="1"
     inkscape:current-layer="layer1" />
  <defs
     id="defs2" />
  <g
     inkscape:label="Layer 1"
     inkscape:groupmode="layer"
     id="layer1"
     transform="translate(-24.382607,-87.973511)">
    <g
       id="g261"
       transform="translate(-8.6340732,11.555293)">
      <path
         style="fill:#fa8219;stroke-width:0.0846667"
         d="m 103.58254,239.0939 -0.86783,-0.86784 -34.415369,-0.0423 -34.415371,-0.0423 -0.39373,-0.39374 c -0.98077,-0.98077 -0.353343,-2.27326 1.103535,-2.27326 1.258124,0 1.158893,0.0619 3.525461,-2.20134 0.803409,-0.76835 2.074116,-1.97918 2.823793,-2.69074 0.749678,-0.71155 1.896449,-1.80433 2.548383,-2.42838 0.651933,-0.62406 1.356783,-1.28189 1.566333,-1.46184 0.20955,-0.17995 0.89535,-0.83099 1.524,-1.44676 0.62865,-0.61577 1.297063,-1.26172 1.485363,-1.43543 0.1883,-0.17372 0.883055,-0.8302 1.543899,-1.45885 0.660844,-0.62865 1.357257,-1.27698 1.547585,-1.44075 0.757664,-0.65191 0.493278,-0.71444 -3.210607,-0.7593 -1.85275,-0.0224 -2.28338,-0.15049 -2.59869,-0.77272 -0.32861,-0.64848 -0.20942,-0.99488 1.246227,-3.6219 0.170561,-0.30781 0.354187,-0.65484 0.40806,-0.77117 0.05387,-0.11634 0.157705,-0.27754 0.230741,-0.35825 0.169994,-0.18784 0.01692,-0.40391 -0.286149,-0.40391 -0.650041,0 -1.313868,-0.68569 -1.32381,-1.36741 -0.0041,-0.28282 0.246882,-0.91842 0.362801,-0.91869 0.02434,-6e-5 0.154947,-0.0953 0.290249,-0.21166 0.135301,-0.11636 0.276692,-0.21157 0.314201,-0.21157 0.03751,0 0.136359,-0.0715 0.219664,-0.15883 0.08331,-0.0873 0.246716,-0.18763 0.363132,-0.22283 0.116417,-0.0352 0.406111,-0.19233 0.643764,-0.34917 0.237653,-0.15685 0.454722,-0.28517 0.482376,-0.28517 0.02765,0 0.709509,-0.37603 1.515236,-0.83563 1.582799,-0.90285 2.155242,-1.21999 3.073624,-1.70282 0.325967,-0.17137 0.878417,-0.4758 1.227667,-0.6765 0.914433,-0.5255 1.04727,-0.59395 1.1538,-0.59452 0.05251,0 0.142074,-0.0567 0.199039,-0.12533 0.09563,-0.11523 1.039774,-0.65926 1.94916,-1.12314 0.469567,-0.23953 0.788359,-0.42001 1.227667,-0.69501 0.186267,-0.1166 0.719666,-0.40405 1.185333,-0.63879 0.465667,-0.23473 1.007835,-0.53092 1.204818,-0.65819 0.196983,-0.12727 0.391869,-0.2314 0.433081,-0.2314 0.04121,0 0.172478,-0.0767 0.291702,-0.17051 0.119223,-0.0938 0.438686,-0.28788 0.709917,-0.43132 1.480695,-0.78307 3.23105,-1.75693 3.733292,-2.07709 0.24538,-0.15643 0.489086,-0.28442 0.54157,-0.28442 0.05248,0 0.296326,-0.13335 0.541871,-0.29633 0.245545,-0.16298 0.471678,-0.29633 0.502517,-0.29633 0.03084,0 0.272033,-0.12537 0.535985,-0.27859 1.163592,-0.67546 0.991385,-0.65302 4.612364,-0.60125 1.778452,0.0254 3.843148,0.0785 4.588215,0.11806 2.747598,0.14569 4.24403,0.25374 4.656666,0.33622 0.232834,0.0465 0.651934,0.10427 0.931334,0.12828 0.2794,0.024 0.71755,0.0823 0.973666,0.12947 0.256117,0.0472 0.865717,0.12305 1.354667,0.16857 0.48895,0.0455 0.99946,0.12111 1.134467,0.168 0.135008,0.0469 0.425629,0.0852 0.645827,0.0852 0.220198,0 0.547887,0.063 0.728199,0.13998 0.180312,0.077 0.59454,0.16628 0.920507,0.19844 0.325966,0.0321 0.764116,0.10062 0.973666,0.15215 0.20955,0.0515 0.762,0.17456 1.227667,0.27341 0.8791,0.1866 1.561896,0.35693 2.286,0.57025 0.232833,0.0686 0.632883,0.17422 0.888999,0.23473 0.256117,0.0605 0.618067,0.16666 0.804334,0.23593 0.186266,0.0693 0.510116,0.17292 0.719666,0.23035 0.20955,0.0574 0.734319,0.2326 1.166154,0.38926 0.431835,0.15665 0.839565,0.28483 0.906066,0.28483 0.104271,0 0.881347,0.31477 1.792909,0.72624 0.146738,0.0662 0.323047,0.12043 0.391797,0.12043 0.0687,0 0.1704,0.0547 0.22589,0.12155 0.0555,0.0669 0.21755,0.14719 0.36014,0.17851 0.14259,0.0313 0.47974,0.18616 0.74923,0.34411 0.26948,0.15793 0.52951,0.28716 0.57783,0.28716 0.0483,0 0.28282,0.11495 0.5211,0.25544 0.23828,0.1405 0.55428,0.31245 0.70222,0.38213 0.24436,0.11508 0.51533,0.2823 1.80138,1.1117 1.49758,0.96582 3.8482,3.073 4.69062,4.20482 0.16298,0.21897 0.43975,0.57203 0.61504,0.78458 0.1753,0.21254 0.37281,0.49103 0.43892,0.61888 0.0661,0.12785 0.17987,0.28197 0.25279,0.34249 0.0729,0.0605 0.13258,0.17405 0.13258,0.25231 0,0.26662 0.51167,0.87067 0.64428,0.76061 0.0647,-0.0537 0.11772,-0.17067 0.11772,-0.25985 0,-0.0892 0.13335,-0.50745 0.29633,-0.92947 0.16299,-0.42201 0.29652,-0.8492 0.29675,-0.94931 0,-0.1001 0.13357,-0.5396 0.29633,-0.97669 0.16276,-0.43707 0.29592,-0.87713 0.29592,-0.9779 0,-0.10076 0.0319,-0.2194 0.071,-0.26364 0.0649,-0.0735 0.23968,-0.56138 0.65076,-1.8161 0.0839,-0.25612 0.22254,-0.59845 0.30808,-0.76075 0.0855,-0.16229 0.15553,-0.37331 0.15553,-0.46892 0,-0.0956 0.0756,-0.32224 0.16811,-0.5036 0.0925,-0.18136 0.24183,-0.54184 0.33194,-0.80107 0.0901,-0.25923 0.28116,-0.73205 0.42456,-1.05072 0.1434,-0.31866 0.26084,-0.62346 0.26098,-0.67733 0,-0.0539 0.1335,-0.36246 0.29634,-0.68576 0.16283,-0.32329 0.29607,-0.63813 0.29607,-0.69964 0,-0.0615 0.0354,-0.178 0.0786,-0.25886 0.16436,-0.30744 0.42474,-0.92772 0.59102,-1.40798 0.095,-0.27443 0.2279,-0.56018 0.29531,-0.635 0.0674,-0.0748 0.15057,-0.25034 0.18484,-0.39004 0.0343,-0.1397 0.16711,-0.46355 0.2952,-0.71966 0.12809,-0.25612 0.29564,-0.59902 0.37232,-0.762 0.17279,-0.36723 0.27981,-0.58064 0.56805,-1.13277 0.1245,-0.23846 0.30966,-0.60501 0.41149,-0.81456 0.45658,-0.93958 1.11168,-2.25494 1.1807,-2.37067 0.0416,-0.0699 0.13164,-0.2413 0.2,-0.381 0.30104,-0.61537 0.74742,-1.42701 0.94345,-1.7155 0.11716,-0.17241 0.21302,-0.35237 0.21302,-0.39992 0,-0.0476 0.13335,-0.27402 0.29633,-0.50325 0.16298,-0.22925 0.29633,-0.48163 0.29633,-0.56087 0,-0.0792 0.0569,-0.19129 0.12646,-0.24901 0.0696,-0.0577 0.2468,-0.31957 0.39387,-0.58187 0.14707,-0.2623 0.33263,-0.55311 0.41234,-0.64625 0.0797,-0.0931 0.30846,-0.45508 0.50833,-0.80433 0.19987,-0.34925 0.49081,-0.77799 0.64654,-0.95275 0.15571,-0.17476 0.28313,-0.37445 0.28313,-0.44376 0,-0.0693 0.12382,-0.29496 0.27517,-0.50144 0.15134,-0.20647 0.37041,-0.51559 0.48683,-0.68694 0.11642,-0.17135 0.32858,-0.45042 0.47147,-0.62016 0.1429,-0.16974 0.35051,-0.46102 0.46136,-0.64728 0.11085,-0.18627 0.30712,-0.47202 0.43615,-0.635 0.12903,-0.16299 0.42368,-0.54399 0.65478,-0.84667 1.67872,-2.19878 2.15975,-2.73566 4.92658,-5.49859 2.01671,-2.01388 2.38388,-2.35925 3.22381,-3.03239 1.03878,-0.83253 1.56837,-1.11059 2.53928,-1.3333 0.34185,-0.0784 0.73203,-0.17703 0.86703,-0.21915 0.13501,-0.0421 0.34456,-0.0766 0.46567,-0.0765 0.12112,1e-5 0.4488,-0.0751 0.7282,-0.16698 0.57872,-0.19025 1.61065,-0.42624 1.86267,-0.42597 0.0931,0 0.35983,-0.0716 0.59266,-0.15942 0.23284,-0.0878 0.63289,-0.18571 0.889,-0.21762 0.25612,-0.0319 0.71332,-0.12821 1.016,-0.21398 0.30269,-0.0858 0.72179,-0.20419 0.93134,-0.26311 0.20955,-0.0589 0.59055,-0.13572 0.84666,-0.17066 0.25612,-0.0349 0.63712,-0.0883 0.84667,-0.11862 0.96803,-0.14003 1.71477,0.75052 1.39352,1.66188 -0.13301,0.37733 -0.81708,1.55237 -1.57136,2.69913 -0.22972,0.34925 -0.47074,0.7493 -0.5356,0.889 -0.0649,0.1397 -0.22615,0.39433 -0.35841,0.56585 -0.13226,0.17152 -0.35478,0.5071 -0.49448,0.74574 -0.1397,0.23864 -0.3683,0.60861 -0.508,0.82218 -0.23011,0.35177 -0.7566,1.18105 -1.43934,2.26713 -0.1397,0.22223 -0.33942,0.52309 -0.44383,0.66858 -0.10441,0.14548 -0.25174,0.39787 -0.32741,0.56085 -0.0757,0.16298 -0.24742,0.42149 -0.38167,0.57445 -0.13425,0.15295 -0.24409,0.31656 -0.24409,0.36357 0,0.047 -0.16192,0.32996 -0.35983,0.62879 -0.56534,0.85361 -0.7472,1.14285 -1.11762,1.77752 -0.19024,0.32597 -0.45952,0.75078 -0.59839,0.94403 -0.13887,0.19325 -0.31936,0.45995 -0.4011,0.59266 -0.0817,0.13273 -0.33728,0.54611 -0.5679,0.91865 -0.23061,0.37253 -0.49453,0.81362 -0.58648,0.98018 -0.0919,0.16657 -0.33169,0.54131 -0.53276,0.83276 -0.20107,0.29144 -0.46083,0.69106 -0.57725,0.88806 -0.11642,0.19699 -0.29739,0.46556 -0.40217,0.59683 -0.10477,0.13127 -0.1905,0.28601 -0.1905,0.34388 0,0.0579 -0.0599,0.15496 -0.13318,0.21576 -0.0733,0.0608 -0.21185,0.26471 -0.30799,0.45315 -0.0961,0.18844 -0.28211,0.47674 -0.41328,0.64067 -0.13117,0.16392 -0.31798,0.47851 -0.41515,0.69908 -0.0972,0.22057 -0.25185,0.44128 -0.34374,0.49046 -0.16405,0.0878 -1.54301,2.13002 -2.05641,3.0455 -0.14363,0.25612 -0.53193,0.88477 -0.86288,1.397 -0.33096,0.51223 -0.70253,1.14088 -0.82572,1.397 -0.12319,0.25611 -0.29766,0.56091 -0.38772,0.67733 -0.26326,0.34034 -1.13914,1.67285 -1.32418,2.01455 -0.0935,0.17259 -0.32207,0.53701 -0.508,0.80984 -0.18595,0.27283 -0.46466,0.71098 -0.61937,0.97366 -0.15471,0.26269 -0.34954,0.55382 -0.43296,0.64695 -0.0834,0.0931 -0.31538,0.45508 -0.51545,0.80433 -0.20007,0.34925 -0.52292,0.88265 -0.71746,1.18534 -0.36226,0.56365 -1.37562,2.28982 -1.90517,3.24526 -0.16298,0.29407 -0.37949,0.63854 -0.48111,0.76551 -0.10163,0.12696 -0.38412,0.6195 -0.62776,1.09453 -0.24364,0.47503 -0.51106,0.95895 -0.59427,1.07536 -0.18369,0.25702 -0.41714,0.68405 -1.04142,1.905 -0.2619,0.51224 -0.51056,0.98849 -0.55258,1.05834 -0.042,0.0699 -0.35303,0.67945 -0.69113,1.35466 -0.74191,1.4817 -1.15379,2.28483 -1.25918,2.45534 -0.0432,0.0699 -0.14289,0.2794 -0.22158,0.46566 -0.0787,0.18627 -0.31338,0.70062 -0.52154,1.143 -0.20817,0.44239 -0.45299,0.99484 -0.54406,1.22767 -0.0911,0.23283 -0.21428,0.49953 -0.27378,0.59267 -0.0595,0.0931 -0.1879,0.39793 -0.28535,0.67733 -0.0974,0.2794 -0.3319,0.86233 -0.52103,1.2954 -0.18913,0.43307 -0.34388,0.8404 -0.34388,0.90517 0,0.20731 0.16015,0.22536 0.31525,0.0355 0.70857,-0.86724 2.74842,-3.12908 3.66409,-4.06284 0.30268,-0.30867 0.74437,-0.76688 0.98154,-1.01825 0.23716,-0.25136 0.48481,-0.51017 0.55033,-0.57514 0.0655,-0.065 0.71323,-0.71266 1.43936,-1.43933 1.65896,-1.6602 3.16087,-3.0833 3.71761,-3.52255 0.23609,-0.18627 0.67078,-0.54822 0.96596,-0.80433 0.80575,-0.6991 2.53309,-2.00223 3.14019,-2.36902 0.18627,-0.11253 0.47202,-0.30747 0.635,-0.4332 0.16299,-0.12574 0.39104,-0.25694 0.50678,-0.29157 0.11574,-0.0346 0.34434,-0.16825 0.508,-0.29695 0.37765,-0.297 1.79026,-1.01176 2.00092,-1.01245 0.0876,0 0.27008,-0.0583 0.40548,-0.1289 0.33708,-0.17579 1.03579,-0.1784 2.63249,-0.01 0.74507,0.0786 1.64042,0.15887 1.98967,0.17828 0.34925,0.0194 0.99695,0.0729 1.43933,0.11881 0.44238,0.0459 1.07103,0.10551 1.397,0.1324 0.32597,0.0269 0.82127,0.0886 1.10067,0.13716 0.86847,0.15091 2.57969,0.36532 3.64066,0.45618 0.87727,0.0751 1.848,0.20633 2.24367,0.30328 0.20955,0.0513 0.8001,0.12606 1.31233,0.16604 0.51224,0.04 1.04564,0.11143 1.18534,0.15875 0.1397,0.0473 0.5207,0.10478 0.84666,0.12767 0.32597,0.0229 0.78317,0.10115 1.016,0.17392 0.23284,0.0728 0.62743,0.13271 0.87689,0.13322 0.43839,8.5e-4 1.06154,0.11302 2.21345,0.39831 0.30268,0.075 0.80127,0.16851 1.10799,0.20789 0.3067,0.0394 0.78295,0.15108 1.05833,0.24825 0.27537,0.0971 0.67213,0.23639 0.88168,0.30941 0.20955,0.073 0.44114,0.18413 0.51466,0.24691 0.0735,0.0628 0.16524,0.11414 0.20383,0.11414 0.0386,0 0.7595,0.34073 1.60201,0.75717 0.84251,0.41644 1.66518,0.81572 1.82816,0.8873 0.16299,0.0716 0.35349,0.1676 0.42334,0.2134 0.0699,0.0458 0.33655,0.18124 0.59266,0.30098 0.25612,0.11974 0.56092,0.27017 0.67734,0.33431 0.11641,0.0641 0.30691,0.15777 0.42333,0.20811 0.11642,0.0503 0.26882,0.12858 0.33867,0.1739 0.0699,0.0453 0.3175,0.16416 0.55033,0.26409 0.23283,0.0999 0.48048,0.23007 0.55033,0.2892 0.0699,0.0591 0.22225,0.13485 0.33867,0.16826 0.11642,0.0334 2.04047,0.96654 4.27567,2.0736 2.23519,1.10708 4.86409,2.40582 5.84199,2.88609 2.57319,1.26377 2.89079,1.55515 2.71522,2.49103 -0.12608,0.67204 -1.06792,1.21524 -1.69421,0.97713 -0.12523,-0.0476 -0.42524,-0.0875 -0.66668,-0.0886 -0.24145,-0.001 -0.59139,-0.0411 -0.77766,-0.0888 -0.18627,-0.0477 -0.58632,-0.12193 -0.889,-0.16489 -0.30268,-0.043 -0.72178,-0.11877 -0.93133,-0.16847 -0.20955,-0.0497 -0.69695,-0.12387 -1.08312,-0.16485 -0.38617,-0.041 -0.89176,-0.1231 -1.12353,-0.1825 -0.7651,-0.19609 -0.85164,0.0662 -0.20635,0.62554 0.2794,0.24218 0.889,0.82016 1.35466,1.28441 0.46567,0.46427 1.01812,0.99304 1.22767,1.17507 0.67215,0.58388 2.09962,1.92489 3.5307,3.31686 0.76601,0.74506 1.45654,1.38916 1.53452,1.43134 0.078,0.0422 0.43435,0.35431 0.79194,0.69365 0.35758,0.33932 0.79598,0.70902 0.97421,0.82153 0.17824,0.11252 0.45717,0.36116 0.61985,0.55255 0.49282,0.57976 1.60818,1.69904 2.37011,2.37844 0.39582,0.35294 0.89745,0.83223 1.11472,1.06509 l 0.39504,0.4234 1.12896,0.0423 c 1.91726,0.0719 2.56456,1.10747 1.44211,2.30717 l -0.21784,0.23283 H 147.42458 104.4504 Z m 10.6902,-1.9258 c 0,-0.36136 -1.2406,-0.57594 -1.44236,-0.24948 -0.0271,0.0439 -0.11597,0.0798 -0.19746,0.0798 -0.25858,0 -0.5014,0.23406 -0.34985,0.33725 0.30325,0.20648 1.98967,0.0645 1.98967,-0.16755 z m 69.54282,0.17745 c 0.33666,-0.21326 -1.69875,-1.95403 -2.28795,-1.95674 -0.10938,-8.4e-4 -0.3859,-0.0576 -0.6145,-0.127 -0.22859,-0.0693 -0.55244,-0.12719 -0.71966,-0.12855 -0.16723,-0.001 -0.57075,-0.0764 -0.89672,-0.16686 -0.32596,-0.0904 -0.7108,-0.16552 -0.8552,-0.16687 -0.14439,-0.001 -0.37299,-0.0395 -0.508,-0.0848 -0.135,-0.0453 -0.55026,-0.12262 -0.9228,-0.17189 -0.37253,-0.0493 -0.86783,-0.12636 -1.10066,-0.17131 -1.0841,-0.20928 -2.50151,-0.44276 -3.59833,-0.59273 -0.30269,-0.0414 -0.72179,-0.11687 -0.93134,-0.16774 -0.20955,-0.0509 -0.79203,-0.12733 -1.29439,-0.16991 -0.50237,-0.0426 -0.95736,-0.1046 -1.01109,-0.1378 -0.0537,-0.0332 -0.40471,-0.091 -0.77994,-0.12845 -0.37523,-0.0374 -0.89179,-0.10736 -1.14791,-0.15538 -0.25612,-0.048 -0.86572,-0.12576 -1.35467,-0.17274 -0.48895,-0.047 -0.99946,-0.1227 -1.13446,-0.16825 -0.13501,-0.0455 -0.42076,-0.083 -0.635,-0.0833 -0.21425,0 -0.52289,-0.0359 -0.68587,-0.0793 -0.16298,-0.0434 -0.52493,-0.0987 -0.80433,-0.12307 -0.2794,-0.0243 -0.9271,-0.0821 -1.43934,-0.12829 -0.51223,-0.0462 -1.17898,-0.10348 -1.48166,-0.12725 -0.30269,-0.0238 -0.87419,-0.0993 -1.27,-0.16783 -0.39582,-0.0685 -1.11972,-0.14695 -1.60867,-0.17426 -0.48895,-0.0273 -1.3843,-0.0862 -1.98967,-0.13088 -0.60536,-0.0447 -1.82456,-0.1228 -2.70933,-0.17359 -0.88477,-0.0508 -1.85632,-0.11689 -2.159,-0.14689 -0.76417,-0.0757 -11.67595,-0.0735 -12.40367,0.003 -0.32596,0.0341 -1.10701,0.10162 -1.73566,0.15011 -0.62865,0.0485 -1.524,0.12663 -1.98967,0.17365 -0.46567,0.047 -1.07527,0.10354 -1.35467,0.12561 -0.2794,0.0221 -0.71755,0.0811 -0.97366,0.13127 -1.03526,0.20263 -1.2518,0.23636 -1.82033,0.2836 -0.54031,0.0449 -1.28881,0.19415 -2.60223,0.51892 -0.26705,0.066 -0.59563,0.12006 -0.73019,0.12006 -0.13454,0 -0.40001,0.0548 -0.58992,0.12182 -0.18991,0.067 -0.69952,0.20289 -1.13248,0.30196 -2.15293,0.49266 -5.97018,2.0163 -6.89094,2.75049 l -0.22951,0.183 0.27323,0.51263 c 0.15028,0.28194 0.35606,0.55268 0.4573,0.60163 0.2297,0.11107 65.48778,0.13522 65.66289,0.0243 z m -60.58932,-1.36222 c -0.47227,-0.28795 -0.33848,-1.00169 0.21994,-1.1733 0.22538,-0.0693 6.64871,-0.0955 23.69036,-0.0969 l 23.38114,-0.002 0.2197,0.26109 c 0.28174,0.33483 0.28617,0.69732 0.0119,0.97162 l -0.20782,0.20781 h -23.52001 c -23.29776,0 -23.52261,-0.002 -23.79518,-0.16809 z m -17.29191,0.86066 c 0.16229,-0.0849 0.54273,-0.24342 0.84541,-0.35221 0.30268,-0.10878 0.60748,-0.2424 0.67733,-0.29691 0.0699,-0.0545 0.3175,-0.16724 0.55034,-0.2505 1.50658,-0.53877 1.59828,-0.64509 0.96604,-1.11995 -0.23703,-0.17803 -0.58945,-0.45964 -0.78317,-0.62581 -0.62181,-0.53337 -2.22559,-1.56989 -3.35787,-2.17018 -0.30269,-0.16047 -0.64559,-0.34365 -0.762,-0.40706 -0.11642,-0.0634 -0.36407,-0.17979 -0.55034,-0.25861 -0.18626,-0.0788 -0.39581,-0.19181 -0.46566,-0.25109 -0.0699,-0.0593 -0.26035,-0.14615 -0.42334,-0.19304 -0.16298,-0.0469 -0.58208,-0.20853 -0.93133,-0.35919 -1.36105,-0.58713 -2.00143,-0.83611 -2.285999,-0.8888 -0.162984,-0.0302 -0.372534,-0.10224 -0.465667,-0.16016 -0.09313,-0.0579 -0.397933,-0.17149 -0.677333,-0.2524 -0.2794,-0.0809 -0.7366,-0.22114 -1.016,-0.31161 -0.2794,-0.0905 -0.7366,-0.22219 -1.016,-0.29273 -0.2794,-0.0705 -0.71755,-0.18153 -0.973667,-0.24667 -1.49516,-0.38025 -1.853293,-0.46475 -2.158999,-0.5094 -0.186267,-0.0272 -0.662517,-0.12253 -1.058334,-0.21185 -0.99236,-0.22391 -1.916259,-0.38461 -3.428999,-0.59643 -0.2794,-0.0391 -0.79375,-0.11155 -1.143,-0.16093 -0.697952,-0.0987 -2.077154,-0.22194 -3.259667,-0.29123 -0.4191,-0.0246 -0.8382,-0.0639 -0.931333,-0.0874 -0.533606,-0.13466 -2.025463,-0.16936 -7.281333,-0.16936 -5.274303,0 -6.560445,0.0294 -7.365999,0.16822 -0.1397,0.0241 -0.70429,0.0626 -1.254644,0.0857 -0.550355,0.0231 -1.426655,0.0804 -1.947333,0.12733 -0.520679,0.047 -1.34674,0.11934 -1.83569,0.16085 -0.488949,0.0415 -1.174749,0.12061 -1.523999,0.17579 -0.82884,0.13094 -0.964398,0.14639 -2.116667,0.24112 -0.535517,0.044 -1.145116,0.12285 -1.354666,0.17518 -0.20955,0.0523 -0.66675,0.12874 -1.016,0.1698 -1.392179,0.16371 -2.68859,0.34183 -3.090333,0.4246 -0.232834,0.048 -0.694152,0.11901 -1.025151,0.15783 -0.331,0.0388 -0.650732,0.10085 -0.710516,0.1378 -0.05978,0.0369 -0.379516,0.0995 -0.710516,0.13895 -0.330999,0.0395 -0.792317,0.10683 -1.025151,0.14966 -0.947682,0.17437 -2.353214,0.42289 -3.386666,0.59879 -0.232833,0.0396 -0.576236,0.12753 -0.763118,0.19533 -0.186883,0.0678 -0.509227,0.1519 -0.716323,0.1869 -0.316495,0.0535 -0.492765,0.17333 -1.105408,0.75166 -0.400879,0.37842 -1.297735,1.22042 -1.993011,1.8711 -2.381691,2.22892 -3.03005,2.89168 -2.97336,3.0394 0.04874,0.12701 2.509828,0.13883 31.234061,0.14999 17.149635,0.007 31.456241,0.0228 31.792461,0.0358 0.6905,0.0267 0.73054,0.0479 1.52627,0.80912 0.76201,0.72894 0.8287,0.75539 1.29268,0.5126 z m -54.653586,-3.76814 c -0.630474,-0.13644 -0.848749,-0.42581 -0.650085,-0.86182 0.22238,-0.48807 -1.371139,-0.45759 24.029289,-0.45963 l 23.379203,-0.002 0.285129,0.19149 c 0.384499,0.2582 0.422423,0.61055 0.106169,0.9864 l -0.230257,0.27365 -23.290391,-0.0275 c -12.809714,-0.0151 -23.44279,-0.0605 -23.629057,-0.10076 z m 124.510146,-1.62312 c -8.5e-4,-0.0466 -0.0788,-0.0968 -0.1738,-0.11173 -0.17028,-0.0267 -0.22908,0.0694 -0.11332,0.18521 0.0823,0.0823 0.28848,0.0296 0.28712,-0.0735 z m -0.60593,-0.0372 c 0.1926,-0.12188 -0.0222,-0.30973 -0.48395,-0.42326 -0.21978,-0.054 -0.74251,-0.22442 -1.16161,-0.37862 -0.4191,-0.15419 -1.27635,-0.44275 -1.905,-0.64123 -0.62865,-0.19848 -1.4478,-0.46604 -1.82033,-0.59456 -0.93046,-0.32101 -2.77845,-0.84615 -2.97763,-0.84615 -0.0899,0 -0.20127,-0.0378 -0.24743,-0.0839 -0.0462,-0.0462 -0.2538,-0.12084 -0.46143,-0.16595 -0.36501,-0.0793 -1.02186,-0.24252 -1.90151,-0.47245 -1.08926,-0.28472 -1.64569,-0.40901 -2.08294,-0.46526 -0.26085,-0.0336 -0.60375,-0.0995 -0.762,-0.14665 -0.15826,-0.0471 -0.51633,-0.13224 -0.79573,-0.18918 -0.2794,-0.0569 -0.61651,-0.13684 -0.74914,-0.17755 -0.13264,-0.0407 -0.49459,-0.0984 -0.80434,-0.1282 -0.30975,-0.0298 -0.77273,-0.10994 -1.02885,-0.17811 -0.25612,-0.0682 -0.73237,-0.15783 -1.05833,-0.19925 -0.32597,-0.0414 -0.78999,-0.11161 -1.03116,-0.156 -0.24116,-0.0444 -0.69836,-0.0895 -1.016,-0.10018 -0.31763,-0.0107 -0.67276,-0.0494 -0.78918,-0.086 -0.3354,-0.10547 -0.81926,-0.17121 -1.82033,-0.24734 -0.51223,-0.0389 -1.36948,-0.11002 -1.905,-0.15793 -1.28213,-0.11471 -8.1435,-0.11667 -9.44033,-0.003 -0.5588,0.0491 -1.37795,0.12125 -1.82034,0.16031 -0.44238,0.0391 -0.99483,0.11194 -1.22766,0.16197 -0.23284,0.05 -0.76624,0.13131 -1.18534,0.18064 -0.4191,0.0493 -0.87246,0.12631 -1.00746,0.17108 -0.13501,0.0448 -0.40527,0.0814 -0.60058,0.0814 -0.19531,0 -0.5611,0.0703 -0.81286,0.15628 -0.25178,0.086 -0.68175,0.18211 -0.9555,0.21368 -0.27376,0.0316 -0.95956,0.18462 -1.524,0.34008 -0.56445,0.15548 -1.17866,0.32219 -1.36493,0.37046 -0.18626,0.0483 -0.60536,0.18606 -0.93133,0.30618 -0.32597,0.12013 -0.66887,0.21945 -0.762,0.22072 -0.0931,0.001 -0.28363,0.0623 -0.42333,0.1357 -0.1397,0.0734 -0.53975,0.22623 -0.889,0.33969 -0.66052,0.21457 -1.51395,0.5574 -2.45534,0.98636 -0.30268,0.13792 -0.72178,0.32097 -0.93133,0.40678 -0.33613,0.13764 -1.28239,0.60981 -2.09639,1.04607 -0.71967,0.3857 -0.0379,0.36457 1.20739,-0.0374 0.4191,-0.13529 1.0668,-0.30894 1.43933,-0.3859 0.37254,-0.077 0.92499,-0.2092 1.22767,-0.29386 0.30268,-0.0847 0.83608,-0.19747 1.18533,-0.25067 0.34925,-0.0532 0.8255,-0.13133 1.05834,-0.17362 0.23283,-0.0423 0.65853,-0.11132 0.94599,-0.15337 0.28747,-0.042 0.56074,-0.1 0.60728,-0.12875 0.0465,-0.0288 0.53523,-0.0891 1.086,-0.13406 0.55076,-0.045 1.21094,-0.12124 1.46706,-0.16948 0.25611,-0.0482 0.82761,-0.10777 1.27,-0.13228 0.44238,-0.0245 0.96141,-0.0848 1.1534,-0.1339 0.72596,-0.18577 8.95726,-0.31136 13.1976,-0.20136 0.8382,0.0217 2.36317,0.0584 3.38884,0.0815 1.02566,0.0231 1.97816,0.0792 2.11667,0.12462 0.13849,0.0454 0.82332,0.10322 1.52182,0.12842 0.6985,0.0252 1.5748,0.0841 1.94733,0.13084 0.37254,0.0468 1.24884,0.12229 1.94734,0.16783 0.6985,0.0455 1.40335,0.10559 1.56633,0.13346 0.16298,0.0279 0.62018,0.0884 1.016,0.13463 0.39582,0.0462 0.98637,0.11698 1.31233,0.15732 0.32597,0.0403 0.99272,0.1133 1.48167,0.16216 1.41005,0.14087 1.64036,0.16725 1.82033,0.20858 0.54217,0.1245 1.16348,0.22575 1.60867,0.26214 1.5947,0.13033 2.80625,0.30162 3.37813,0.47759 0.13501,0.0415 0.40555,0.0755 0.6012,0.0755 0.19566,0 0.46619,0.0372 0.6012,0.0826 0.135,0.0455 0.58837,0.12154 1.00747,0.16908 1.06781,0.12112 1.63887,0.21593 1.70622,0.28328 0.0787,0.0787 0.21698,0.0703 0.36267,-0.0219 z m -57.34155,-1.29907 c 0.13163,-0.10629 0.41078,-0.30632 0.62033,-0.4445 0.36802,-0.24269 0.48573,-0.30969 1.45727,-0.82944 0.24626,-0.13173 0.50488,-0.2894 0.57473,-0.35036 0.12671,-0.11058 0.87295,-0.46845 0.97683,-0.46845 0.0301,0 0.14401,-0.0702 0.25305,-0.15596 0.10905,-0.0858 0.49606,-0.26348 0.86002,-0.39492 0.36398,-0.13142 0.75263,-0.30889 0.86369,-0.39437 0.11105,-0.0855 0.25247,-0.15542 0.31426,-0.15542 0.0618,0 0.3933,-0.13335 0.73666,-0.29633 0.34337,-0.16298 0.6782,-0.29657 0.74406,-0.29686 0.0659,0 0.23406,-0.0607 0.37376,-0.13423 0.36136,-0.19023 1.07776,-0.45772 1.22767,-0.45839 0.0698,0 0.2413,-0.0605 0.381,-0.13384 0.1397,-0.0733 0.4826,-0.20288 0.762,-0.28796 0.2794,-0.0851 0.889,-0.27332 1.35467,-0.41832 0.46566,-0.145 1.05621,-0.2991 1.31233,-0.34243 0.25611,-0.0433 0.73236,-0.15812 1.05833,-0.25505 0.67601,-0.20104 1.64662,-0.41414 2.32833,-0.5112 0.25612,-0.0365 0.61807,-0.10962 0.80434,-0.16257 0.38177,-0.10852 1.81949,-0.3192 2.96333,-0.43425 0.4191,-0.0421 1.0287,-0.11389 1.35467,-0.15943 1.78801,-0.24978 11.7421,-0.31614 12.61533,-0.0841 0.1397,0.0371 0.45278,0.0864 0.69573,0.10952 0.24295,0.0231 0.47402,0.062 0.51349,0.0864 0.0395,0.0244 0.41218,0.0518 0.82827,0.0609 0.41607,0.009 0.85176,0.0479 0.96818,0.0862 0.11641,0.0383 0.63076,0.10738 1.143,0.1536 0.51223,0.0462 1.10278,0.12485 1.31233,0.17475 0.20955,0.0499 0.59055,0.1245 0.84667,0.16579 1.50186,0.24214 2.11346,0.34931 2.43416,0.42654 0.19791,0.0477 0.52176,0.12607 0.71967,0.17424 0.19791,0.0482 0.58843,0.11882 0.86783,0.15698 0.55881,0.0763 1.06611,0.19305 1.91101,0.43969 0.30599,0.0893 0.64378,0.1624 0.75063,0.1624 0.10687,0 0.37087,0.0546 0.58667,0.12126 0.98968,0.30585 1.60217,0.47141 1.74401,0.47141 0.29095,0 4.35414,1.23572 5.75288,1.74959 0.87901,0.32294 0.83477,0.12508 -0.19338,-0.86486 -4.15812,-4.0036 -3.8509,-3.75865 -4.83682,-3.85666 -0.34925,-0.0347 -0.9491,-0.10152 -1.33301,-0.14847 -0.3839,-0.047 -1.01255,-0.0948 -1.397,-0.10623 -0.38444,-0.0115 -0.79424,-0.0499 -0.91065,-0.0853 -0.2945,-0.0897 -0.9514,-0.15984 -2.286,-0.24415 -0.62865,-0.0397 -1.69545,-0.1112 -2.37067,-0.15888 -3.55928,-0.2513 -6.14213,-0.33633 -10.16,-0.33446 -4.47404,0.002 -6.57095,0.0988 -10.71033,0.49419 -0.4191,0.04 -0.9906,0.11275 -1.27,0.16161 -0.2794,0.0489 -0.7366,0.11159 -1.016,0.13939 -0.2794,0.0278 -0.7366,0.0898 -1.016,0.13777 -0.2794,0.048 -0.75565,0.11737 -1.05834,0.15422 -0.30268,0.0369 -0.74083,0.12473 -0.97366,0.19525 -0.23284,0.0705 -0.63289,0.15442 -0.889,0.18641 -0.25612,0.032 -0.67522,0.11505 -0.93134,0.18457 -0.25611,0.0695 -0.59901,0.15615 -0.762,0.19251 -0.51076,0.11396 -1.11337,0.27443 -1.98966,0.52983 -0.46567,0.13572 -0.98002,0.27548 -1.143,0.31058 -0.2759,0.0594 -0.76152,0.23497 -2.24367,0.81115 -0.32596,0.12672 -0.85936,0.32738 -1.18533,0.44592 -0.32597,0.11853 -0.64982,0.26283 -0.71967,0.32065 -0.12004,0.0994 -0.87579,0.46274 -0.96242,0.46274 -0.10836,0 -2.73727,1.54799 -2.84758,1.67674 -0.0698,0.0815 -0.2794,0.23996 -0.46566,0.35206 -0.65753,0.39574 -2.02699,1.65232 -1.94512,1.78479 0.086,0.13919 0.35576,0.0892 0.60512,-0.11217 z m -7.00371,-0.94488 c 0.10226,-0.12322 0.0993,-0.45656 -0.034,-3.8572 -0.0283,-0.72179 -0.0918,-2.39819 -0.14113,-3.72534 -0.13184,-3.54706 -0.14525,-3.70774 -0.36413,-4.36033 -0.10932,-0.32597 -0.21946,-0.70702 -0.24475,-0.84677 -0.0421,-0.2326 -0.55323,-1.43484 -0.73788,-1.73556 -0.0429,-0.0699 -0.16841,-0.29845 -0.27892,-0.508 -0.19952,-0.37833 -0.82259,-1.33355 -1.18737,-1.82034 -0.27052,-0.36099 -2.32432,-2.40512 -2.72564,-2.7128 -0.91833,-0.70405 -2.85198,-1.94258 -3.84949,-2.46565 -0.30269,-0.15871 -0.60749,-0.32392 -0.67734,-0.36713 -0.0699,-0.0432 -0.34249,-0.17304 -0.605874,-0.28853 -0.263384,-0.11549 -0.501945,-0.24731 -0.530138,-0.29292 -0.02819,-0.0456 -0.174647,-0.10998 -0.325455,-0.14304 -0.150807,-0.0331 -0.566118,-0.18838 -0.922912,-0.34518 -0.356793,-0.15679 -0.704462,-0.28508 -0.772596,-0.28508 -0.06813,0 -0.411599,-0.13111 -0.763255,-0.29137 -0.351656,-0.16026 -0.823138,-0.32891 -1.047737,-0.37479 -0.224599,-0.0459 -0.675062,-0.18131 -1.001029,-0.30094 -0.325966,-0.11962 -0.764116,-0.25346 -0.973666,-0.29742 -0.20955,-0.044 -0.6096,-0.16257 -0.889,-0.26359 -0.2794,-0.101 -0.6985,-0.2125 -0.931333,-0.24776 -0.551716,-0.0836 -1.147953,-0.22815 -1.778,-0.43115 -0.2794,-0.09 -0.665272,-0.16367 -0.857494,-0.16366 -0.192221,1e-5 -0.486272,-0.0571 -0.653447,-0.12699 -0.167174,-0.0699 -0.467103,-0.12867 -0.666506,-0.13071 -0.199405,-0.002 -0.514953,-0.0634 -0.70122,-0.13632 -0.186266,-0.0729 -0.700616,-0.1639 -1.143,-0.20214 -0.442383,-0.0382 -0.918633,-0.0902 -1.058333,-0.11556 -0.1397,-0.0253 -0.5588,-0.0851 -0.931333,-0.13276 -0.372533,-0.0477 -0.905933,-0.12559 -1.185333,-0.17308 -0.506216,-0.0861 -2.205395,-0.24432 -3.090333,-0.28786 -0.256117,-0.0126 -0.599017,-0.0473 -0.762,-0.0771 -1.217552,-0.22261 -8.625939,-0.30698 -8.974666,-0.1022 -0.116417,0.0684 -0.364067,0.19804 -0.550334,0.28816 -0.186266,0.0901 -0.469894,0.26287 -0.630282,0.38388 -0.160388,0.12101 -0.335639,0.22002 -0.389445,0.22002 -0.0538,0 -0.449081,0.21175 -0.87839,0.47057 -0.429309,0.25881 -0.838936,0.49296 -0.910281,0.52033 -0.07135,0.0274 -0.515782,0.27283 -0.987638,0.54544 -0.471856,0.27261 -0.89363,0.49566 -0.937274,0.49566 -0.04365,0 -0.139506,0.0533 -0.213023,0.11848 -0.136971,0.12142 -0.705502,0.44751 -1.530666,0.87793 -0.850249,0.44352 -1.816451,0.9741 -2.116667,1.16236 -0.328621,0.20606 -1.19459,0.6821 -2.023064,1.11211 -0.297768,0.15455 -0.602568,0.33472 -0.677333,0.40035 -0.07476,0.0656 -0.345486,0.22042 -0.601602,0.34397 -0.256117,0.12354 -0.751417,0.39432 -1.100667,0.60172 -0.34925,0.20741 -0.711501,0.41105 -0.805004,0.45254 -0.0935,0.0415 -0.363927,0.18977 -0.600944,0.32952 -0.237018,0.13975 -0.522466,0.28294 -0.634331,0.31819 -0.111863,0.0353 -0.335893,0.17302 -0.497845,0.30613 -0.161952,0.13312 -0.342906,0.24203 -0.402122,0.24203 -0.220669,0 -0.955142,0.46672 -0.932683,0.59267 0.0222,0.12451 1.609028,0.18952 6.074262,0.24887 0.535517,0.007 1.087967,0.0468 1.227667,0.0881 0.1397,0.0413 0.7493,0.0988 1.354666,0.12778 1.676405,0.0802 3.135605,0.18568 3.979333,0.28761 0.4191,0.0506 1.0287,0.11119 1.354667,0.13458 0.325967,0.0234 0.802217,0.0832 1.058333,0.13289 0.256117,0.0497 0.789517,0.12326 1.185333,0.1635 1.24086,0.12613 2.220684,0.26239 2.878667,0.40033 0.34925,0.0732 0.8255,0.16287 1.058333,0.19923 1.716022,0.26797 2.421772,0.40116 3.132667,0.59124 0.186266,0.0498 0.567266,0.121 0.846666,0.15821 0.51444,0.0685 0.876409,0.1494 1.947333,0.43519 0.325967,0.087 0.726017,0.17789 0.889,0.20201 0.162984,0.0241 0.563034,0.12116 0.889,0.21562 0.325967,0.0945 0.764117,0.21333 0.973667,0.26414 0.20955,0.0508 0.81915,0.21952 1.354666,0.37489 0.535517,0.15538 1.107017,0.30825 1.27,0.33971 0.162984,0.0315 0.467784,0.12477 0.677334,0.20736 0.209549,0.0826 0.533399,0.19039 0.719666,0.23958 0.440312,0.11624 0.968339,0.28424 1.651,0.52527 0.302683,0.10687 0.931333,0.32567 1.397,0.48622 0.465667,0.16056 0.966725,0.34497 1.113462,0.40981 0.146738,0.0648 0.323047,0.11789 0.391799,0.11789 0.06875,0 0.170402,0.0547 0.225888,0.12155 0.05549,0.0669 0.222077,0.14597 0.370201,0.1758 0.399797,0.0805 1.013446,0.309 1.159567,0.43176 0.07054,0.0593 0.288397,0.14373 0.484131,0.18771 0.195735,0.044 0.56607,0.19858 0.822967,0.34357 0.256897,0.14498 0.534338,0.26375 0.616535,0.26392 0.0822,0 0.2641,0.0702 0.404228,0.15569 0.14013,0.0855 0.498712,0.2398 0.796852,0.34297 0.29814,0.10318 0.633544,0.25955 0.745344,0.34749 0.1118,0.0879 0.343767,0.20425 0.515482,0.25846 0.329429,0.104 1.205485,0.53372 3.021543,1.4821 0.605367,0.31614 1.329266,0.6923 1.608666,0.83592 0.2794,0.14363 0.65972,0.36567 0.84515,0.49343 0.18544,0.12776 0.36259,0.23229 0.39368,0.23229 0.0311,0 0.41276,0.22931 0.84818,0.50959 0.43541,0.28028 0.88691,0.55422 1.00332,0.60876 0.55378,0.25947 3.24365,2.07049 3.97934,2.67918 0.20955,0.17338 0.59055,0.45249 0.84666,0.62024 0.25612,0.16776 0.54187,0.38995 0.635,0.49377 0.0931,0.10381 0.35984,0.31123 0.59267,0.46093 0.23283,0.14969 0.47562,0.33562 0.53953,0.41319 0.14246,0.17288 0.21436,0.17681 0.34543,0.0189 z m -9.47336,-8.81973 c -0.16008,-0.11368 -0.50638,-0.4057 -0.76955,-0.64892 -0.901728,-0.83337 -1.803923,-1.54494 -2.951854,-2.32814 -1.233451,-0.84157 -1.654057,-1.11576 -1.871862,-1.22026 -0.116416,-0.0559 -0.281324,-0.16087 -0.366461,-0.23336 -0.193819,-0.16502 -0.933552,-0.58741 -1.707872,-0.97519 -0.951598,-0.47656 -1.785277,-0.92683 -1.913786,-1.03363 -0.06554,-0.0545 -0.233248,-0.12564 -0.372687,-0.15818 -0.13944,-0.0325 -0.417235,-0.15255 -0.617322,-0.2667 -0.200089,-0.11415 -0.600139,-0.28419 -0.889,-0.37787 -0.288863,-0.0937 -0.684389,-0.26248 -0.878948,-0.37511 -0.194559,-0.11263 -0.40437,-0.20478 -0.466249,-0.20478 -0.06188,0 -0.437496,-0.12758 -0.834707,-0.28352 -0.397212,-0.15594 -0.8732,-0.31116 -1.057752,-0.34493 -0.184551,-0.0338 -0.421855,-0.117 -0.527341,-0.18494 -0.105485,-0.0679 -0.353135,-0.15926 -0.550333,-0.20291 -1.011377,-0.2239 -1.438924,-0.33154 -1.771229,-0.44593 -0.492675,-0.16958 -1.127926,-0.31577 -1.372187,-0.31577 -0.110062,0 -0.33689,-0.0572 -0.504066,-0.127 -0.167174,-0.0699 -0.443944,-0.127 -0.615044,-0.127 -0.171101,0 -0.562849,-0.0723 -0.870553,-0.16065 -0.307703,-0.0884 -0.90325,-0.18259 -1.323438,-0.20939 -0.420187,-0.0268 -0.877387,-0.0866 -1.015999,-0.13291 -0.790794,-0.26419 -8.279176,-0.25762 -9.692357,0.009 -1.16031,0.2185 -2.245373,0.1918 -2.443542,-0.0601 -0.481751,-0.61245 0.09086,-1.18211 1.284285,-1.27768 0.288342,-0.0231 0.886207,-0.0845 1.32859,-0.13638 1.068819,-0.12546 8.232378,-0.12435 9.355666,0.001 0.465667,0.0522 1.075267,0.11389 1.354667,0.1372 0.2794,0.0233 0.64135,0.086 0.804333,0.13938 0.162984,0.0533 0.543983,0.12844 0.846667,0.16687 1.13082,0.14356 2.169593,0.33106 2.497666,0.45083 0.186267,0.068 0.548217,0.16932 0.804334,0.22516 0.559267,0.12192 1.230762,0.30606 1.862666,0.5108 0.256117,0.083 0.713317,0.23 1.016,0.32672 0.913957,0.29206 2.143201,0.74513 2.413,0.88939 0.1397,0.0747 0.312871,0.13604 0.384825,0.13632 0.126034,8.4e-4 1.658995,0.65413 2.334901,0.99556 0.180551,0.0912 0.499724,0.25219 0.709274,0.35774 0.965247,0.48622 1.885274,0.98924 2.687236,1.46924 0.479964,0.28727 0.97656,0.57952 1.103546,0.64944 0.217236,0.11961 1.074191,0.66914 1.543217,0.98961 0.116417,0.0795 0.402167,0.30032 0.635,0.49063 0.232833,0.1903 0.518583,0.41242 0.635,0.49358 1.561116,1.08835 2.963336,2.43638 2.963336,2.84883 0,0.65258 -0.62285,0.93972 -1.18007,0.54403 z m 5.25992,-3.35597 c -0.14595,-0.15134 -0.48074,-0.44662 -0.74399,-0.65617 -0.26324,-0.20955 -0.67383,-0.55401 -0.91241,-0.76547 -0.23858,-0.21146 -0.60524,-0.49235 -0.81479,-0.6242 -0.20955,-0.13185 -0.4572,-0.3139 -0.55033,-0.40456 -0.1538,-0.14971 -1.11193,-0.79994 -2.16939,-1.47225 -0.22562,-0.14344 -0.47751,-0.31793 -0.55975,-0.38774 -0.18466,-0.15674 -2.643672,-1.54881 -3.451526,-1.95392 -0.325966,-0.16347 -0.706966,-0.35705 -0.846666,-0.43018 -0.611073,-0.3199 -2.679334,-1.23909 -3.132667,-1.39225 -0.1397,-0.0472 -0.5588,-0.20995 -0.931333,-0.36169 -1.408495,-0.57369 -1.706065,-0.68405 -2.159,-0.8007 -0.256117,-0.066 -0.751417,-0.2128 -1.100667,-0.32628 -0.349249,-0.11349 -0.882649,-0.27145 -1.185333,-0.35103 -0.302683,-0.0796 -0.721783,-0.20575 -0.931333,-0.28039 -0.20955,-0.0746 -0.5715,-0.163 -0.804333,-0.19637 -0.232834,-0.0334 -0.575734,-0.0993 -0.762,-0.1464 -1.216571,-0.30796 -1.59612,-0.3857 -2.185409,-0.44759 -0.363775,-0.0382 -0.702557,-0.0949 -0.752849,-0.12598 -0.05029,-0.0311 -0.381308,-0.0915 -0.735591,-0.13421 -0.354283,-0.0427 -0.872751,-0.11409 -1.152151,-0.15858 -1.490606,-0.23736 -7.489348,-0.32684 -9.948332,-0.14841 -3.0579,0.2219 -3.302,0.19529 -3.302,-0.35998 0,-0.69475 0.32537,-0.8323 2.286,-0.96638 0.395816,-0.0271 0.795866,-0.0686 0.889,-0.0924 0.814101,-0.20753 7.860868,-0.22958 8.508999,-0.0266 0.116417,0.0364 0.611717,0.0873 1.100667,0.11305 0.488949,0.0257 1.117599,0.0849 1.396999,0.13147 0.2794,0.0466 0.83185,0.12321 1.227667,0.17027 0.395817,0.0471 0.776817,0.10763 0.846667,0.13459 0.116994,0.0451 0.427916,0.10794 1.439333,0.29069 0.934439,0.16885 1.679967,0.33615 2.032,0.45601 0.20955,0.0713 0.6858,0.19361 1.058333,0.27171 0.372533,0.0781 0.776219,0.19163 0.89708,0.25229 0.12086,0.0607 0.50186,0.18628 0.846666,0.27915 0.705499,0.19001 2.819618,0.91954 3.336254,1.15125 0.186266,0.0835 0.414866,0.18164 0.507999,0.21799 0.09313,0.0364 0.386049,0.16443 0.650924,0.2846 0.264875,0.12018 0.523352,0.2185 0.574394,0.2185 0.05104,0 0.348676,0.13094 0.66141,0.29097 0.312733,0.16002 0.663856,0.3312 0.780272,0.38038 0.116417,0.0492 0.268817,0.12615 0.338667,0.17104 0.06985,0.0449 0.37958,0.19421 0.688289,0.33182 0.688067,0.30671 2.38705,1.2601 4.16903,2.33946 0.79563,0.48192 1.97803,1.28181 2.25468,1.52528 0.11642,0.10247 0.37243,0.27974 0.56892,0.39396 0.63032,0.36639 2.69725,2.15964 3.15912,2.74083 0.65666,0.8263 -0.3515,1.62765 -1.08752,0.86443 z m -55.811182,8.99974 c 0.256116,-0.0404 0.522816,-0.0963 0.592666,-0.12422 0.06985,-0.0279 0.4699,-0.0871 0.889,-0.13142 0.4191,-0.0444 0.93345,-0.12152 1.143,-0.17149 0.20955,-0.05 0.651818,-0.12199 0.982818,-0.16006 0.331,-0.0381 0.651835,-0.10012 0.712967,-0.1379 0.06113,-0.0378 0.514213,-0.0992 1.006849,-0.1366 0.492634,-0.0374 1.105249,-0.10736 1.361366,-0.15559 0.256117,-0.0482 0.713317,-0.10953 1.016,-0.13623 0.302683,-0.0267 0.669315,-0.0851 0.814737,-0.12982 0.145423,-0.0447 0.755023,-0.1186 1.354667,-0.16422 0.599644,-0.0456 1.395062,-0.12025 1.767596,-0.16582 0.372533,-0.0456 0.982133,-0.10354 1.354666,-0.12881 0.372533,-0.0253 0.772583,-0.0769 0.889,-0.11474 0.116417,-0.0378 0.497417,-0.0769 0.846667,-0.0867 0.34925,-0.01 1.1303,-0.0552 1.735666,-0.10088 0.605367,-0.0456 1.805517,-0.10254 2.667,-0.12648 0.861483,-0.0239 1.680633,-0.0776 1.820333,-0.11921 0.333574,-0.0994 8.137382,-0.0995 8.466666,0 0.1397,0.0422 0.9779,0.0977 1.862667,0.12343 0.884766,0.0257 1.943475,0.0644 2.352686,0.0859 0.466636,0.0246 0.725186,0.009 0.693503,-0.0426 -0.02778,-0.045 -0.126973,-0.0817 -0.220419,-0.0817 -0.09345,0 -0.253123,-0.0454 -0.354836,-0.10097 -0.101714,-0.0555 -0.375434,-0.13296 -0.608268,-0.17206 -0.232833,-0.0391 -0.613833,-0.10799 -0.846666,-0.15311 -0.232834,-0.0451 -0.804334,-0.13663 -1.27,-0.20334 -0.465667,-0.0667 -0.980017,-0.1653 -1.143,-0.2191 -0.162984,-0.0538 -0.543983,-0.12831 -0.846667,-0.16559 -0.302683,-0.0373 -0.778933,-0.10702 -1.058333,-0.15498 -0.2794,-0.048 -0.71755,-0.10868 -0.973667,-0.13493 -0.256116,-0.0263 -0.637116,-0.0881 -0.846666,-0.1374 -0.602661,-0.14185 -2.535823,-0.39227 -3.311904,-0.42902 -0.250669,-0.0119 -0.551013,-0.0508 -0.667429,-0.0864 -0.116417,-0.0357 -0.421217,-0.0869 -0.677334,-0.1139 -0.256116,-0.027 -0.751416,-0.0867 -1.100666,-0.13261 -0.34925,-0.046 -1.183619,-0.12036 -1.854153,-0.16534 -0.670533,-0.045 -1.337283,-0.11921 -1.481666,-0.16495 -0.144383,-0.0457 -0.643514,-0.1046 -1.109181,-0.13079 -0.465666,-0.0262 -1.170516,-0.0851 -1.566333,-0.13091 -0.655333,-0.0759 -3.283632,-0.2403 -4.106333,-0.25693 -0.186267,-0.004 -0.452967,-0.0401 -0.592667,-0.0807 -0.1397,-0.0406 -0.88265,-0.0956 -1.651,-0.12223 -0.768349,-0.0266 -1.750602,-0.0709 -2.182782,-0.0984 -1.101465,-0.0701 -1.073714,-0.0849 -2.546136,1.35261 -1.725788,1.68484 -3.724878,3.5908 -4.074577,3.88476 -0.311599,0.26193 -0.234322,0.55153 0.119248,0.44688 0.09639,-0.0285 0.384798,-0.0849 0.640915,-0.12533 z m 63.123812,-1.23627 c 0.16033,-0.35183 0.29166,-0.70425 0.29183,-0.78316 0,-0.0789 0.0722,-0.26135 0.16005,-0.40543 0.0879,-0.14407 0.25617,-0.54412 0.37404,-0.889 0.11785,-0.34487 0.31253,-0.82689 0.43261,-1.07114 0.12007,-0.24424 0.21832,-0.47726 0.21832,-0.51783 0,-0.0627 0.16598,-0.43657 0.83205,-1.87441 0.0539,-0.11642 0.13513,-0.26882 0.18044,-0.33867 0.0453,-0.0699 0.16422,-0.3175 0.26421,-0.55033 0.30089,-0.7006 2.87346,-5.81797 3.04799,-6.06307 0.0892,-0.12524 0.27628,-0.46964 0.41578,-0.76532 0.13949,-0.29569 0.3637,-0.72811 0.49824,-0.96095 0.13453,-0.23283 0.38778,-0.67098 0.56276,-0.97366 0.30297,-0.52409 1.57163,-2.75805 1.92327,-3.38667 0.0912,-0.16298 0.23402,-0.37253 0.31744,-0.46567 0.0834,-0.0931 0.25177,-0.37888 0.37413,-0.635 0.22881,-0.47894 0.92495,-1.60124 1.54929,-2.49766 0.19458,-0.2794 0.4948,-0.75565 0.66715,-1.05834 0.17235,-0.30268 0.47535,-0.79798 0.67333,-1.10066 0.19798,-0.30269 0.41745,-0.66464 0.4877,-0.80434 0.0703,-0.1397 0.23621,-0.39269 0.36881,-0.56221 0.13259,-0.16952 0.35538,-0.49046 0.49508,-0.71321 0.53437,-0.85206 0.94912,-1.48593 1.43933,-2.19976 0.2794,-0.40686 0.61735,-0.91533 0.751,-1.12994 0.13365,-0.21462 0.40438,-0.63786 0.60162,-0.94054 0.19724,-0.30268 0.47866,-0.76495 0.62537,-1.02725 0.14671,-0.2623 0.32365,-0.52414 0.39322,-0.58187 0.0695,-0.0577 0.12645,-0.16093 0.12645,-0.22936 0,-0.0684 0.0797,-0.22569 0.17709,-0.34946 0.18375,-0.23354 1.09853,-1.60686 1.38181,-2.07448 0.0891,-0.14699 0.36528,-0.59281 0.61384,-0.99072 0.24856,-0.39791 0.45193,-0.76349 0.45193,-0.81238 0,-0.0489 0.0762,-0.15786 0.16933,-0.24215 0.0931,-0.0843 0.16934,-0.19858 0.16934,-0.254 0,-0.0554 0.0748,-0.16846 0.16625,-0.25121 0.0914,-0.0828 0.37792,-0.51728 0.63662,-0.96563 0.25871,-0.44833 0.54205,-0.91041 0.62965,-1.02682 0.0876,-0.11642 0.37828,-0.55457 0.64594,-0.97367 0.26768,-0.4191 0.62102,-0.97155 0.78522,-1.22767 0.1642,-0.25611 0.38715,-0.57336 0.49543,-0.70499 0.10829,-0.13163 0.19689,-0.29036 0.19689,-0.35272 0,-0.1014 0.52429,-0.96756 1.56344,-2.58295 0.19472,-0.30269 0.50075,-0.77894 0.68008,-1.05834 0.17932,-0.2794 0.41464,-0.61569 0.52293,-0.74732 0.10829,-0.13164 0.19814,-0.30309 0.19969,-0.381 0.002,-0.0779 0.11302,-0.29408 0.24771,-0.48034 0.1347,-0.18627 0.44775,-0.65666 0.69569,-1.04532 0.24794,-0.38866 0.66987,-1.04186 0.93762,-1.45155 0.77707,-1.18898 0.71208,-1.22178 -1.3335,-0.67318 -0.32596,0.0874 -0.89746,0.22039 -1.27,0.29548 -0.37253,0.0751 -0.86783,0.19225 -1.10066,0.26036 -0.23284,0.0681 -0.70408,0.17836 -1.04722,0.24503 -0.68261,0.13261 -1.06008,0.33332 -1.83145,0.9738 -0.2794,0.232 -0.64135,0.51344 -0.80433,0.62543 -0.37241,0.2559 -4.09369,4.03628 -4.80554,4.88187 -0.29143,0.34617 -0.80254,0.97231 -1.13581,1.39141 -0.33326,0.4191 -0.72348,0.90327 -0.86713,1.07594 -0.63425,0.76237 -1.20287,1.55225 -1.53457,2.13173 -0.0769,0.13438 -0.36481,0.52741 -0.63975,0.87338 -0.27493,0.34597 -0.49987,0.66336 -0.49987,0.70531 0,0.0882 -0.52805,0.91627 -0.8646,1.35588 -0.12627,0.16496 -0.27912,0.41253 -0.33965,0.55018 -0.11566,0.26295 -0.40044,0.728 -0.87956,1.43632 -0.15777,0.23323 -0.28685,0.45538 -0.28685,0.49364 0,0.0383 -0.13068,0.26654 -0.29039,0.50727 -0.1597,0.24072 -0.37075,0.60913 -0.46898,0.81868 -0.0982,0.20955 -0.26609,0.5334 -0.37301,0.71967 -0.72473,1.26256 -1.052,1.89329 -1.77923,3.429 -0.12129,0.25611 -0.25628,0.52281 -0.29998,0.59266 -0.11929,0.19067 -0.84419,1.76017 -1.03628,2.24367 -0.0925,0.23283 -0.21935,0.48048 -0.28189,0.55033 -0.0626,0.0699 -0.14173,0.2413 -0.17595,0.381 -0.0342,0.1397 -0.1896,0.4953 -0.34526,0.79021 -0.15567,0.2949 -0.28303,0.59113 -0.28303,0.65827 0,0.0671 -0.1286,0.37831 -0.28577,0.69147 -0.15718,0.31316 -0.31382,0.70274 -0.34809,0.86572 -0.0343,0.16298 -0.10877,0.35348 -0.16555,0.42333 -0.0568,0.0699 -0.17062,0.3175 -0.25298,0.55034 -0.0824,0.23283 -0.27932,0.73224 -0.43769,1.10978 -0.15836,0.37755 -0.28792,0.75055 -0.28792,0.82887 0,0.0783 -0.0753,0.28999 -0.16729,0.47033 -0.092,0.18035 -0.29939,0.72274 -0.46084,1.20532 -0.16146,0.48257 -0.35264,0.99073 -0.42486,1.12922 -0.0722,0.13849 -0.13234,0.30896 -0.13361,0.37881 -0.001,0.0699 -0.0931,0.37465 -0.20402,0.67733 -0.61486,1.67756 -0.80089,2.22777 -0.90174,2.667 -0.0535,0.23284 -0.24535,0.89204 -0.42642,1.46491 -0.18107,0.57287 -0.32922,1.11826 -0.32922,1.21197 0,0.0937 -0.0732,0.34892 -0.16259,0.56709 -0.44443,1.08436 -0.61344,2.13203 -0.57231,3.54756 0.0214,0.73506 0.0628,2.23182 0.092,3.32614 0.0807,3.02078 0.11638,3.14266 0.60537,2.06964 z m -16.472482,-0.71679 c 0,-0.0476 -0.104775,-0.12985 -0.232834,-0.18286 -0.128058,-0.053 -0.760881,-0.35699 -1.406274,-0.67551 -0.645393,-0.31853 -1.221279,-0.57915 -1.279748,-0.57915 -0.05847,0 -0.197171,-0.071 -0.308226,-0.15768 -0.111055,-0.0867 -0.297168,-0.18684 -0.413585,-0.22248 -0.116417,-0.0356 -0.530813,-0.2128 -0.920881,-0.39372 -0.390068,-0.18091 -0.809168,-0.35275 -0.931333,-0.38187 -0.122166,-0.0291 -0.260219,-0.0786 -0.306786,-0.10996 -0.04657,-0.0314 -0.370416,-0.16404 -0.719666,-0.2948 -0.853372,-0.31952 -0.911588,-0.34307 -1.381107,-0.55863 -0.224092,-0.10289 -0.528892,-0.21751 -0.677334,-0.25472 -0.148441,-0.0372 -0.550065,-0.18508 -0.892498,-0.32857 -0.342434,-0.14349 -0.685333,-0.26125 -0.762,-0.26167 -0.07667,-8.5e-4 -0.329894,-0.0945 -0.562728,-0.20903 -0.232833,-0.11452 -0.473324,-0.20943 -0.534424,-0.21088 -0.180177,-0.004 -0.961805,-0.25719 -1.337516,-0.43274 -0.191367,-0.0894 -0.417262,-0.16258 -0.501988,-0.16258 -0.08473,0 -0.271054,-0.038 -0.41406,-0.0844 -1.033921,-0.33545 -2.217919,-0.67764 -2.344707,-0.67764 -0.08345,0 -0.562934,-0.13332 -1.065517,-0.29628 -0.502583,-0.16295 -1.003923,-0.2963 -1.114091,-0.29634 -0.110166,-2e-5 -0.376866,-0.0555 -0.592666,-0.12333 -0.792176,-0.24889 -1.696259,-0.46938 -1.924667,-0.46938 -0.129023,0 -0.446636,-0.0531 -0.705809,-0.11788 -0.259171,-0.0648 -0.73792,-0.18444 -1.063887,-0.26578 -0.325967,-0.0813 -0.935567,-0.19832 -1.354667,-0.25994 -0.4191,-0.0616 -0.93345,-0.15289 -1.143,-0.20282 -0.20955,-0.0499 -0.6096,-0.12301 -0.888999,-0.1624 -0.2794,-0.0394 -0.71755,-0.11167 -0.973667,-0.1606 -0.256117,-0.0489 -0.713317,-0.10938 -1.016,-0.13435 -0.302683,-0.025 -0.721783,-0.0857 -0.931333,-0.13491 -0.41742,-0.0981 -1.213942,-0.19724 -2.709333,-0.3373 -0.535517,-0.0502 -1.221317,-0.1295 -1.524,-0.17632 -1.816268,-0.28094 -7.977495,-0.52973 -11.967328,-0.48324 l -1.934327,0.0225 -0.203258,0.254 c -0.111792,0.1397 -0.259816,0.37257 -0.328943,0.5175 -0.06913,0.14493 -0.179799,0.30841 -0.24594,0.36331 -0.06614,0.0549 -0.142842,0.18979 -0.170447,0.29978 -0.0276,0.10998 -0.205712,0.46972 -0.395793,0.79941 -0.558182,0.96816 -0.617012,0.94615 2.757703,1.03131 0.5588,0.0141 1.11125,0.054 1.227667,0.0888 0.116417,0.0347 1.202267,0.0816 2.413,0.10407 1.210733,0.0225 2.258483,0.062 2.328333,0.0879 0.167375,0.0619 1.243805,0.13134 3.471333,0.22387 1.001183,0.0416 1.972733,0.095 2.159,0.11869 0.186266,0.0237 0.795866,0.0826 1.354666,0.13087 0.5588,0.0483 1.3589,0.12494 1.778,0.17034 0.4191,0.0454 1.330779,0.11992 2.025952,0.16561 0.695174,0.0457 1.323824,0.10924 1.397,0.14125 0.07318,0.032 0.514048,0.0906 0.979715,0.13018 0.465666,0.0396 1.113366,0.10676 1.439333,0.14925 1.595064,0.20793 1.988704,0.25481 2.497666,0.29741 0.302684,0.0253 0.721784,0.0869 0.931334,0.13682 0.370975,0.0884 0.747683,0.13901 2.497666,0.33568 0.465667,0.0523 1.056217,0.15737 1.312333,0.23342 0.256117,0.076 0.713317,0.16562 1.016,0.19906 1.237143,0.13667 2.909478,0.43133 3.513667,0.6191 0.232833,0.0724 0.559292,0.13197 0.725466,0.13248 0.166173,8.5e-4 0.490023,0.055 0.719666,0.12105 0.229644,0.0661 0.569934,0.14019 0.756201,0.16471 0.186266,0.0245 0.505382,0.10381 0.709145,0.1762 0.203763,0.0724 0.464209,0.13162 0.578769,0.13162 0.264845,0 1.201804,0.22714 1.788786,0.43364 0.248619,0.0875 0.56841,0.15903 0.710647,0.15903 0.142237,0 0.700821,0.12937 1.241299,0.28749 0.540478,0.15813 1.230337,0.35074 1.53302,0.42804 0.302683,0.0773 0.740833,0.19858 0.973666,0.26952 0.232834,0.0709 0.613834,0.18034 0.846667,0.24316 0.362887,0.0979 0.773189,0.23303 1.905,0.62736 0.299683,0.10441 0.592667,0.10703 0.592667,0.005 z m 25.691752,-0.9642 c 0.32848,-0.15436 0.86395,-0.38243 1.18991,-0.50682 0.32597,-0.12438 0.65883,-0.26298 0.73968,-0.30799 0.0809,-0.045 0.21855,-0.0818 0.30599,-0.0818 0.0874,0 0.51657,-0.13316 0.95364,-0.29592 0.43709,-0.16276 0.88994,-0.29694 1.00636,-0.29819 0.11642,-0.001 0.36407,-0.0701 0.55033,-0.15304 0.18627,-0.0829 0.64347,-0.2192 1.016,-0.30284 0.37254,-0.0837 0.96309,-0.22094 1.31234,-0.3051 1.18191,-0.28482 1.97468,-0.43828 3.09033,-0.59823 0.2794,-0.0401 0.67945,-0.11384 0.889,-0.16396 0.20955,-0.0501 0.762,-0.127 1.22766,-0.1708 0.46567,-0.0438 0.92287,-0.10303 1.016,-0.13162 0.15791,-0.0485 1.05563,-0.13956 2.45534,-0.24919 0.32596,-0.0255 0.64981,-0.0676 0.71966,-0.0935 0.76994,-0.28556 14.9461,-0.4606 17.61067,-0.21743 0.53552,0.0489 1.60581,0.10956 2.37844,0.13486 0.77262,0.0253 1.45842,0.0642 1.524,0.0864 0.13116,0.0445 0.81356,0.11129 2.23589,0.21892 0.51224,0.0388 1.35044,0.10903 1.86267,0.15617 0.51223,0.0471 1.27423,0.10708 1.69333,0.13323 0.4191,0.0262 0.97155,0.0872 1.22767,0.13578 0.25612,0.0485 0.82762,0.11691 1.27001,0.15193 0.44238,0.035 0.85289,0.0937 0.91223,0.13037 0.18563,0.11474 0.63732,-0.0247 0.52366,-0.16167 -0.0786,-0.0947 -1.9907,-1.07497 -2.4519,-1.25699 -0.0699,-0.0276 -0.18415,-0.0872 -0.254,-0.13244 -0.0699,-0.0453 -0.3175,-0.16483 -0.55033,-0.26567 -0.70397,-0.3049 -1.93849,-0.92741 -2.07404,-1.04584 -0.07,-0.0612 -0.22255,-0.13989 -0.33896,-0.17494 -0.11642,-0.035 -1.24037,-0.56967 -2.49767,-1.18805 -3.31898,-1.63236 -3.84769,-1.84272 -5.207,-2.07158 -0.20955,-0.0353 -0.60194,-0.12562 -0.87197,-0.20075 -0.27002,-0.0751 -0.65128,-0.1366 -0.84722,-0.1366 -0.19594,0 -0.48936,-0.0409 -0.65204,-0.091 -0.16267,-0.0501 -0.54342,-0.12391 -0.8461,-0.16411 -0.30269,-0.0402 -0.75989,-0.11488 -1.016,-0.16595 -0.25612,-0.0511 -0.85874,-0.12896 -1.33917,-0.17307 -0.48042,-0.0441 -0.91446,-0.10553 -0.96451,-0.13646 -0.0501,-0.0309 -0.38089,-0.0912 -0.73517,-0.13395 -0.35429,-0.0427 -0.87275,-0.11298 -1.15215,-0.15609 -0.6073,-0.0937 -1.93485,-0.24225 -2.58234,-0.28891 -0.25611,-0.0185 -0.65616,-0.0775 -0.889,-0.13115 -0.23283,-0.0537 -0.80433,-0.12886 -1.27,-0.16705 -0.46566,-0.0382 -1.34196,-0.12464 -1.94733,-0.19209 -0.60537,-0.0675 -1.19592,-0.12442 -1.31233,-0.12659 -0.11642,-0.002 -0.44027,-0.049 -0.71967,-0.10411 -1.59753,-0.31501 -3.92444,-0.3743 -4.40267,-0.11217 -0.18626,0.1021 -0.54783,0.28502 -0.80347,0.4065 -0.25565,0.12147 -0.5414,0.28992 -0.635,0.37433 -0.0936,0.0844 -0.45594,0.31628 -0.80519,0.51527 -0.34925,0.199 -0.84455,0.53955 -1.10067,0.75681 -0.25612,0.21724 -0.61807,0.48564 -0.80433,0.59641 -0.18627,0.11079 -0.49107,0.32849 -0.67734,0.48379 -0.18626,0.15529 -0.45296,0.37692 -0.59266,0.49249 -0.1397,0.11558 -0.4445,0.37599 -0.67733,0.5787 -0.23284,0.20272 -0.72961,0.63141 -1.10395,0.95266 -1.061,0.91053 -1.19404,1.03805 -3.56794,3.42041 -2.65357,2.663 -2.77137,2.78578 -2.88765,3.0093 -0.14247,0.27386 0.17471,0.24433 0.86629,-0.0806 z m 48.02468,-12.95985 c -0.41068,-1.235 -0.77529,-2.24547 -0.81024,-2.24547 -0.035,0 -1.06839,0.13206 -2.29654,0.29345 -1.22814,0.1614 -2.24251,0.28392 -2.25415,0.27228 -0.0116,-0.0116 0.81516,-0.64171 1.83733,-1.40017 1.02217,-0.75844 1.8585,-1.39101 1.8585,-1.4057 0,-0.0147 -0.45619,-0.98726 -1.01374,-2.16127 -0.94462,-1.98902 -0.99514,-2.12064 -0.74084,-1.93034 0.91554,0.68514 3.53188,2.5214 3.58998,2.5196 0.0383,-0.001 0.81185,-0.70355 1.71905,-1.56082 0.9072,-0.85727 1.65955,-1.54858 1.67188,-1.53624 0.0123,0.0123 -0.28193,0.99093 -0.65391,2.17465 -0.37199,1.18373 -0.67667,2.17465 -0.67706,2.20206 0,0.0274 0.90418,0.54175 2.01013,1.143 l 2.01084,1.09317 -0.84667,0.0536 c -0.46567,0.0295 -1.50316,0.058 -2.30555,0.0635 -1.43933,0.01 -1.45949,0.0125 -1.50404,0.20045 -0.0248,0.10478 -0.21719,1.12395 -0.42746,2.26483 -0.21027,1.14089 -0.39097,2.10372 -0.40156,2.13963 -0.0106,0.0359 -0.35527,-0.94516 -0.76595,-2.18016 z m -30.8429,-5.16647 c 0.0272,-0.0931 0.27878,-0.90013 0.55899,-1.79332 0.28021,-0.8932 0.50947,-1.65529 0.50947,-1.69355 0,-0.0383 -0.7396,-0.46951 -1.64355,-0.95834 l -1.64357,-0.88879 1.89118,-0.0227 1.89118,-0.0227 0.0469,-0.23126 c 0.0258,-0.12719 0.18514,-0.97421 0.35401,-1.88226 0.16889,-0.90804 0.31387,-1.65866 0.32219,-1.66803 0.008,-0.009 0.27553,0.77169 0.59379,1.73567 0.31826,0.96399 0.6027,1.77889 0.63208,1.81091 0.0294,0.032 0.87257,-0.0492 1.87375,-0.18038 1.00119,-0.13122 1.83198,-0.22833 1.8462,-0.2158 0.0142,0.0125 -0.64139,0.51282 -1.45692,1.11172 -0.81554,0.59891 -1.4844,1.13177 -1.48637,1.18416 -0.002,0.0524 0.35734,0.84457 0.79844,1.7604 0.44111,0.91583 0.75578,1.63657 0.69926,1.60164 -0.0565,-0.0349 -0.76586,-0.53491 -1.57631,-1.11106 l -1.47356,-1.04755 -0.64387,0.62039 c -0.35413,0.3412 -0.98114,0.94435 -1.39335,1.34032 -0.41964,0.4031 -0.7277,0.64542 -0.69998,0.55061 z m 17.82454,-3.25966 c -0.005,-0.25612 -0.0526,-1.1131 -0.10623,-1.90441 l -0.0975,-1.43873 -1.69334,-0.22797 c -0.93133,-0.12538 -1.76953,-0.23995 -1.86266,-0.2546 -0.0931,-0.0146 0.60441,-0.32912 1.55008,-0.69884 0.94569,-0.36972 1.73094,-0.69357 1.74501,-0.71966 0.0141,-0.0261 -0.12053,-0.82851 -0.2991,-1.78312 -0.17856,-0.95462 -0.32563,-1.76951 -0.32683,-1.81087 -0.001,-0.0414 0.53346,0.57369 1.18811,1.36678 l 1.19029,1.44197 1.24388,-0.67692 c 0.68414,-0.37232 1.42616,-0.76959 1.64894,-0.88284 l 0.40506,-0.2059 -0.20229,0.32039 c -0.11125,0.17621 -0.5072,0.79858 -0.87989,1.38304 -0.37268,0.58446 -0.72635,1.15373 -0.78593,1.26506 -0.10394,0.19421 -0.0538,0.25469 1.23683,1.49197 l 1.34517,1.28957 -1.778,-0.45865 c -0.9779,-0.25226 -1.80056,-0.45887 -1.82815,-0.45913 -0.0276,0 -0.19687,0.31385 -0.3762,0.69802 -0.17933,0.38418 -0.54711,1.1557 -0.81729,1.7145 l -0.49123,1.016 z m -57.40806,-7.43836 c -0.0169,-1.53589 -0.0555,-2.81737 -0.0859,-2.84774 -0.0304,-0.0304 -1.266334,-0.28207 -2.746604,-0.55937 -1.48027,-0.2773 -2.70133,-0.51411 -2.713467,-0.52625 -0.01214,-0.0121 1.14771,-0.4172 2.577436,-0.90014 1.429727,-0.48295 2.628025,-0.90252 2.662885,-0.9324 0.0484,-0.0414 -0.458033,-4.29488 -0.643045,-5.40124 -0.04653,-0.27823 -0.122071,-0.37067 1.677945,2.05317 0.91643,1.23401 1.69587,2.24366 1.73211,2.24366 0.0362,0 1.18245,-0.53365 2.54713,-1.1859 1.36468,-0.65224 2.48956,-1.17612 2.49973,-1.16416 0.0102,0.012 -0.71477,1.05043 -1.61098,2.30773 l -1.62947,2.286 1.16345,1.22767 c 0.6399,0.67521 1.51693,1.60131 1.94896,2.058 0.57709,0.61002 0.73156,0.81665 0.58215,0.77872 -0.11185,-0.0284 -1.32731,-0.4065 -2.70103,-0.84022 -1.37372,-0.43372 -2.5038,-0.78414 -2.51129,-0.77871 -0.007,0.005 -0.62241,1.12674 -1.36648,2.49179 l -1.35287,2.48193 z m 49.7629,-1.17866 c -0.55192,-1.66356 -1.02744,-3.04892 -1.05671,-3.0786 -0.0293,-0.0297 -1.46044,0.13155 -3.18039,0.35826 -1.71996,0.22671 -3.13561,0.40339 -3.1459,0.39262 -0.0103,-0.0108 1.13703,-0.87538 2.54961,-1.92133 1.41258,-1.04597 2.55623,-1.92227 2.54144,-1.94734 -0.0148,-0.0251 -0.56892,-1.18859 -1.2314,-2.58559 -0.66248,-1.397 -1.27911,-2.68685 -1.37028,-2.86635 -0.10527,-0.20727 -0.12486,-0.30121 -0.0537,-0.25744 0.0616,0.0379 1.22412,0.86023 2.5833,1.82742 1.35917,0.96719 2.50544,1.76883 2.54727,1.78144 0.0418,0.0126 1.09376,-0.94363 2.33764,-2.12498 1.24388,-1.18135 2.27848,-2.13103 2.2991,-2.1104 0.0206,0.0206 -0.38456,1.38073 -0.90044,3.02245 -0.51586,1.64172 -0.92508,2.99594 -0.90937,3.0094 0.0157,0.0134 1.28512,0.70575 2.82089,1.53845 l 2.79233,1.51401 -3.18755,0.0423 c -1.75315,0.0233 -3.20479,0.0614 -3.22585,0.0847 -0.0211,0.0233 -0.30114,1.46057 -0.62239,3.19398 l -0.5841,3.15165 z m -69.393578,-4.77719 c -1.094316,-1.71985 -2.015245,-3.14393 -2.046508,-3.16461 -0.03126,-0.0207 -1.609344,0.57228 -3.506847,1.3177 -1.897502,0.74542 -3.457164,1.3459 -3.465914,1.33438 -0.0088,-0.0115 1.048399,-1.30976 2.349221,-2.88498 1.300823,-1.57523 2.344252,-2.90873 2.31873,-2.96333 -0.02552,-0.0546 -1.089731,-1.35658 -2.364909,-2.89328 -1.275177,-1.5367 -2.311446,-2.80342 -2.302819,-2.81493 0.0086,-0.0115 1.571224,0.59015 3.472435,1.33703 1.901212,0.74688 3.485685,1.32779 3.521051,1.29093 0.03537,-0.0369 0.957549,-1.46512 2.049294,-3.17389 l 1.984992,-3.10686 -0.03761,0.56687 c -0.146894,2.2141 -0.414848,6.92245 -0.395388,6.94756 0.01866,0.0241 6.770959,1.79735 7.209231,1.89328 0.05864,0.0128 -1.516017,0.44207 -3.499251,0.95385 -1.983234,0.51178 -3.633702,0.94993 -3.667706,0.97367 -0.03401,0.0237 0.03954,1.71955 0.163441,3.76849 0.123899,2.04893 0.221434,3.72978 0.216746,3.73523 -0.0047,0.005 -0.903874,-1.39726 -1.998191,-3.11711 z m 87.206658,-0.89263 c 0,-0.0464 0.13335,-0.80186 0.29634,-1.67883 0.16298,-0.87697 0.29633,-1.63692 0.29633,-1.68878 0,-0.0519 -0.75248,-0.39489 -1.67217,-0.76229 l -1.67216,-0.66801 1.76972,-0.2354 c 0.97335,-0.12948 1.78363,-0.24931 1.80062,-0.26631 0.017,-0.017 0.0739,-0.77001 0.12657,-1.67338 0.0526,-0.90337 0.12157,-1.6721 0.15323,-1.70828 0.0317,-0.0362 0.39237,0.63538 0.80157,1.49236 l 0.744,1.55814 1.59681,-0.40646 c 0.87824,-0.22356 1.67285,-0.4306 1.76579,-0.4601 0.0929,-0.0295 -0.29661,0.39261 -0.86566,0.93802 -0.56906,0.5454 -1.16272,1.11446 -1.31924,1.26457 l -0.28459,0.27293 0.97904,1.53441 c 0.87837,1.37664 0.95172,1.52029 0.71339,1.39704 -0.14611,-0.0756 -0.85433,-0.45804 -1.57383,-0.84996 -0.71949,-0.39192 -1.33673,-0.70162 -1.37164,-0.68821 -0.0349,0.0134 -0.56312,0.62929 -1.1738,1.36863 -0.61067,0.73934 -1.11032,1.3063 -1.11032,1.25991 z m -66.44933,-10.94383 c 0.12685,-0.34296 2.89016,-9.20014 2.89797,-9.28882 0.005,-0.0564 -1.94065,-1.16468 -4.3236,-2.4629 l -4.332633,-2.36041 4.924093,-0.059 c 2.70825,-0.0324 4.94707,-0.0862 4.97516,-0.11943 0.0281,-0.0333 0.44702,-2.20114 0.93096,-4.8175 0.48394,-2.61636 0.89816,-4.73876 0.92049,-4.71643 0.0223,0.0223 0.73676,2.10201 1.58763,4.62152 0.85087,2.51951 1.55901,4.5929 1.57364,4.60754 0.0146,0.0146 2.19339,-0.25772 4.84167,-0.60523 2.64829,-0.3475 4.82935,-0.61755 4.84679,-0.6001 0.0174,0.0174 -1.73571,1.34138 -3.89591,2.94206 l -3.92761,2.91033 0.14805,0.33867 c 0.0814,0.18626 1.0402,2.20835 2.1306,4.49353 l 1.98253,4.15485 -3.96507,-2.82446 c -2.18079,-1.55345 -4.01217,-2.84197 -4.06974,-2.86338 -0.10302,-0.0383 -0.46255,0.29251 -5.01067,4.61032 -1.25473,1.1912 -2.26018,2.10865 -2.23435,2.0388 z m -22.275018,-7.06966 c -0.02411,-0.28924 -1.352508,-7.25876 -1.390828,-7.29708 -0.02595,-0.0259 -1.72453,-0.0672 -3.774624,-0.0917 l -3.727443,-0.0445 3.279126,-1.77883 c 1.803519,-0.97836 3.291354,-1.78825 3.306301,-1.79974 0.01495,-0.0115 -0.472494,-1.6104 -1.083199,-3.5531 -0.610706,-1.9427 -1.099184,-3.54314 -1.085508,-3.55653 0.01368,-0.0134 1.225015,1.11399 2.691865,2.5053 1.46685,1.3913 2.693001,2.5309 2.724781,2.53242 0.03178,0.002 1.398003,-0.95191 3.036053,-2.11877 1.638051,-1.16686 2.992078,-2.10775 3.008949,-2.09088 0.01687,0.0169 -0.673078,1.50907 -1.533221,3.316 -0.860142,1.80693 -1.563895,3.31311 -1.563895,3.34706 0,0.034 1.331389,1.04797 2.958642,2.25336 1.627253,1.2054 2.945147,2.20511 2.928652,2.22162 -0.01649,0.0165 -1.675177,-0.18538 -3.685961,-0.4486 -2.010784,-0.26322 -3.666361,-0.46615 -3.67906,-0.45096 -0.0127,0.0152 -0.558699,1.62782 -1.213331,3.58362 -0.654632,1.9558 -1.193417,3.5179 -1.197299,3.47134 z m 64.512878,-9.81355 c -0.53376,-0.56309 -1.40138,-1.4742 -1.92803,-2.02469 l -0.95755,-1.0009 -2.26297,1.43245 c -1.24464,0.78785 -2.31692,1.46348 -2.38285,1.50141 -0.0659,0.0379 -0.003,-0.13722 0.13895,-0.38922 0.58112,-1.02872 2.39391,-4.40906 2.3937,-4.46356 0,-0.0322 -0.94775,-0.83966 -2.10583,-1.79427 -1.15808,-0.95462 -2.06286,-1.74504 -2.01061,-1.7565 0.0522,-0.0114 1.2761,0.19937 2.71966,0.4685 l 2.62467,0.48932 1.02973,-2.58516 c 0.56636,-1.42184 1.04938,-2.52801 1.0734,-2.45816 0.024,0.0699 0.19691,1.30302 0.38422,2.74039 0.1873,1.43736 0.35197,2.62313 0.36593,2.63504 0.014,0.0119 1.16839,0.0872 2.56539,0.16722 1.397,0.0801 2.62653,0.17092 2.73231,0.20189 0.15218,0.0446 -0.32617,0.30407 -2.29274,1.24375 l -2.48504,1.18742 0.69768,2.70664 c 0.38372,1.48866 0.69155,2.71014 0.68407,2.71443 -0.008,0.004 -0.45033,-0.45293 -0.98409,-1.016 z M 87.983742,146.33359 c 0,-1.20143 0.720648,-3.18824 1.562759,-4.3085 1.714458,-2.28073 6.17078,-3.56876 12.376999,-3.57738 l 0.94342,-0.001 0.39884,-0.91016 c 2.81826,-6.43133 5.32454,-15.7309 10.31948,-38.290501 1.75972,-7.947743 2.62011,-11.457836 3.62679,-14.795885 0.28443,-0.943187 0.50146,-1.726547 0.48227,-1.740801 -0.12848,-0.09543 -6.11481,0.185824 -8.79789,0.413349 -3.32416,0.281887 -9.809122,1.19313 -11.485739,1.613935 l -0.192136,0.04822 0.170854,-0.616547 c 1.891983,-6.827451 10.768961,-8.698576 32.673681,-6.887087 3.70146,0.306106 8.68049,0.832094 10.87769,1.149127 l 0.67535,0.09745 -0.46369,0.418808 c -1.98596,1.793751 -3.82209,2.763162 -6.12292,3.232679 -1.69524,0.345938 -2.25187,0.376707 -7.62241,0.421337 -2.83451,0.02355 -5.16976,0.05894 -5.18945,0.07863 -0.0649,0.06488 -0.69072,3.375084 -1.46346,7.740539 -0.4183,2.363118 -1.06465,5.934879 -1.43634,7.937245 -0.37169,2.002372 -1.13733,6.174322 -1.70141,9.271002 -3.53514,19.40692 -5.64434,26.40965 -9.14224,30.353 l -0.52572,0.59266 0.4528,0.0605 c 0.24904,0.0333 1.4053,0.14037 2.56947,0.23796 1.16417,0.0976 3.37397,0.3077 4.91067,0.4669 4.57003,0.47346 6.91192,0.6537 9.96938,0.76727 1.83509,0.0682 1.77988,-0.0263 0.57429,0.98264 -2.55697,2.13988 -4.51095,3.02878 -8.08834,3.67958 l -1.18533,0.21564 -7.66234,0.0683 c -11.171103,0.0996 -14.715305,0.34701 -21.230162,1.48191 -0.258827,0.0451 -0.275166,0.0332 -0.275166,-0.20055 z m -38.353997,0.10307 c -5.828083,-0.54713 -8.402372,-2.59248 -8.690577,-6.90493 l -0.05478,-0.81966 0.259832,-0.25984 c 0.345832,-0.34583 0.888884,-0.34756 2.552725,-0.008 2.932671,0.59827 8.202979,0.68256 13.002465,0.20795 16.291161,-1.61102 28.744331,-9.80659 28.744331,-18.91699 0,-7.61516 -7.966566,-10.73652 -26.260524,-10.28907 l -2.596193,0.0635 -0.852261,3.01729 c -1.014265,3.59082 -1.55692,5.59083 -2.75983,10.17161 -1.446811,5.50958 -3.755211,13.82764 -3.904385,14.06901 -0.274245,0.44374 -3.001768,-0.28502 -4.300168,-1.14894 -2.571742,-1.71118 -2.690153,-3.13196 -0.755724,-9.06773 C 51.623808,103.20224 56.445171,90.332698 60.948,81.3511 c 0.253428,-0.505501 0.444784,-0.935087 0.425235,-0.954635 -0.06345,-0.06345 -2.35727,0.55557 -3.530825,0.952848 -1.363777,0.461673 -2.748908,1.077573 -4.360333,1.938828 -3.489352,1.864947 -3.625671,1.870867 -5.376066,0.233453 -1.251235,-1.170472 -1.646638,-2.016246 -1.057653,-2.26234 8.146993,-3.404031 13.863696,-4.660515 21.208051,-4.661354 10.315294,-0.0012 16.47029,2.09467 20.038957,6.823503 2.228385,2.952827 2.687922,8.515849 1.032031,12.493477 -1.968009,4.72737 -8.012656,8.80023 -16.139155,10.8745 -0.758308,0.19356 -0.99847,0.33048 -0.579658,0.33048 1.304978,0 5.932303,1.11031 8.009157,1.92178 8.261466,3.22789 11.621685,8.94293 9.656047,16.42294 -2.11667,8.05474 -11.358811,15.11253 -24.752914,18.90262 -5.346703,1.51295 -12.247366,2.41165 -15.89113,2.06958 z m 9.441777,-40.3358 c 12.366144,-0.79997 21.033181,-4.79288 23.66419,-10.902115 1.551526,-3.602658 1.275146,-8.397463 -0.629148,-10.914867 -2.222908,-2.938598 -7.231622,-4.675417 -13.496189,-4.67993 l -1.212367,-8.74e-4 -0.702189,1.462323 c -2.131145,4.43815 -3.528184,7.911575 -5.678678,14.118761 -1.144516,3.303532 -3.513397,10.676822 -3.513397,10.935672 0,0.0854 -0.0563,0.0861 1.567778,-0.019 z m 76.493298,39.90277 c -2.58016,-1.58041 -3.53319,-3.76966 -2.92124,-6.71056 0.89828,-4.31688 5.65238,-13.60919 11.75133,-22.96902 0.41836,-0.64205 0.74623,-1.18051 0.72858,-1.19657 -0.12169,-0.11077 -7.78825,-0.381 -10.93185,-0.38532 l -1.75577,-0.002 0.21518,-0.48684 c 1.87489,-4.24196 6.2558,-5.72262 14.26069,-4.81981 l 1.98966,0.2244 0.127,-0.18469 c 9.66536,-14.05628 21.0081,-27.783224 26.15727,-31.655421 2.80409,-2.10869 4.27105,-1.906145 7.94133,1.096471 l 0.9516,0.778493 -0.36386,0.446718 c -1.33106,1.634191 -3.27858,6.137631 -5.34489,12.35957 -6.76843,20.380549 -9.69146,40.015889 -6.43906,43.253989 2.49442,2.48344 7.41013,-1.74978 12.32894,-10.61718 l 0.879,-1.58462 0.53561,0.52629 c 0.29459,0.28946 0.64736,0.66555 0.78392,0.83576 l 0.24831,0.30946 -0.5462,1.31167 c -2.70738,6.50169 -6.71842,11.62526 -10.70622,13.6758 -3.2998,1.69676 -6.92962,1.66157 -9.04231,-0.0877 -3.44323,-2.8509 -4.39485,-11.72993 -2.401,-22.40245 0.0408,-0.21861 0.0622,-0.40949 0.0476,-0.42416 -0.11927,-0.11928 -11.90151,-1.66205 -12.26687,-1.60624 -0.73381,0.11212 -10.54264,19.62607 -14.6309,29.10712 -0.37148,0.86149 -0.70341,1.59524 -0.73761,1.63056 -0.0342,0.0353 -0.4204,-0.15517 -0.8582,-0.42333 z m 29.71816,-34.45122 c 2.00059,-8.73844 5.66102,-20.195809 8.67496,-27.15314 0.19271,-0.444844 0.11579,-0.397987 -1.02178,0.62247 -4.35835,3.909644 -10.0774,11.680216 -16.76236,22.77533 -1.41517,2.34877 -1.685,2.8468 -1.56967,2.8972 0.0766,0.0335 0.86317,0.21243 1.74794,0.39767 0.88477,0.18524 3.09457,0.67803 4.91067,1.09508 3.72197,0.85472 3.63115,0.83465 3.6671,0.8103 0.0145,-0.01 0.17346,-0.66006 0.35314,-1.44491 z"
         id="path265" />
      <path
         style="fill:#ee2e53;stroke-width:0.0846667"
         d="m 171.18284,210.11853 c -0.41068,-1.235 -0.77529,-2.24547 -0.81024,-2.24547 -0.035,0 -1.06839,0.13206 -2.29654,0.29345 -1.22814,0.1614 -2.24251,0.28392 -2.25415,0.27228 -0.0116,-0.0116 0.81516,-0.64171 1.83733,-1.40017 1.02217,-0.75844 1.8585,-1.39054 1.8585,-1.40465 0,-0.0141 -0.43866,-0.95069 -0.9748,-2.08128 -0.53612,-1.13058 -0.96271,-2.06768 -0.94794,-2.08244 0.0148,-0.0148 0.85094,0.56258 1.85819,1.28299 1.00725,0.7204 1.86245,1.30886 1.90045,1.30767 0.038,-0.001 0.81135,-0.70355 1.71855,-1.56082 0.9072,-0.85727 1.65955,-1.54858 1.67188,-1.53624 0.0123,0.0123 -0.28193,0.99093 -0.65391,2.17465 -0.37199,1.18373 -0.67667,2.17465 -0.67706,2.20206 0,0.0274 0.90418,0.54175 2.01013,1.143 l 2.01084,1.09317 -0.84667,0.0536 c -0.46567,0.0295 -1.50316,0.058 -2.30555,0.0635 -1.43933,0.01 -1.45949,0.0125 -1.50404,0.20045 -0.0248,0.10478 -0.21719,1.12395 -0.42746,2.26483 -0.21027,1.14089 -0.39097,2.10372 -0.40156,2.13963 -0.0106,0.0359 -0.35527,-0.94516 -0.76595,-2.18016 z m -70.42642,-15.86449 c -0.0169,-1.53589 -0.0555,-2.81737 -0.0859,-2.84774 -0.0304,-0.0304 -1.266334,-0.28207 -2.746604,-0.55937 -1.48027,-0.2773 -2.70133,-0.51411 -2.713467,-0.52625 -0.01214,-0.0121 1.14771,-0.4172 2.577436,-0.90014 1.429727,-0.48295 2.628025,-0.90252 2.662885,-0.9324 0.0349,-0.0299 -0.0904,-1.21435 -0.27833,-2.63216 -0.18794,-1.41781 -0.330764,-2.64664 -0.317382,-2.73074 0.01565,-0.0984 0.607652,0.63359 1.660282,2.05281 0.89978,1.21313 1.66574,2.20568 1.70214,2.20568 0.0364,0 1.18275,-0.53365 2.54743,-1.1859 1.36468,-0.65224 2.48956,-1.17612 2.49973,-1.16416 0.0102,0.012 -0.71477,1.05043 -1.61098,2.30773 l -1.62947,2.286 1.16345,1.22767 c 0.6399,0.67521 1.51693,1.60131 1.94896,2.058 0.57709,0.61002 0.73156,0.81665 0.58215,0.77872 -0.11185,-0.0284 -1.32731,-0.4065 -2.70103,-0.84022 -1.37372,-0.43372 -2.5038,-0.78414 -2.51129,-0.77871 -0.007,0.005 -0.62241,1.12674 -1.36648,2.49179 l -1.35287,2.48193 z m 49.7629,-1.17866 c -0.55192,-1.66356 -1.02744,-3.04892 -1.05671,-3.0786 -0.0293,-0.0297 -1.46044,0.13155 -3.18039,0.35826 -1.71996,0.22671 -3.13561,0.40339 -3.1459,0.39262 -0.0103,-0.0108 1.13465,-0.8736 2.5443,-1.9174 l 2.563,-1.89779 -0.3598,-0.76921 c -0.19789,-0.42305 -0.80294,-1.69888 -1.34457,-2.83518 -0.54162,-1.13629 -0.96944,-2.08132 -0.9507,-2.10005 0.0187,-0.0187 1.15993,0.7673 2.53601,1.74674 1.37608,0.97943 2.53618,1.79109 2.57801,1.8037 0.0418,0.0126 1.09376,-0.94363 2.33764,-2.12498 1.24388,-1.18135 2.27848,-2.13103 2.2991,-2.1104 0.0206,0.0206 -0.38456,1.38073 -0.90044,3.02245 -0.51586,1.64172 -0.92508,2.99594 -0.90937,3.0094 0.0157,0.0134 1.28512,0.70575 2.82089,1.53845 l 2.79233,1.51401 -3.18755,0.0423 c -1.75315,0.0233 -3.20479,0.0614 -3.22585,0.0847 -0.0211,0.0233 -0.30114,1.46057 -0.62239,3.19398 l -0.5841,3.15165 z m 17.81308,-5.66982 c 0,-0.0464 0.13335,-0.80186 0.29634,-1.67883 0.16298,-0.87697 0.29633,-1.63692 0.29633,-1.68878 0,-0.0519 -0.75248,-0.39489 -1.67217,-0.76229 l -1.67216,-0.66801 1.76972,-0.2354 c 0.97335,-0.12948 1.78363,-0.24931 1.80062,-0.26631 0.017,-0.017 0.0739,-0.77001 0.12657,-1.67338 0.0526,-0.90337 0.12157,-1.6721 0.15323,-1.70828 0.0317,-0.0362 0.39237,0.63538 0.80157,1.49236 l 0.744,1.55814 1.62015,-0.41263 c 0.89107,-0.22694 1.65366,-0.40155 1.69463,-0.38802 0.041,0.0135 -0.48677,0.56116 -1.17277,1.21695 l -1.24726,1.19235 0.93472,1.46914 c 0.51409,0.80803 0.92073,1.48313 0.90364,1.50023 -0.0171,0.0171 -0.70597,-0.33588 -1.53086,-0.78436 -0.82488,-0.44849 -1.52811,-0.80455 -1.56272,-0.79124 -0.0346,0.0133 -0.56258,0.62911 -1.17326,1.36845 -0.61067,0.73934 -1.11032,1.3063 -1.11032,1.25991 z M 79.608052,169.39207 c -0.02411,-0.28924 -1.352508,-7.25876 -1.390828,-7.29708 -0.02595,-0.0259 -1.72453,-0.0672 -3.774624,-0.0917 l -3.727443,-0.0445 3.279126,-1.77883 c 1.803519,-0.97836 3.291354,-1.78825 3.306301,-1.79974 0.01495,-0.0115 -0.472494,-1.6104 -1.083199,-3.5531 -0.610706,-1.9427 -1.099184,-3.54314 -1.085508,-3.55653 0.01368,-0.0134 1.225015,1.11399 2.691865,2.5053 1.46685,1.3913 2.693001,2.5309 2.724781,2.53242 0.03178,0.002 1.398003,-0.95191 3.036053,-2.11877 1.638051,-1.16686 2.992078,-2.10775 3.008949,-2.09088 0.01687,0.0169 -0.673078,1.50907 -1.533221,3.316 -0.860142,1.80693 -1.563895,3.31311 -1.563895,3.34706 0,0.034 1.331389,1.04797 2.958642,2.25336 1.627253,1.2054 2.945147,2.20511 2.928652,2.22162 -0.01649,0.0165 -1.675177,-0.18538 -3.685961,-0.4486 -2.010784,-0.26322 -3.666361,-0.46615 -3.67906,-0.45096 -0.0127,0.0152 -0.558699,1.62782 -1.213331,3.58362 -0.654632,1.9558 -1.193417,3.5179 -1.197299,3.47134 z m 8.37569,-23.05848 c 0,-1.20143 0.720648,-3.18824 1.562759,-4.3085 1.714458,-2.28073 6.17078,-3.56876 12.376999,-3.57738 l 0.94342,-0.001 0.39884,-0.91016 c 2.81826,-6.43133 5.32454,-15.7309 10.31948,-38.290501 1.75972,-7.947743 2.62011,-11.457836 3.62679,-14.795885 0.28443,-0.943187 0.50146,-1.726547 0.48227,-1.740801 -0.12848,-0.09543 -6.11481,0.185824 -8.79789,0.413349 -3.32416,0.281887 -9.809122,1.19313 -11.485739,1.613935 l -0.192136,0.04822 0.170854,-0.616547 c 1.891983,-6.827451 10.768961,-8.698576 32.673681,-6.887087 3.70146,0.306106 8.68049,0.832094 10.87769,1.149127 l 0.67535,0.09745 -0.46369,0.418808 c -1.98596,1.793751 -3.82209,2.763162 -6.12292,3.232679 -1.69524,0.345938 -2.25187,0.376707 -7.62241,0.421337 -2.83451,0.02355 -5.16976,0.05894 -5.18945,0.07863 -0.0649,0.06488 -0.69072,3.375084 -1.46346,7.740539 -0.4183,2.363118 -1.06465,5.934879 -1.43634,7.937245 -0.37169,2.002372 -1.13733,6.174322 -1.70141,9.271002 -3.53514,19.40692 -5.64434,26.40965 -9.14224,30.353 l -0.52572,0.59266 0.4528,0.0605 c 0.24904,0.0333 1.4053,0.14037 2.56947,0.23796 1.16417,0.0976 3.37397,0.3077 4.91067,0.4669 4.57003,0.47346 6.91192,0.6537 9.96938,0.76727 1.83509,0.0682 1.77988,-0.0263 0.57429,0.98264 -2.55697,2.13988 -4.51095,3.02878 -8.08834,3.67958 l -1.18533,0.21564 -7.66234,0.0683 c -11.171103,0.0996 -14.715305,0.34701 -21.230162,1.48191 -0.258827,0.0451 -0.275166,0.0332 -0.275166,-0.20055 z m -38.353997,0.10307 c -5.828083,-0.54713 -8.402372,-2.59248 -8.690577,-6.90493 l -0.05478,-0.81966 0.259832,-0.25984 c 0.345832,-0.34583 0.888884,-0.34756 2.552725,-0.008 2.932671,0.59827 8.202979,0.68256 13.002465,0.20795 16.291161,-1.61102 28.744331,-9.80659 28.744331,-18.91699 0,-7.61516 -7.966566,-10.73652 -26.260524,-10.28907 l -2.596193,0.0635 -0.852261,3.01729 c -1.014265,3.59082 -1.55692,5.59083 -2.75983,10.17161 -1.446811,5.50958 -3.755211,13.82764 -3.904385,14.06901 -0.274245,0.44374 -3.001768,-0.28502 -4.300168,-1.14894 -2.571742,-1.71118 -2.690153,-3.13196 -0.755724,-9.06773 C 51.623808,103.20224 56.445171,90.332698 60.948,81.3511 c 0.253428,-0.505501 0.444784,-0.935087 0.425235,-0.954635 -0.06345,-0.06345 -2.35727,0.55557 -3.530825,0.952848 -1.363777,0.461673 -2.748908,1.077573 -4.360333,1.938828 -3.489352,1.864947 -3.625671,1.870867 -5.376066,0.233453 -1.251235,-1.170472 -1.646638,-2.016246 -1.057653,-2.26234 8.146993,-3.404031 13.863696,-4.660515 21.208051,-4.661354 10.315294,-0.0012 16.47029,2.09467 20.038957,6.823503 2.228385,2.952827 2.687922,8.515849 1.032031,12.493477 -1.968009,4.72737 -8.012656,8.80023 -16.139155,10.8745 -0.758308,0.19356 -0.99847,0.33048 -0.579658,0.33048 1.304978,0 5.932303,1.11031 8.009157,1.92178 8.261466,3.22789 11.621685,8.94293 9.656047,16.42294 -2.11667,8.05474 -11.358811,15.11253 -24.752914,18.90262 -5.346703,1.51295 -12.247366,2.41165 -15.89113,2.06958 z m 9.441777,-40.3358 c 12.366144,-0.79997 21.033181,-4.79288 23.66419,-10.902115 1.551526,-3.602658 1.275146,-8.397463 -0.629148,-10.914867 -2.222908,-2.938598 -7.231622,-4.675417 -13.496189,-4.67993 l -1.212367,-8.74e-4 -0.702189,1.462323 c -2.131145,4.43815 -3.528184,7.911575 -5.678678,14.118761 -1.144516,3.303532 -3.513397,10.676822 -3.513397,10.935672 0,0.0854 -0.0563,0.0861 1.567778,-0.019 z m 76.493298,39.90277 c -2.58016,-1.58041 -3.53319,-3.76966 -2.92124,-6.71056 0.89828,-4.31688 5.65238,-13.60919 11.75133,-22.96902 0.41836,-0.64205 0.74623,-1.18051 0.72858,-1.19657 -0.12169,-0.11077 -7.78825,-0.381 -10.93185,-0.38532 l -1.75577,-0.002 0.21518,-0.48684 c 1.87489,-4.24196 6.2558,-5.72262 14.26069,-4.81981 l 1.98966,0.2244 0.127,-0.18469 c 9.66536,-14.05628 21.0081,-27.783224 26.15727,-31.655421 2.80409,-2.10869 4.27105,-1.906145 7.94133,1.096471 l 0.9516,0.778493 -0.36386,0.446718 c -1.33106,1.634191 -3.27858,6.137631 -5.34489,12.35957 -6.76843,20.380549 -9.69146,40.015889 -6.43906,43.253989 2.49442,2.48344 7.41013,-1.74978 12.32894,-10.61718 l 0.879,-1.58462 0.53561,0.52629 c 0.29459,0.28946 0.64736,0.66555 0.78392,0.83576 l 0.24831,0.30946 -0.5462,1.31167 c -2.70738,6.50169 -6.71842,11.62526 -10.70622,13.6758 -3.2998,1.69676 -6.92962,1.66157 -9.04231,-0.0877 -3.44323,-2.8509 -4.39485,-11.72993 -2.401,-22.40245 0.0408,-0.21861 0.0622,-0.40949 0.0476,-0.42416 -0.11927,-0.11928 -11.90151,-1.66205 -12.26687,-1.60624 -0.73381,0.11212 -10.54264,19.62607 -14.6309,29.10712 -0.37148,0.86149 -0.70341,1.59524 -0.73761,1.63056 -0.0342,0.0353 -0.4204,-0.15517 -0.8582,-0.42333 z m 29.71816,-34.45122 c 2.00059,-8.73844 5.66102,-20.195809 8.67496,-27.15314 0.19271,-0.444844 0.11579,-0.397987 -1.02178,0.62247 -4.35835,3.909644 -10.0774,11.680216 -16.76236,22.77533 -1.41517,2.34877 -1.685,2.8468 -1.56967,2.8972 0.0766,0.0335 0.86317,0.21243 1.74794,0.39767 0.88477,0.18524 3.09457,0.67803 4.91067,1.09508 3.72197,0.85472 3.63115,0.83465 3.6671,0.8103 0.0145,-0.01 0.17346,-0.66006 0.35314,-1.44491 z"
         id="path263" />
    </g>
  </g>
</svg>
