<?xml version="1.0" encoding="UTF-8" standalone="no"?>
<!-- Created with Inkscape (http://www.inkscape.org/) -->

<svg
   width="31.154322mm"
   height="22.779865mm"
   viewBox="0 0 31.154322 22.779865"
   version="1.1"
   id="svg5"
   inkscape:version="1.1.2 (0a00cf5339, 2022-02-04)"
   sodipodi:docname="gesture.svg"
   xmlns:inkscape="http://www.inkscape.org/namespaces/inkscape"
   xmlns:sodipodi="http://sodipodi.sourceforge.net/DTD/sodipodi-0.dtd"
   xmlns="http://www.w3.org/2000/svg"
   xmlns:svg="http://www.w3.org/2000/svg">
  <sodipodi:namedview
     id="namedview7"
     pagecolor="#505050"
     bordercolor="#eeeeee"
     borderopacity="1"
     inkscape:pageshadow="0"
     inkscape:pageopacity="0"
     inkscape:pagecheckerboard="0"
     inkscape:document-units="mm"
     showgrid="false"
     fit-margin-top="0"
     fit-margin-left="0"
     fit-margin-right="0"
     fit-margin-bottom="0"
     inkscape:zoom="3.6636623"
     inkscape:cx="136.74841"
     inkscape:cy="36.438948"
     inkscape:window-width="1920"
     inkscape:window-height="1020"
     inkscape:window-x="0"
     inkscape:window-y="0"
     inkscape:window-maximized="1"
     inkscape:current-layer="layer1" />
  <defs
     id="defs2" />
  <g
     inkscape:label="Layer 1"
     inkscape:groupmode="layer"
     id="layer1"
     transform="translate(-20.250965,-159.4104)">
    <g
       id="g1427"
       transform="translate(-15.718171,-0.14086091)">
      <path
         style="fill:#fa8219;stroke-width:0.0846667"
         d="m 56.845414,182.27977 c -0.01685,-0.0169 -0.21752,-0.056 -0.445939,-0.087 -1.763306,-0.23914 -3.686106,-1.3674 -3.72563,-2.18612 -0.002,-0.0404 -0.670299,-0.24093 -1.485216,-0.44555 -0.814916,-0.20462 -1.824566,-0.47054 -2.243666,-0.59093 -0.4191,-0.1204 -0.81915,-0.23084 -0.889,-0.24542 -0.06985,-0.0146 -0.41275,-0.10257 -0.762,-0.19553 -0.97583,-0.25972 -1.519411,-0.35575 -2.074333,-0.36644 -0.448461,-0.009 -0.70347,0.0142 -1.566334,0.14065 -1.350619,0.19785 -5.437524,0.19638 -5.758618,-0.002 -0.03041,-0.0188 -0.185442,-0.0558 -0.344507,-0.0823 -1.664754,-0.27726 -2.045991,-1.41787 -0.995189,-2.97748 1.120859,-1.66358 4.424247,-2.26442 8.788184,-1.59845 0.883915,0.13489 0.918561,0.12848 0.788056,-0.14589 -0.0498,-0.10471 -0.162431,-0.34278 -0.250285,-0.52904 -0.08785,-0.18627 -0.26247,-0.4989 -0.388037,-0.69473 l -0.228302,-0.35607 -0.310646,0.1298 c -4.998344,2.08844 -10.32997,-3.45758 -8.197768,-8.52741 2.807805,-6.67625 12.777277,-4.35174 12.378445,2.8862 l -0.04627,0.83969 0.26697,-0.0597 c 1.092975,-0.24459 4.231972,0.0232 5.247999,0.44774 0.203569,0.085 0.649522,0.11901 1.547155,0.11781 3.395161,-0.005 6.544682,1.6053 8.629191,4.41076 1.126001,1.51544 1.642416,3.65666 1.117356,4.63291 -0.209148,0.38887 0.083,0.87204 0.527272,0.87204 0.03773,0 0.212928,0.17613 0.389334,0.39141 0.755524,0.92202 0.08759,2.1442 -1.550234,2.83662 -0.220608,0.0933 -0.477305,0.2041 -0.570439,0.2463 -0.307429,0.13929 -1.940996,0.59929 -2.281302,0.6424 -0.183684,0.0233 -0.365554,0.0618 -0.404158,0.0857 -0.373849,0.23105 -4.975561,0.59668 -5.162088,0.41015 z m 3.124819,-0.93437 c 1.236123,-0.17851 1.935047,-0.32551 2.985228,-0.62784 1.391298,-0.40054 1.937985,-0.67018 2.474063,-1.22031 0.851925,-0.87424 0.370169,-2.09354 -0.572616,-1.44926 -1.998245,1.36556 -7.503188,2.47782 -10.278443,2.07674 -0.61508,-0.0889 -0.633113,-0.0837 -0.555585,0.16058 0.287541,0.90597 3.298388,1.44264 5.947353,1.06009 z m -1.864748,-1.98617 c 4.963803,-0.72469 6.649764,-1.70892 6.779989,-3.95801 0.196175,-3.3881 -5.024163,-7.67999 -8.722758,-7.17141 -0.498497,0.0686 -0.481856,0.0948 0.40542,0.63889 0.395893,0.24278 0.704837,0.45639 0.686542,0.47468 -0.04843,0.0484 -1.176101,-0.41033 -2.208386,-0.89842 -1.651275,-0.78077 -2.96509,-1.03203 -4.514778,-0.86345 -0.937889,0.10203 -1.713551,0.26246 -1.713551,0.35441 0,0.10282 1.353514,1.21048 2.151304,1.76054 0.883125,0.6089 0.827548,0.64989 -0.235121,0.17339 -1.555762,-0.69759 -3.384278,-2.22359 -5.044353,-4.2098 -0.895464,-1.07138 -1.224339,-1.24695 -2.204203,-1.17674 -1.54736,0.11087 -2.583663,0.94371 -2.367398,1.9026 0.134779,0.5976 0.571799,1.05712 3.119671,3.2803 1.617569,1.41143 2.738359,2.87562 3.092143,4.03954 0.271584,0.89348 0.131583,0.93556 -1.983377,0.59619 -5.032917,-0.80761 -7.470895,-0.15055 -8.085443,2.17909 -0.30434,1.1537 1.670922,1.55465 5.554748,1.12755 2.629331,-0.28914 2.97912,-0.25103 6.764029,0.73696 4.748998,1.23965 5.977405,1.38571 8.525522,1.01369 z m -0.695282,-1.30195 c -0.140484,-0.0612 -0.475137,-0.37985 -0.743673,-0.70808 -0.268538,-0.32823 -0.83402,-0.92498 -1.256629,-1.3261 -0.830433,-0.78822 -0.884976,-0.98056 -0.278062,-0.98056 0.43739,0 2.999457,2.43657 2.999457,2.85253 0,0.2434 -0.352694,0.32274 -0.721093,0.16221 z m 2.60422,-0.6137 c -0.0586,-0.0247 -0.371457,-0.4322 -0.695247,-0.90549 -0.32379,-0.4733 -0.759269,-1.0701 -0.967732,-1.32621 -1.437086,-1.76561 -1.52504,-1.94734 -0.942472,-1.94734 0.321884,0 0.351696,0.0237 1.018657,0.80884 1.281246,1.50833 2.445498,3.11395 2.387079,3.29202 -0.03147,0.0959 -0.621553,0.15358 -0.800285,0.0782 z m 2.118048,-0.59763 c -0.0972,-0.0838 -0.240134,-0.37817 -0.317634,-0.6541 -0.0775,-0.27593 -0.337542,-0.88553 -0.577869,-1.35467 -0.240326,-0.46913 -0.449861,-0.881 -0.465632,-0.91526 -0.06907,-0.15002 0.398521,-0.2585 0.655471,-0.15207 0.438498,0.18164 1.443107,2.16012 1.476181,2.90721 0.01484,0.33524 -0.45756,0.43878 -0.770517,0.16889 z m -18.526807,-5.65207 c 0.88014,-0.1684 0.884924,-0.17541 0.432785,-0.63445 l -0.393086,-0.39909 -0.655002,0.0379 c -5.070907,0.29355 -6.237222,-7.03881 -1.323214,-8.31874 2.523276,-0.65723 5.288149,1.35209 5.288149,3.84307 0,0.25188 0.07321,0.36467 0.486833,0.75002 l 0.486834,0.45355 0.07412,-0.45031 c 0.274698,-1.66893 -0.829797,-3.92907 -2.402453,-4.91615 -4.83533,-3.03493 -10.337106,2.46685 -7.30218,7.30218 1.098226,1.74972 3.298186,2.71639 5.307215,2.332 z m -0.968368,-1.91783 c -2.52691,-2.06368 -3.012038,-3.00901 -2.121323,-4.13363 0.951985,-1.20198 4.207064,-1.45252 5.317536,-0.40928 l 0.192656,0.18099 -0.09224,-0.26459 c -0.846862,-2.42931 -4.521043,-2.85631 -6.027188,-0.70045 -1.554097,2.22449 -0.01105,5.48291 2.603557,5.49788 l 0.338667,0.002 z"
         id="path1431" />
      <path
         style="fill:#28797c;stroke-width:0.0846667"
         d="m 57.410203,178.05728 c -0.140484,-0.0612 -0.475137,-0.37985 -0.743673,-0.70808 -0.268538,-0.32823 -0.83402,-0.92498 -1.256629,-1.3261 -0.830433,-0.78822 -0.884976,-0.98056 -0.278062,-0.98056 0.43739,0 2.999457,2.43657 2.999457,2.85253 0,0.2434 -0.352694,0.32274 -0.721093,0.16221 z m 2.60422,-0.6137 c -0.0586,-0.0247 -0.371457,-0.4322 -0.695247,-0.90549 -0.32379,-0.4733 -0.759269,-1.0701 -0.967732,-1.32621 -1.437086,-1.76561 -1.52504,-1.94734 -0.942472,-1.94734 0.321884,0 0.351696,0.0237 1.018657,0.80884 1.281246,1.50833 2.445498,3.11395 2.387079,3.29202 -0.03147,0.0959 -0.621553,0.15358 -0.800285,0.0782 z m 2.118048,-0.59763 c -0.0972,-0.0838 -0.240134,-0.37817 -0.317634,-0.6541 -0.0775,-0.27593 -0.337542,-0.88553 -0.577869,-1.35467 -0.240326,-0.46913 -0.449861,-0.881 -0.465632,-0.91526 -0.06907,-0.15002 0.398521,-0.2585 0.655471,-0.15207 0.438498,0.18164 1.443107,2.16012 1.476181,2.90721 0.01484,0.33524 -0.45756,0.43878 -0.770517,0.16889 z m -20.768289,-4.55436 c -5.507444,-1.09833 -6.91657,-8.58876 -2.198219,-11.68497 4.625449,-3.03526 10.832516,0.91059 9.938169,6.31772 -0.152461,0.92176 -1.190445,0.44583 -1.090342,-0.49993 0.186721,-1.76413 -0.80526,-3.80908 -2.328494,-4.80013 -4.896881,-3.18604 -10.508307,2.42538 -7.322266,7.32226 1.232813,1.89481 4.00423,2.85846 5.975192,2.07762 0.09398,-0.0372 0.255943,0.0887 0.536712,0.41737 l 0.402118,0.47068 -0.316872,0.1324 c -0.847698,0.35419 -2.492088,0.46713 -3.595998,0.24698 z m 0.266625,-2.20887 c -4.171186,-1.12177 -4.144638,-7.1142 0.03634,-8.2032 2.500656,-0.65134 5.310925,1.37123 5.285454,3.80398 l -0.0027,0.25738 -0.423853,-0.46567 c -0.233118,-0.25612 -0.512907,-0.65617 -0.621752,-0.889 -1.364836,-2.91956 -5.54442,-2.6845 -6.486247,0.36478 -0.660617,2.13883 0.963164,4.48273 3.122327,4.50703 0.370801,0.004 1.140825,0.61254 0.894799,0.70695 -0.242318,0.093 -1.338602,0.043 -1.804374,-0.0823 z"
         id="path1429" />
    </g>
  </g>
</svg>
